M48
METRIC
T1C0.400
T2C0.600
T3C0.800
T4C1.000
T5C1.300
%
G90
G05
T1
X84.112Y-107.95
X109.385Y-107.061
X121.577Y-101.981
X127.165Y-89.789
X136.817Y-93.599
X148.755Y-88.011
T2
X120.942Y-89.44
X120.942Y-91.44
T3
X133.007Y-100.203
X140.627Y-100.203
X91.732Y-98.425
X91.732Y-113.665
X94.272Y-98.425
X94.272Y-113.665
X96.812Y-98.425
X96.812Y-113.665
X99.352Y-98.425
X99.352Y-113.665
X101.892Y-98.425
X101.892Y-113.665
X104.432Y-98.425
X104.432Y-113.665
X106.972Y-98.425
X106.972Y-113.665
X109.512Y-98.425
X109.512Y-113.665
X112.052Y-98.425
X112.052Y-113.665
X114.592Y-98.425
X114.592Y-113.665
X117.132Y-98.425
X117.132Y-113.665
X119.672Y-98.425
X119.672Y-113.665
X122.212Y-98.425
X122.212Y-113.665
X124.752Y-98.425
X124.752Y-113.665
X127.292Y-98.425
X127.292Y-113.665
T4
X148.247Y-104.775
X148.247Y-107.315
X148.247Y-109.855
X76.492Y-83.185
X79.032Y-83.185
X81.572Y-83.185
X84.112Y-83.185
X86.652Y-83.185
X89.192Y-83.185
X91.732Y-83.185
X94.272Y-83.185
X96.812Y-83.185
X99.352Y-83.185
X101.892Y-83.185
X104.432Y-83.185
X106.972Y-83.185
X109.512Y-83.185
X112.052Y-83.185
X114.592Y-83.185
X127.292Y-83.185
X129.832Y-83.185
X148.247Y-93.345
X148.247Y-95.885
X72.047Y-100.33
X72.047Y-102.87
X72.047Y-105.41
X72.047Y-107.95
X138.722Y-83.185
X141.262Y-83.185
T5
X112.052Y-86.995
X112.052Y-91.995
T0
M30
