G04 #@! TF.GenerationSoftware,KiCad,Pcbnew,(5.1.5)-3*
G04 #@! TF.CreationDate,2020-07-14T08:47:51-04:00*
G04 #@! TF.ProjectId,WR9R_Raduino,57523952-5f52-4616-9475-696e6f2e6b69,rev?*
G04 #@! TF.SameCoordinates,Original*
G04 #@! TF.FileFunction,Soldermask,Bot*
G04 #@! TF.FilePolarity,Negative*
%FSLAX46Y46*%
G04 Gerber Fmt 4.6, Leading zero omitted, Abs format (unit mm)*
G04 Created by KiCad (PCBNEW (5.1.5)-3) date 2020-07-14 08:47:51*
%MOMM*%
%LPD*%
G04 APERTURE LIST*
%ADD10C,0.100000*%
G04 APERTURE END LIST*
D10*
G36*
X94520328Y-112846702D02*
G01*
X94675200Y-112910852D01*
X94814581Y-113003984D01*
X94933115Y-113122518D01*
X95026247Y-113261899D01*
X95090397Y-113416771D01*
X95123100Y-113581183D01*
X95123100Y-113748815D01*
X95090397Y-113913227D01*
X95026247Y-114068099D01*
X94933115Y-114207480D01*
X94814581Y-114326014D01*
X94675200Y-114419146D01*
X94520328Y-114483296D01*
X94355916Y-114515999D01*
X94188284Y-114515999D01*
X94023872Y-114483296D01*
X93869000Y-114419146D01*
X93729619Y-114326014D01*
X93611085Y-114207480D01*
X93517953Y-114068099D01*
X93453803Y-113913227D01*
X93421100Y-113748815D01*
X93421100Y-113581183D01*
X93453803Y-113416771D01*
X93517953Y-113261899D01*
X93611085Y-113122518D01*
X93729619Y-113003984D01*
X93869000Y-112910852D01*
X94023872Y-112846702D01*
X94188284Y-112813999D01*
X94355916Y-112813999D01*
X94520328Y-112846702D01*
G37*
G36*
X125000328Y-112846702D02*
G01*
X125155200Y-112910852D01*
X125294581Y-113003984D01*
X125413115Y-113122518D01*
X125506247Y-113261899D01*
X125570397Y-113416771D01*
X125603100Y-113581183D01*
X125603100Y-113748815D01*
X125570397Y-113913227D01*
X125506247Y-114068099D01*
X125413115Y-114207480D01*
X125294581Y-114326014D01*
X125155200Y-114419146D01*
X125000328Y-114483296D01*
X124835916Y-114515999D01*
X124668284Y-114515999D01*
X124503872Y-114483296D01*
X124349000Y-114419146D01*
X124209619Y-114326014D01*
X124091085Y-114207480D01*
X123997953Y-114068099D01*
X123933803Y-113913227D01*
X123901100Y-113748815D01*
X123901100Y-113581183D01*
X123933803Y-113416771D01*
X123997953Y-113261899D01*
X124091085Y-113122518D01*
X124209619Y-113003984D01*
X124349000Y-112910852D01*
X124503872Y-112846702D01*
X124668284Y-112813999D01*
X124835916Y-112813999D01*
X125000328Y-112846702D01*
G37*
G36*
X119920328Y-112846702D02*
G01*
X120075200Y-112910852D01*
X120214581Y-113003984D01*
X120333115Y-113122518D01*
X120426247Y-113261899D01*
X120490397Y-113416771D01*
X120523100Y-113581183D01*
X120523100Y-113748815D01*
X120490397Y-113913227D01*
X120426247Y-114068099D01*
X120333115Y-114207480D01*
X120214581Y-114326014D01*
X120075200Y-114419146D01*
X119920328Y-114483296D01*
X119755916Y-114515999D01*
X119588284Y-114515999D01*
X119423872Y-114483296D01*
X119269000Y-114419146D01*
X119129619Y-114326014D01*
X119011085Y-114207480D01*
X118917953Y-114068099D01*
X118853803Y-113913227D01*
X118821100Y-113748815D01*
X118821100Y-113581183D01*
X118853803Y-113416771D01*
X118917953Y-113261899D01*
X119011085Y-113122518D01*
X119129619Y-113003984D01*
X119269000Y-112910852D01*
X119423872Y-112846702D01*
X119588284Y-112813999D01*
X119755916Y-112813999D01*
X119920328Y-112846702D01*
G37*
G36*
X122460328Y-112846702D02*
G01*
X122615200Y-112910852D01*
X122754581Y-113003984D01*
X122873115Y-113122518D01*
X122966247Y-113261899D01*
X123030397Y-113416771D01*
X123063100Y-113581183D01*
X123063100Y-113748815D01*
X123030397Y-113913227D01*
X122966247Y-114068099D01*
X122873115Y-114207480D01*
X122754581Y-114326014D01*
X122615200Y-114419146D01*
X122460328Y-114483296D01*
X122295916Y-114515999D01*
X122128284Y-114515999D01*
X121963872Y-114483296D01*
X121809000Y-114419146D01*
X121669619Y-114326014D01*
X121551085Y-114207480D01*
X121457953Y-114068099D01*
X121393803Y-113913227D01*
X121361100Y-113748815D01*
X121361100Y-113581183D01*
X121393803Y-113416771D01*
X121457953Y-113261899D01*
X121551085Y-113122518D01*
X121669619Y-113003984D01*
X121809000Y-112910852D01*
X121963872Y-112846702D01*
X122128284Y-112813999D01*
X122295916Y-112813999D01*
X122460328Y-112846702D01*
G37*
G36*
X91980328Y-112846702D02*
G01*
X92135200Y-112910852D01*
X92274581Y-113003984D01*
X92393115Y-113122518D01*
X92486247Y-113261899D01*
X92550397Y-113416771D01*
X92583100Y-113581183D01*
X92583100Y-113748815D01*
X92550397Y-113913227D01*
X92486247Y-114068099D01*
X92393115Y-114207480D01*
X92274581Y-114326014D01*
X92135200Y-114419146D01*
X91980328Y-114483296D01*
X91815916Y-114515999D01*
X91648284Y-114515999D01*
X91483872Y-114483296D01*
X91329000Y-114419146D01*
X91189619Y-114326014D01*
X91071085Y-114207480D01*
X90977953Y-114068099D01*
X90913803Y-113913227D01*
X90881100Y-113748815D01*
X90881100Y-113581183D01*
X90913803Y-113416771D01*
X90977953Y-113261899D01*
X91071085Y-113122518D01*
X91189619Y-113003984D01*
X91329000Y-112910852D01*
X91483872Y-112846702D01*
X91648284Y-112813999D01*
X91815916Y-112813999D01*
X91980328Y-112846702D01*
G37*
G36*
X117380328Y-112846702D02*
G01*
X117535200Y-112910852D01*
X117674581Y-113003984D01*
X117793115Y-113122518D01*
X117886247Y-113261899D01*
X117950397Y-113416771D01*
X117983100Y-113581183D01*
X117983100Y-113748815D01*
X117950397Y-113913227D01*
X117886247Y-114068099D01*
X117793115Y-114207480D01*
X117674581Y-114326014D01*
X117535200Y-114419146D01*
X117380328Y-114483296D01*
X117215916Y-114515999D01*
X117048284Y-114515999D01*
X116883872Y-114483296D01*
X116729000Y-114419146D01*
X116589619Y-114326014D01*
X116471085Y-114207480D01*
X116377953Y-114068099D01*
X116313803Y-113913227D01*
X116281100Y-113748815D01*
X116281100Y-113581183D01*
X116313803Y-113416771D01*
X116377953Y-113261899D01*
X116471085Y-113122518D01*
X116589619Y-113003984D01*
X116729000Y-112910852D01*
X116883872Y-112846702D01*
X117048284Y-112813999D01*
X117215916Y-112813999D01*
X117380328Y-112846702D01*
G37*
G36*
X127540328Y-112846702D02*
G01*
X127695200Y-112910852D01*
X127834581Y-113003984D01*
X127953115Y-113122518D01*
X128046247Y-113261899D01*
X128110397Y-113416771D01*
X128143100Y-113581183D01*
X128143100Y-113748815D01*
X128110397Y-113913227D01*
X128046247Y-114068099D01*
X127953115Y-114207480D01*
X127834581Y-114326014D01*
X127695200Y-114419146D01*
X127540328Y-114483296D01*
X127375916Y-114515999D01*
X127208284Y-114515999D01*
X127043872Y-114483296D01*
X126889000Y-114419146D01*
X126749619Y-114326014D01*
X126631085Y-114207480D01*
X126537953Y-114068099D01*
X126473803Y-113913227D01*
X126441100Y-113748815D01*
X126441100Y-113581183D01*
X126473803Y-113416771D01*
X126537953Y-113261899D01*
X126631085Y-113122518D01*
X126749619Y-113003984D01*
X126889000Y-112910852D01*
X127043872Y-112846702D01*
X127208284Y-112813999D01*
X127375916Y-112813999D01*
X127540328Y-112846702D01*
G37*
G36*
X114840328Y-112846702D02*
G01*
X114995200Y-112910852D01*
X115134581Y-113003984D01*
X115253115Y-113122518D01*
X115346247Y-113261899D01*
X115410397Y-113416771D01*
X115443100Y-113581183D01*
X115443100Y-113748815D01*
X115410397Y-113913227D01*
X115346247Y-114068099D01*
X115253115Y-114207480D01*
X115134581Y-114326014D01*
X114995200Y-114419146D01*
X114840328Y-114483296D01*
X114675916Y-114515999D01*
X114508284Y-114515999D01*
X114343872Y-114483296D01*
X114189000Y-114419146D01*
X114049619Y-114326014D01*
X113931085Y-114207480D01*
X113837953Y-114068099D01*
X113773803Y-113913227D01*
X113741100Y-113748815D01*
X113741100Y-113581183D01*
X113773803Y-113416771D01*
X113837953Y-113261899D01*
X113931085Y-113122518D01*
X114049619Y-113003984D01*
X114189000Y-112910852D01*
X114343872Y-112846702D01*
X114508284Y-112813999D01*
X114675916Y-112813999D01*
X114840328Y-112846702D01*
G37*
G36*
X109760328Y-112846702D02*
G01*
X109915200Y-112910852D01*
X110054581Y-113003984D01*
X110173115Y-113122518D01*
X110266247Y-113261899D01*
X110330397Y-113416771D01*
X110363100Y-113581183D01*
X110363100Y-113748815D01*
X110330397Y-113913227D01*
X110266247Y-114068099D01*
X110173115Y-114207480D01*
X110054581Y-114326014D01*
X109915200Y-114419146D01*
X109760328Y-114483296D01*
X109595916Y-114515999D01*
X109428284Y-114515999D01*
X109263872Y-114483296D01*
X109109000Y-114419146D01*
X108969619Y-114326014D01*
X108851085Y-114207480D01*
X108757953Y-114068099D01*
X108693803Y-113913227D01*
X108661100Y-113748815D01*
X108661100Y-113581183D01*
X108693803Y-113416771D01*
X108757953Y-113261899D01*
X108851085Y-113122518D01*
X108969619Y-113003984D01*
X109109000Y-112910852D01*
X109263872Y-112846702D01*
X109428284Y-112813999D01*
X109595916Y-112813999D01*
X109760328Y-112846702D01*
G37*
G36*
X107220328Y-112846702D02*
G01*
X107375200Y-112910852D01*
X107514581Y-113003984D01*
X107633115Y-113122518D01*
X107726247Y-113261899D01*
X107790397Y-113416771D01*
X107823100Y-113581183D01*
X107823100Y-113748815D01*
X107790397Y-113913227D01*
X107726247Y-114068099D01*
X107633115Y-114207480D01*
X107514581Y-114326014D01*
X107375200Y-114419146D01*
X107220328Y-114483296D01*
X107055916Y-114515999D01*
X106888284Y-114515999D01*
X106723872Y-114483296D01*
X106569000Y-114419146D01*
X106429619Y-114326014D01*
X106311085Y-114207480D01*
X106217953Y-114068099D01*
X106153803Y-113913227D01*
X106121100Y-113748815D01*
X106121100Y-113581183D01*
X106153803Y-113416771D01*
X106217953Y-113261899D01*
X106311085Y-113122518D01*
X106429619Y-113003984D01*
X106569000Y-112910852D01*
X106723872Y-112846702D01*
X106888284Y-112813999D01*
X107055916Y-112813999D01*
X107220328Y-112846702D01*
G37*
G36*
X104680328Y-112846702D02*
G01*
X104835200Y-112910852D01*
X104974581Y-113003984D01*
X105093115Y-113122518D01*
X105186247Y-113261899D01*
X105250397Y-113416771D01*
X105283100Y-113581183D01*
X105283100Y-113748815D01*
X105250397Y-113913227D01*
X105186247Y-114068099D01*
X105093115Y-114207480D01*
X104974581Y-114326014D01*
X104835200Y-114419146D01*
X104680328Y-114483296D01*
X104515916Y-114515999D01*
X104348284Y-114515999D01*
X104183872Y-114483296D01*
X104029000Y-114419146D01*
X103889619Y-114326014D01*
X103771085Y-114207480D01*
X103677953Y-114068099D01*
X103613803Y-113913227D01*
X103581100Y-113748815D01*
X103581100Y-113581183D01*
X103613803Y-113416771D01*
X103677953Y-113261899D01*
X103771085Y-113122518D01*
X103889619Y-113003984D01*
X104029000Y-112910852D01*
X104183872Y-112846702D01*
X104348284Y-112813999D01*
X104515916Y-112813999D01*
X104680328Y-112846702D01*
G37*
G36*
X102140328Y-112846702D02*
G01*
X102295200Y-112910852D01*
X102434581Y-113003984D01*
X102553115Y-113122518D01*
X102646247Y-113261899D01*
X102710397Y-113416771D01*
X102743100Y-113581183D01*
X102743100Y-113748815D01*
X102710397Y-113913227D01*
X102646247Y-114068099D01*
X102553115Y-114207480D01*
X102434581Y-114326014D01*
X102295200Y-114419146D01*
X102140328Y-114483296D01*
X101975916Y-114515999D01*
X101808284Y-114515999D01*
X101643872Y-114483296D01*
X101489000Y-114419146D01*
X101349619Y-114326014D01*
X101231085Y-114207480D01*
X101137953Y-114068099D01*
X101073803Y-113913227D01*
X101041100Y-113748815D01*
X101041100Y-113581183D01*
X101073803Y-113416771D01*
X101137953Y-113261899D01*
X101231085Y-113122518D01*
X101349619Y-113003984D01*
X101489000Y-112910852D01*
X101643872Y-112846702D01*
X101808284Y-112813999D01*
X101975916Y-112813999D01*
X102140328Y-112846702D01*
G37*
G36*
X99600328Y-112846702D02*
G01*
X99755200Y-112910852D01*
X99894581Y-113003984D01*
X100013115Y-113122518D01*
X100106247Y-113261899D01*
X100170397Y-113416771D01*
X100203100Y-113581183D01*
X100203100Y-113748815D01*
X100170397Y-113913227D01*
X100106247Y-114068099D01*
X100013115Y-114207480D01*
X99894581Y-114326014D01*
X99755200Y-114419146D01*
X99600328Y-114483296D01*
X99435916Y-114515999D01*
X99268284Y-114515999D01*
X99103872Y-114483296D01*
X98949000Y-114419146D01*
X98809619Y-114326014D01*
X98691085Y-114207480D01*
X98597953Y-114068099D01*
X98533803Y-113913227D01*
X98501100Y-113748815D01*
X98501100Y-113581183D01*
X98533803Y-113416771D01*
X98597953Y-113261899D01*
X98691085Y-113122518D01*
X98809619Y-113003984D01*
X98949000Y-112910852D01*
X99103872Y-112846702D01*
X99268284Y-112813999D01*
X99435916Y-112813999D01*
X99600328Y-112846702D01*
G37*
G36*
X97060328Y-112846702D02*
G01*
X97215200Y-112910852D01*
X97354581Y-113003984D01*
X97473115Y-113122518D01*
X97566247Y-113261899D01*
X97630397Y-113416771D01*
X97663100Y-113581183D01*
X97663100Y-113748815D01*
X97630397Y-113913227D01*
X97566247Y-114068099D01*
X97473115Y-114207480D01*
X97354581Y-114326014D01*
X97215200Y-114419146D01*
X97060328Y-114483296D01*
X96895916Y-114515999D01*
X96728284Y-114515999D01*
X96563872Y-114483296D01*
X96409000Y-114419146D01*
X96269619Y-114326014D01*
X96151085Y-114207480D01*
X96057953Y-114068099D01*
X95993803Y-113913227D01*
X95961100Y-113748815D01*
X95961100Y-113581183D01*
X95993803Y-113416771D01*
X96057953Y-113261899D01*
X96151085Y-113122518D01*
X96269619Y-113003984D01*
X96409000Y-112910852D01*
X96563872Y-112846702D01*
X96728284Y-112813999D01*
X96895916Y-112813999D01*
X97060328Y-112846702D01*
G37*
G36*
X112300328Y-112846702D02*
G01*
X112455200Y-112910852D01*
X112594581Y-113003984D01*
X112713115Y-113122518D01*
X112806247Y-113261899D01*
X112870397Y-113416771D01*
X112903100Y-113581183D01*
X112903100Y-113748815D01*
X112870397Y-113913227D01*
X112806247Y-114068099D01*
X112713115Y-114207480D01*
X112594581Y-114326014D01*
X112455200Y-114419146D01*
X112300328Y-114483296D01*
X112135916Y-114515999D01*
X111968284Y-114515999D01*
X111803872Y-114483296D01*
X111649000Y-114419146D01*
X111509619Y-114326014D01*
X111391085Y-114207480D01*
X111297953Y-114068099D01*
X111233803Y-113913227D01*
X111201100Y-113748815D01*
X111201100Y-113581183D01*
X111233803Y-113416771D01*
X111297953Y-113261899D01*
X111391085Y-113122518D01*
X111509619Y-113003984D01*
X111649000Y-112910852D01*
X111803872Y-112846702D01*
X111968284Y-112813999D01*
X112135916Y-112813999D01*
X112300328Y-112846702D01*
G37*
G36*
X148360612Y-108958926D02*
G01*
X148509912Y-108988623D01*
X148673884Y-109056543D01*
X148821454Y-109155146D01*
X148946953Y-109280645D01*
X149045556Y-109428215D01*
X149113476Y-109592187D01*
X149148100Y-109766258D01*
X149148100Y-109943740D01*
X149113476Y-110117811D01*
X149045556Y-110281783D01*
X148946953Y-110429353D01*
X148821454Y-110554852D01*
X148673884Y-110653455D01*
X148509912Y-110721375D01*
X148360612Y-110751072D01*
X148335842Y-110755999D01*
X148158358Y-110755999D01*
X148133588Y-110751072D01*
X147984288Y-110721375D01*
X147820316Y-110653455D01*
X147672746Y-110554852D01*
X147547247Y-110429353D01*
X147448644Y-110281783D01*
X147380724Y-110117811D01*
X147346100Y-109943740D01*
X147346100Y-109766258D01*
X147380724Y-109592187D01*
X147448644Y-109428215D01*
X147547247Y-109280645D01*
X147672746Y-109155146D01*
X147820316Y-109056543D01*
X147984288Y-108988623D01*
X148133588Y-108958926D01*
X148158358Y-108953999D01*
X148335842Y-108953999D01*
X148360612Y-108958926D01*
G37*
G36*
X72948100Y-108850999D02*
G01*
X71146100Y-108850999D01*
X71146100Y-107048999D01*
X72948100Y-107048999D01*
X72948100Y-108850999D01*
G37*
G36*
X148360612Y-106418926D02*
G01*
X148509912Y-106448623D01*
X148673884Y-106516543D01*
X148821454Y-106615146D01*
X148946953Y-106740645D01*
X149045556Y-106888215D01*
X149113476Y-107052187D01*
X149148100Y-107226258D01*
X149148100Y-107403740D01*
X149113476Y-107577811D01*
X149045556Y-107741783D01*
X148946953Y-107889353D01*
X148821454Y-108014852D01*
X148673884Y-108113455D01*
X148509912Y-108181375D01*
X148360612Y-108211072D01*
X148335842Y-108215999D01*
X148158358Y-108215999D01*
X148133588Y-108211072D01*
X147984288Y-108181375D01*
X147820316Y-108113455D01*
X147672746Y-108014852D01*
X147547247Y-107889353D01*
X147448644Y-107741783D01*
X147380724Y-107577811D01*
X147346100Y-107403740D01*
X147346100Y-107226258D01*
X147380724Y-107052187D01*
X147448644Y-106888215D01*
X147547247Y-106740645D01*
X147672746Y-106615146D01*
X147820316Y-106516543D01*
X147984288Y-106448623D01*
X148133588Y-106418926D01*
X148158358Y-106413999D01*
X148335842Y-106413999D01*
X148360612Y-106418926D01*
G37*
G36*
X72160612Y-104513926D02*
G01*
X72309912Y-104543623D01*
X72473884Y-104611543D01*
X72621454Y-104710146D01*
X72746953Y-104835645D01*
X72845556Y-104983215D01*
X72913476Y-105147187D01*
X72948100Y-105321258D01*
X72948100Y-105498740D01*
X72913476Y-105672811D01*
X72845556Y-105836783D01*
X72746953Y-105984353D01*
X72621454Y-106109852D01*
X72473884Y-106208455D01*
X72309912Y-106276375D01*
X72160612Y-106306072D01*
X72135842Y-106310999D01*
X71958358Y-106310999D01*
X71933588Y-106306072D01*
X71784288Y-106276375D01*
X71620316Y-106208455D01*
X71472746Y-106109852D01*
X71347247Y-105984353D01*
X71248644Y-105836783D01*
X71180724Y-105672811D01*
X71146100Y-105498740D01*
X71146100Y-105321258D01*
X71180724Y-105147187D01*
X71248644Y-104983215D01*
X71347247Y-104835645D01*
X71472746Y-104710146D01*
X71620316Y-104611543D01*
X71784288Y-104543623D01*
X71933588Y-104513926D01*
X71958358Y-104508999D01*
X72135842Y-104508999D01*
X72160612Y-104513926D01*
G37*
G36*
X149148100Y-105675999D02*
G01*
X147346100Y-105675999D01*
X147346100Y-103873999D01*
X149148100Y-103873999D01*
X149148100Y-105675999D01*
G37*
G36*
X72160612Y-101973926D02*
G01*
X72309912Y-102003623D01*
X72473884Y-102071543D01*
X72621454Y-102170146D01*
X72746953Y-102295645D01*
X72845556Y-102443215D01*
X72913476Y-102607187D01*
X72948100Y-102781258D01*
X72948100Y-102958740D01*
X72913476Y-103132811D01*
X72845556Y-103296783D01*
X72746953Y-103444353D01*
X72621454Y-103569852D01*
X72473884Y-103668455D01*
X72309912Y-103736375D01*
X72160612Y-103766072D01*
X72135842Y-103770999D01*
X71958358Y-103770999D01*
X71933588Y-103766072D01*
X71784288Y-103736375D01*
X71620316Y-103668455D01*
X71472746Y-103569852D01*
X71347247Y-103444353D01*
X71248644Y-103296783D01*
X71180724Y-103132811D01*
X71146100Y-102958740D01*
X71146100Y-102781258D01*
X71180724Y-102607187D01*
X71248644Y-102443215D01*
X71347247Y-102295645D01*
X71472746Y-102170146D01*
X71620316Y-102071543D01*
X71784288Y-102003623D01*
X71933588Y-101973926D01*
X71958358Y-101968999D01*
X72135842Y-101968999D01*
X72160612Y-101973926D01*
G37*
G36*
X72160612Y-99433926D02*
G01*
X72309912Y-99463623D01*
X72473884Y-99531543D01*
X72621454Y-99630146D01*
X72746953Y-99755645D01*
X72845556Y-99903215D01*
X72913476Y-100067187D01*
X72948100Y-100241258D01*
X72948100Y-100418740D01*
X72913476Y-100592811D01*
X72845556Y-100756783D01*
X72746953Y-100904353D01*
X72621454Y-101029852D01*
X72473884Y-101128455D01*
X72309912Y-101196375D01*
X72160612Y-101226072D01*
X72135842Y-101230999D01*
X71958358Y-101230999D01*
X71933588Y-101226072D01*
X71784288Y-101196375D01*
X71620316Y-101128455D01*
X71472746Y-101029852D01*
X71347247Y-100904353D01*
X71248644Y-100756783D01*
X71180724Y-100592811D01*
X71146100Y-100418740D01*
X71146100Y-100241258D01*
X71180724Y-100067187D01*
X71248644Y-99903215D01*
X71347247Y-99755645D01*
X71472746Y-99630146D01*
X71620316Y-99531543D01*
X71784288Y-99463623D01*
X71933588Y-99433926D01*
X71958358Y-99428999D01*
X72135842Y-99428999D01*
X72160612Y-99433926D01*
G37*
G36*
X140875328Y-99384702D02*
G01*
X141030200Y-99448852D01*
X141169581Y-99541984D01*
X141288115Y-99660518D01*
X141381247Y-99799899D01*
X141445397Y-99954771D01*
X141478100Y-100119183D01*
X141478100Y-100286815D01*
X141445397Y-100451227D01*
X141381247Y-100606099D01*
X141288115Y-100745480D01*
X141169581Y-100864014D01*
X141030200Y-100957146D01*
X140875328Y-101021296D01*
X140710916Y-101053999D01*
X140543284Y-101053999D01*
X140378872Y-101021296D01*
X140224000Y-100957146D01*
X140084619Y-100864014D01*
X139966085Y-100745480D01*
X139872953Y-100606099D01*
X139808803Y-100451227D01*
X139776100Y-100286815D01*
X139776100Y-100119183D01*
X139808803Y-99954771D01*
X139872953Y-99799899D01*
X139966085Y-99660518D01*
X140084619Y-99541984D01*
X140224000Y-99448852D01*
X140378872Y-99384702D01*
X140543284Y-99351999D01*
X140710916Y-99351999D01*
X140875328Y-99384702D01*
G37*
G36*
X133858100Y-101053999D02*
G01*
X132156100Y-101053999D01*
X132156100Y-99351999D01*
X133858100Y-99351999D01*
X133858100Y-101053999D01*
G37*
G36*
X117380328Y-97606702D02*
G01*
X117535200Y-97670852D01*
X117674581Y-97763984D01*
X117793115Y-97882518D01*
X117886247Y-98021899D01*
X117950397Y-98176771D01*
X117983100Y-98341183D01*
X117983100Y-98508815D01*
X117950397Y-98673227D01*
X117886247Y-98828099D01*
X117793115Y-98967480D01*
X117674581Y-99086014D01*
X117535200Y-99179146D01*
X117380328Y-99243296D01*
X117215916Y-99275999D01*
X117048284Y-99275999D01*
X116883872Y-99243296D01*
X116729000Y-99179146D01*
X116589619Y-99086014D01*
X116471085Y-98967480D01*
X116377953Y-98828099D01*
X116313803Y-98673227D01*
X116281100Y-98508815D01*
X116281100Y-98341183D01*
X116313803Y-98176771D01*
X116377953Y-98021899D01*
X116471085Y-97882518D01*
X116589619Y-97763984D01*
X116729000Y-97670852D01*
X116883872Y-97606702D01*
X117048284Y-97573999D01*
X117215916Y-97573999D01*
X117380328Y-97606702D01*
G37*
G36*
X119920328Y-97606702D02*
G01*
X120075200Y-97670852D01*
X120214581Y-97763984D01*
X120333115Y-97882518D01*
X120426247Y-98021899D01*
X120490397Y-98176771D01*
X120523100Y-98341183D01*
X120523100Y-98508815D01*
X120490397Y-98673227D01*
X120426247Y-98828099D01*
X120333115Y-98967480D01*
X120214581Y-99086014D01*
X120075200Y-99179146D01*
X119920328Y-99243296D01*
X119755916Y-99275999D01*
X119588284Y-99275999D01*
X119423872Y-99243296D01*
X119269000Y-99179146D01*
X119129619Y-99086014D01*
X119011085Y-98967480D01*
X118917953Y-98828099D01*
X118853803Y-98673227D01*
X118821100Y-98508815D01*
X118821100Y-98341183D01*
X118853803Y-98176771D01*
X118917953Y-98021899D01*
X119011085Y-97882518D01*
X119129619Y-97763984D01*
X119269000Y-97670852D01*
X119423872Y-97606702D01*
X119588284Y-97573999D01*
X119755916Y-97573999D01*
X119920328Y-97606702D01*
G37*
G36*
X122460328Y-97606702D02*
G01*
X122615200Y-97670852D01*
X122754581Y-97763984D01*
X122873115Y-97882518D01*
X122966247Y-98021899D01*
X123030397Y-98176771D01*
X123063100Y-98341183D01*
X123063100Y-98508815D01*
X123030397Y-98673227D01*
X122966247Y-98828099D01*
X122873115Y-98967480D01*
X122754581Y-99086014D01*
X122615200Y-99179146D01*
X122460328Y-99243296D01*
X122295916Y-99275999D01*
X122128284Y-99275999D01*
X121963872Y-99243296D01*
X121809000Y-99179146D01*
X121669619Y-99086014D01*
X121551085Y-98967480D01*
X121457953Y-98828099D01*
X121393803Y-98673227D01*
X121361100Y-98508815D01*
X121361100Y-98341183D01*
X121393803Y-98176771D01*
X121457953Y-98021899D01*
X121551085Y-97882518D01*
X121669619Y-97763984D01*
X121809000Y-97670852D01*
X121963872Y-97606702D01*
X122128284Y-97573999D01*
X122295916Y-97573999D01*
X122460328Y-97606702D01*
G37*
G36*
X112300328Y-97606702D02*
G01*
X112455200Y-97670852D01*
X112594581Y-97763984D01*
X112713115Y-97882518D01*
X112806247Y-98021899D01*
X112870397Y-98176771D01*
X112903100Y-98341183D01*
X112903100Y-98508815D01*
X112870397Y-98673227D01*
X112806247Y-98828099D01*
X112713115Y-98967480D01*
X112594581Y-99086014D01*
X112455200Y-99179146D01*
X112300328Y-99243296D01*
X112135916Y-99275999D01*
X111968284Y-99275999D01*
X111803872Y-99243296D01*
X111649000Y-99179146D01*
X111509619Y-99086014D01*
X111391085Y-98967480D01*
X111297953Y-98828099D01*
X111233803Y-98673227D01*
X111201100Y-98508815D01*
X111201100Y-98341183D01*
X111233803Y-98176771D01*
X111297953Y-98021899D01*
X111391085Y-97882518D01*
X111509619Y-97763984D01*
X111649000Y-97670852D01*
X111803872Y-97606702D01*
X111968284Y-97573999D01*
X112135916Y-97573999D01*
X112300328Y-97606702D01*
G37*
G36*
X102140328Y-97606702D02*
G01*
X102295200Y-97670852D01*
X102434581Y-97763984D01*
X102553115Y-97882518D01*
X102646247Y-98021899D01*
X102710397Y-98176771D01*
X102743100Y-98341183D01*
X102743100Y-98508815D01*
X102710397Y-98673227D01*
X102646247Y-98828099D01*
X102553115Y-98967480D01*
X102434581Y-99086014D01*
X102295200Y-99179146D01*
X102140328Y-99243296D01*
X101975916Y-99275999D01*
X101808284Y-99275999D01*
X101643872Y-99243296D01*
X101489000Y-99179146D01*
X101349619Y-99086014D01*
X101231085Y-98967480D01*
X101137953Y-98828099D01*
X101073803Y-98673227D01*
X101041100Y-98508815D01*
X101041100Y-98341183D01*
X101073803Y-98176771D01*
X101137953Y-98021899D01*
X101231085Y-97882518D01*
X101349619Y-97763984D01*
X101489000Y-97670852D01*
X101643872Y-97606702D01*
X101808284Y-97573999D01*
X101975916Y-97573999D01*
X102140328Y-97606702D01*
G37*
G36*
X99600328Y-97606702D02*
G01*
X99755200Y-97670852D01*
X99894581Y-97763984D01*
X100013115Y-97882518D01*
X100106247Y-98021899D01*
X100170397Y-98176771D01*
X100203100Y-98341183D01*
X100203100Y-98508815D01*
X100170397Y-98673227D01*
X100106247Y-98828099D01*
X100013115Y-98967480D01*
X99894581Y-99086014D01*
X99755200Y-99179146D01*
X99600328Y-99243296D01*
X99435916Y-99275999D01*
X99268284Y-99275999D01*
X99103872Y-99243296D01*
X98949000Y-99179146D01*
X98809619Y-99086014D01*
X98691085Y-98967480D01*
X98597953Y-98828099D01*
X98533803Y-98673227D01*
X98501100Y-98508815D01*
X98501100Y-98341183D01*
X98533803Y-98176771D01*
X98597953Y-98021899D01*
X98691085Y-97882518D01*
X98809619Y-97763984D01*
X98949000Y-97670852D01*
X99103872Y-97606702D01*
X99268284Y-97573999D01*
X99435916Y-97573999D01*
X99600328Y-97606702D01*
G37*
G36*
X97060328Y-97606702D02*
G01*
X97215200Y-97670852D01*
X97354581Y-97763984D01*
X97473115Y-97882518D01*
X97566247Y-98021899D01*
X97630397Y-98176771D01*
X97663100Y-98341183D01*
X97663100Y-98508815D01*
X97630397Y-98673227D01*
X97566247Y-98828099D01*
X97473115Y-98967480D01*
X97354581Y-99086014D01*
X97215200Y-99179146D01*
X97060328Y-99243296D01*
X96895916Y-99275999D01*
X96728284Y-99275999D01*
X96563872Y-99243296D01*
X96409000Y-99179146D01*
X96269619Y-99086014D01*
X96151085Y-98967480D01*
X96057953Y-98828099D01*
X95993803Y-98673227D01*
X95961100Y-98508815D01*
X95961100Y-98341183D01*
X95993803Y-98176771D01*
X96057953Y-98021899D01*
X96151085Y-97882518D01*
X96269619Y-97763984D01*
X96409000Y-97670852D01*
X96563872Y-97606702D01*
X96728284Y-97573999D01*
X96895916Y-97573999D01*
X97060328Y-97606702D01*
G37*
G36*
X91980328Y-97606702D02*
G01*
X92135200Y-97670852D01*
X92274581Y-97763984D01*
X92393115Y-97882518D01*
X92486247Y-98021899D01*
X92550397Y-98176771D01*
X92583100Y-98341183D01*
X92583100Y-98508815D01*
X92550397Y-98673227D01*
X92486247Y-98828099D01*
X92393115Y-98967480D01*
X92274581Y-99086014D01*
X92135200Y-99179146D01*
X91980328Y-99243296D01*
X91815916Y-99275999D01*
X91648284Y-99275999D01*
X91483872Y-99243296D01*
X91329000Y-99179146D01*
X91189619Y-99086014D01*
X91071085Y-98967480D01*
X90977953Y-98828099D01*
X90913803Y-98673227D01*
X90881100Y-98508815D01*
X90881100Y-98341183D01*
X90913803Y-98176771D01*
X90977953Y-98021899D01*
X91071085Y-97882518D01*
X91189619Y-97763984D01*
X91329000Y-97670852D01*
X91483872Y-97606702D01*
X91648284Y-97573999D01*
X91815916Y-97573999D01*
X91980328Y-97606702D01*
G37*
G36*
X104680328Y-97606702D02*
G01*
X104835200Y-97670852D01*
X104974581Y-97763984D01*
X105093115Y-97882518D01*
X105186247Y-98021899D01*
X105250397Y-98176771D01*
X105283100Y-98341183D01*
X105283100Y-98508815D01*
X105250397Y-98673227D01*
X105186247Y-98828099D01*
X105093115Y-98967480D01*
X104974581Y-99086014D01*
X104835200Y-99179146D01*
X104680328Y-99243296D01*
X104515916Y-99275999D01*
X104348284Y-99275999D01*
X104183872Y-99243296D01*
X104029000Y-99179146D01*
X103889619Y-99086014D01*
X103771085Y-98967480D01*
X103677953Y-98828099D01*
X103613803Y-98673227D01*
X103581100Y-98508815D01*
X103581100Y-98341183D01*
X103613803Y-98176771D01*
X103677953Y-98021899D01*
X103771085Y-97882518D01*
X103889619Y-97763984D01*
X104029000Y-97670852D01*
X104183872Y-97606702D01*
X104348284Y-97573999D01*
X104515916Y-97573999D01*
X104680328Y-97606702D01*
G37*
G36*
X125000328Y-97606702D02*
G01*
X125155200Y-97670852D01*
X125294581Y-97763984D01*
X125413115Y-97882518D01*
X125506247Y-98021899D01*
X125570397Y-98176771D01*
X125603100Y-98341183D01*
X125603100Y-98508815D01*
X125570397Y-98673227D01*
X125506247Y-98828099D01*
X125413115Y-98967480D01*
X125294581Y-99086014D01*
X125155200Y-99179146D01*
X125000328Y-99243296D01*
X124835916Y-99275999D01*
X124668284Y-99275999D01*
X124503872Y-99243296D01*
X124349000Y-99179146D01*
X124209619Y-99086014D01*
X124091085Y-98967480D01*
X123997953Y-98828099D01*
X123933803Y-98673227D01*
X123901100Y-98508815D01*
X123901100Y-98341183D01*
X123933803Y-98176771D01*
X123997953Y-98021899D01*
X124091085Y-97882518D01*
X124209619Y-97763984D01*
X124349000Y-97670852D01*
X124503872Y-97606702D01*
X124668284Y-97573999D01*
X124835916Y-97573999D01*
X125000328Y-97606702D01*
G37*
G36*
X114840328Y-97606702D02*
G01*
X114995200Y-97670852D01*
X115134581Y-97763984D01*
X115253115Y-97882518D01*
X115346247Y-98021899D01*
X115410397Y-98176771D01*
X115443100Y-98341183D01*
X115443100Y-98508815D01*
X115410397Y-98673227D01*
X115346247Y-98828099D01*
X115253115Y-98967480D01*
X115134581Y-99086014D01*
X114995200Y-99179146D01*
X114840328Y-99243296D01*
X114675916Y-99275999D01*
X114508284Y-99275999D01*
X114343872Y-99243296D01*
X114189000Y-99179146D01*
X114049619Y-99086014D01*
X113931085Y-98967480D01*
X113837953Y-98828099D01*
X113773803Y-98673227D01*
X113741100Y-98508815D01*
X113741100Y-98341183D01*
X113773803Y-98176771D01*
X113837953Y-98021899D01*
X113931085Y-97882518D01*
X114049619Y-97763984D01*
X114189000Y-97670852D01*
X114343872Y-97606702D01*
X114508284Y-97573999D01*
X114675916Y-97573999D01*
X114840328Y-97606702D01*
G37*
G36*
X109760328Y-97606702D02*
G01*
X109915200Y-97670852D01*
X110054581Y-97763984D01*
X110173115Y-97882518D01*
X110266247Y-98021899D01*
X110330397Y-98176771D01*
X110363100Y-98341183D01*
X110363100Y-98508815D01*
X110330397Y-98673227D01*
X110266247Y-98828099D01*
X110173115Y-98967480D01*
X110054581Y-99086014D01*
X109915200Y-99179146D01*
X109760328Y-99243296D01*
X109595916Y-99275999D01*
X109428284Y-99275999D01*
X109263872Y-99243296D01*
X109109000Y-99179146D01*
X108969619Y-99086014D01*
X108851085Y-98967480D01*
X108757953Y-98828099D01*
X108693803Y-98673227D01*
X108661100Y-98508815D01*
X108661100Y-98341183D01*
X108693803Y-98176771D01*
X108757953Y-98021899D01*
X108851085Y-97882518D01*
X108969619Y-97763984D01*
X109109000Y-97670852D01*
X109263872Y-97606702D01*
X109428284Y-97573999D01*
X109595916Y-97573999D01*
X109760328Y-97606702D01*
G37*
G36*
X128143100Y-99275999D02*
G01*
X126441100Y-99275999D01*
X126441100Y-97573999D01*
X128143100Y-97573999D01*
X128143100Y-99275999D01*
G37*
G36*
X107220328Y-97606702D02*
G01*
X107375200Y-97670852D01*
X107514581Y-97763984D01*
X107633115Y-97882518D01*
X107726247Y-98021899D01*
X107790397Y-98176771D01*
X107823100Y-98341183D01*
X107823100Y-98508815D01*
X107790397Y-98673227D01*
X107726247Y-98828099D01*
X107633115Y-98967480D01*
X107514581Y-99086014D01*
X107375200Y-99179146D01*
X107220328Y-99243296D01*
X107055916Y-99275999D01*
X106888284Y-99275999D01*
X106723872Y-99243296D01*
X106569000Y-99179146D01*
X106429619Y-99086014D01*
X106311085Y-98967480D01*
X106217953Y-98828099D01*
X106153803Y-98673227D01*
X106121100Y-98508815D01*
X106121100Y-98341183D01*
X106153803Y-98176771D01*
X106217953Y-98021899D01*
X106311085Y-97882518D01*
X106429619Y-97763984D01*
X106569000Y-97670852D01*
X106723872Y-97606702D01*
X106888284Y-97573999D01*
X107055916Y-97573999D01*
X107220328Y-97606702D01*
G37*
G36*
X94520328Y-97606702D02*
G01*
X94675200Y-97670852D01*
X94814581Y-97763984D01*
X94933115Y-97882518D01*
X95026247Y-98021899D01*
X95090397Y-98176771D01*
X95123100Y-98341183D01*
X95123100Y-98508815D01*
X95090397Y-98673227D01*
X95026247Y-98828099D01*
X94933115Y-98967480D01*
X94814581Y-99086014D01*
X94675200Y-99179146D01*
X94520328Y-99243296D01*
X94355916Y-99275999D01*
X94188284Y-99275999D01*
X94023872Y-99243296D01*
X93869000Y-99179146D01*
X93729619Y-99086014D01*
X93611085Y-98967480D01*
X93517953Y-98828099D01*
X93453803Y-98673227D01*
X93421100Y-98508815D01*
X93421100Y-98341183D01*
X93453803Y-98176771D01*
X93517953Y-98021899D01*
X93611085Y-97882518D01*
X93729619Y-97763984D01*
X93869000Y-97670852D01*
X94023872Y-97606702D01*
X94188284Y-97573999D01*
X94355916Y-97573999D01*
X94520328Y-97606702D01*
G37*
G36*
X148360612Y-94988926D02*
G01*
X148509912Y-95018623D01*
X148673884Y-95086543D01*
X148821454Y-95185146D01*
X148946953Y-95310645D01*
X149045556Y-95458215D01*
X149113476Y-95622187D01*
X149148100Y-95796258D01*
X149148100Y-95973740D01*
X149113476Y-96147811D01*
X149045556Y-96311783D01*
X148946953Y-96459353D01*
X148821454Y-96584852D01*
X148673884Y-96683455D01*
X148509912Y-96751375D01*
X148360612Y-96781072D01*
X148335842Y-96785999D01*
X148158358Y-96785999D01*
X148133588Y-96781072D01*
X147984288Y-96751375D01*
X147820316Y-96683455D01*
X147672746Y-96584852D01*
X147547247Y-96459353D01*
X147448644Y-96311783D01*
X147380724Y-96147811D01*
X147346100Y-95973740D01*
X147346100Y-95796258D01*
X147380724Y-95622187D01*
X147448644Y-95458215D01*
X147547247Y-95310645D01*
X147672746Y-95185146D01*
X147820316Y-95086543D01*
X147984288Y-95018623D01*
X148133588Y-94988926D01*
X148158358Y-94983999D01*
X148335842Y-94983999D01*
X148360612Y-94988926D01*
G37*
G36*
X149148100Y-94245999D02*
G01*
X147346100Y-94245999D01*
X147346100Y-92443999D01*
X149148100Y-92443999D01*
X149148100Y-94245999D01*
G37*
G36*
X112446172Y-90695917D02*
G01*
X112692039Y-90797758D01*
X112913312Y-90945609D01*
X113101490Y-91133787D01*
X113249341Y-91355060D01*
X113351182Y-91600927D01*
X113403100Y-91861937D01*
X113403100Y-92128061D01*
X113351182Y-92389071D01*
X113249341Y-92634938D01*
X113101490Y-92856211D01*
X112913312Y-93044389D01*
X112692039Y-93192240D01*
X112692038Y-93192241D01*
X112692037Y-93192241D01*
X112446172Y-93294081D01*
X112185163Y-93345999D01*
X111919037Y-93345999D01*
X111658028Y-93294081D01*
X111412163Y-93192241D01*
X111412162Y-93192241D01*
X111412161Y-93192240D01*
X111190888Y-93044389D01*
X111002710Y-92856211D01*
X110854859Y-92634938D01*
X110753018Y-92389071D01*
X110701100Y-92128061D01*
X110701100Y-91861937D01*
X110753018Y-91600927D01*
X110854859Y-91355060D01*
X111002710Y-91133787D01*
X111190888Y-90945609D01*
X111412161Y-90797758D01*
X111658028Y-90695917D01*
X111919037Y-90643999D01*
X112185163Y-90643999D01*
X112446172Y-90695917D01*
G37*
G36*
X121593100Y-92090999D02*
G01*
X120291100Y-92090999D01*
X120291100Y-90788999D01*
X121593100Y-90788999D01*
X121593100Y-92090999D01*
G37*
G36*
X121131990Y-88814016D02*
G01*
X121250464Y-88863090D01*
X121357088Y-88934334D01*
X121447765Y-89025011D01*
X121519009Y-89131635D01*
X121568083Y-89250109D01*
X121593100Y-89375881D01*
X121593100Y-89504117D01*
X121568083Y-89629889D01*
X121519009Y-89748363D01*
X121447765Y-89854987D01*
X121357088Y-89945664D01*
X121250464Y-90016908D01*
X121250463Y-90016909D01*
X121250462Y-90016909D01*
X121131990Y-90065982D01*
X121006219Y-90090999D01*
X120877981Y-90090999D01*
X120752210Y-90065982D01*
X120633738Y-90016909D01*
X120633737Y-90016909D01*
X120633736Y-90016908D01*
X120527112Y-89945664D01*
X120436435Y-89854987D01*
X120365191Y-89748363D01*
X120316117Y-89629889D01*
X120291100Y-89504117D01*
X120291100Y-89375881D01*
X120316117Y-89250109D01*
X120365191Y-89131635D01*
X120436435Y-89025011D01*
X120527112Y-88934334D01*
X120633736Y-88863090D01*
X120752210Y-88814016D01*
X120877981Y-88788999D01*
X121006219Y-88788999D01*
X121131990Y-88814016D01*
G37*
G36*
X112446172Y-85695917D02*
G01*
X112692039Y-85797758D01*
X112913312Y-85945609D01*
X113101490Y-86133787D01*
X113249341Y-86355060D01*
X113351182Y-86600927D01*
X113403100Y-86861937D01*
X113403100Y-87128061D01*
X113351182Y-87389071D01*
X113249341Y-87634938D01*
X113101490Y-87856211D01*
X112913312Y-88044389D01*
X112692039Y-88192240D01*
X112692038Y-88192241D01*
X112692037Y-88192241D01*
X112446172Y-88294081D01*
X112185163Y-88345999D01*
X111919037Y-88345999D01*
X111658028Y-88294081D01*
X111412163Y-88192241D01*
X111412162Y-88192241D01*
X111412161Y-88192240D01*
X111190888Y-88044389D01*
X111002710Y-87856211D01*
X110854859Y-87634938D01*
X110753018Y-87389071D01*
X110701100Y-87128061D01*
X110701100Y-86861937D01*
X110753018Y-86600927D01*
X110854859Y-86355060D01*
X111002710Y-86133787D01*
X111190888Y-85945609D01*
X111412161Y-85797758D01*
X111658028Y-85695917D01*
X111919037Y-85643999D01*
X112185163Y-85643999D01*
X112446172Y-85695917D01*
G37*
G36*
X130733100Y-84085999D02*
G01*
X128931100Y-84085999D01*
X128931100Y-82283999D01*
X130733100Y-82283999D01*
X130733100Y-84085999D01*
G37*
G36*
X127405612Y-82288926D02*
G01*
X127554912Y-82318623D01*
X127718884Y-82386543D01*
X127866454Y-82485146D01*
X127991953Y-82610645D01*
X128090556Y-82758215D01*
X128158476Y-82922187D01*
X128193100Y-83096258D01*
X128193100Y-83273740D01*
X128158476Y-83447811D01*
X128090556Y-83611783D01*
X127991953Y-83759353D01*
X127866454Y-83884852D01*
X127718884Y-83983455D01*
X127554912Y-84051375D01*
X127405612Y-84081072D01*
X127380842Y-84085999D01*
X127203358Y-84085999D01*
X127178588Y-84081072D01*
X127029288Y-84051375D01*
X126865316Y-83983455D01*
X126717746Y-83884852D01*
X126592247Y-83759353D01*
X126493644Y-83611783D01*
X126425724Y-83447811D01*
X126391100Y-83273740D01*
X126391100Y-83096258D01*
X126425724Y-82922187D01*
X126493644Y-82758215D01*
X126592247Y-82610645D01*
X126717746Y-82485146D01*
X126865316Y-82386543D01*
X127029288Y-82318623D01*
X127178588Y-82288926D01*
X127203358Y-82283999D01*
X127380842Y-82283999D01*
X127405612Y-82288926D01*
G37*
G36*
X142163100Y-84085999D02*
G01*
X140361100Y-84085999D01*
X140361100Y-82283999D01*
X142163100Y-82283999D01*
X142163100Y-84085999D01*
G37*
G36*
X102005612Y-82288926D02*
G01*
X102154912Y-82318623D01*
X102318884Y-82386543D01*
X102466454Y-82485146D01*
X102591953Y-82610645D01*
X102690556Y-82758215D01*
X102758476Y-82922187D01*
X102793100Y-83096258D01*
X102793100Y-83273740D01*
X102758476Y-83447811D01*
X102690556Y-83611783D01*
X102591953Y-83759353D01*
X102466454Y-83884852D01*
X102318884Y-83983455D01*
X102154912Y-84051375D01*
X102005612Y-84081072D01*
X101980842Y-84085999D01*
X101803358Y-84085999D01*
X101778588Y-84081072D01*
X101629288Y-84051375D01*
X101465316Y-83983455D01*
X101317746Y-83884852D01*
X101192247Y-83759353D01*
X101093644Y-83611783D01*
X101025724Y-83447811D01*
X100991100Y-83273740D01*
X100991100Y-83096258D01*
X101025724Y-82922187D01*
X101093644Y-82758215D01*
X101192247Y-82610645D01*
X101317746Y-82485146D01*
X101465316Y-82386543D01*
X101629288Y-82318623D01*
X101778588Y-82288926D01*
X101803358Y-82283999D01*
X101980842Y-82283999D01*
X102005612Y-82288926D01*
G37*
G36*
X99465612Y-82288926D02*
G01*
X99614912Y-82318623D01*
X99778884Y-82386543D01*
X99926454Y-82485146D01*
X100051953Y-82610645D01*
X100150556Y-82758215D01*
X100218476Y-82922187D01*
X100253100Y-83096258D01*
X100253100Y-83273740D01*
X100218476Y-83447811D01*
X100150556Y-83611783D01*
X100051953Y-83759353D01*
X99926454Y-83884852D01*
X99778884Y-83983455D01*
X99614912Y-84051375D01*
X99465612Y-84081072D01*
X99440842Y-84085999D01*
X99263358Y-84085999D01*
X99238588Y-84081072D01*
X99089288Y-84051375D01*
X98925316Y-83983455D01*
X98777746Y-83884852D01*
X98652247Y-83759353D01*
X98553644Y-83611783D01*
X98485724Y-83447811D01*
X98451100Y-83273740D01*
X98451100Y-83096258D01*
X98485724Y-82922187D01*
X98553644Y-82758215D01*
X98652247Y-82610645D01*
X98777746Y-82485146D01*
X98925316Y-82386543D01*
X99089288Y-82318623D01*
X99238588Y-82288926D01*
X99263358Y-82283999D01*
X99440842Y-82283999D01*
X99465612Y-82288926D01*
G37*
G36*
X96925612Y-82288926D02*
G01*
X97074912Y-82318623D01*
X97238884Y-82386543D01*
X97386454Y-82485146D01*
X97511953Y-82610645D01*
X97610556Y-82758215D01*
X97678476Y-82922187D01*
X97713100Y-83096258D01*
X97713100Y-83273740D01*
X97678476Y-83447811D01*
X97610556Y-83611783D01*
X97511953Y-83759353D01*
X97386454Y-83884852D01*
X97238884Y-83983455D01*
X97074912Y-84051375D01*
X96925612Y-84081072D01*
X96900842Y-84085999D01*
X96723358Y-84085999D01*
X96698588Y-84081072D01*
X96549288Y-84051375D01*
X96385316Y-83983455D01*
X96237746Y-83884852D01*
X96112247Y-83759353D01*
X96013644Y-83611783D01*
X95945724Y-83447811D01*
X95911100Y-83273740D01*
X95911100Y-83096258D01*
X95945724Y-82922187D01*
X96013644Y-82758215D01*
X96112247Y-82610645D01*
X96237746Y-82485146D01*
X96385316Y-82386543D01*
X96549288Y-82318623D01*
X96698588Y-82288926D01*
X96723358Y-82283999D01*
X96900842Y-82283999D01*
X96925612Y-82288926D01*
G37*
G36*
X94385612Y-82288926D02*
G01*
X94534912Y-82318623D01*
X94698884Y-82386543D01*
X94846454Y-82485146D01*
X94971953Y-82610645D01*
X95070556Y-82758215D01*
X95138476Y-82922187D01*
X95173100Y-83096258D01*
X95173100Y-83273740D01*
X95138476Y-83447811D01*
X95070556Y-83611783D01*
X94971953Y-83759353D01*
X94846454Y-83884852D01*
X94698884Y-83983455D01*
X94534912Y-84051375D01*
X94385612Y-84081072D01*
X94360842Y-84085999D01*
X94183358Y-84085999D01*
X94158588Y-84081072D01*
X94009288Y-84051375D01*
X93845316Y-83983455D01*
X93697746Y-83884852D01*
X93572247Y-83759353D01*
X93473644Y-83611783D01*
X93405724Y-83447811D01*
X93371100Y-83273740D01*
X93371100Y-83096258D01*
X93405724Y-82922187D01*
X93473644Y-82758215D01*
X93572247Y-82610645D01*
X93697746Y-82485146D01*
X93845316Y-82386543D01*
X94009288Y-82318623D01*
X94158588Y-82288926D01*
X94183358Y-82283999D01*
X94360842Y-82283999D01*
X94385612Y-82288926D01*
G37*
G36*
X91845612Y-82288926D02*
G01*
X91994912Y-82318623D01*
X92158884Y-82386543D01*
X92306454Y-82485146D01*
X92431953Y-82610645D01*
X92530556Y-82758215D01*
X92598476Y-82922187D01*
X92633100Y-83096258D01*
X92633100Y-83273740D01*
X92598476Y-83447811D01*
X92530556Y-83611783D01*
X92431953Y-83759353D01*
X92306454Y-83884852D01*
X92158884Y-83983455D01*
X91994912Y-84051375D01*
X91845612Y-84081072D01*
X91820842Y-84085999D01*
X91643358Y-84085999D01*
X91618588Y-84081072D01*
X91469288Y-84051375D01*
X91305316Y-83983455D01*
X91157746Y-83884852D01*
X91032247Y-83759353D01*
X90933644Y-83611783D01*
X90865724Y-83447811D01*
X90831100Y-83273740D01*
X90831100Y-83096258D01*
X90865724Y-82922187D01*
X90933644Y-82758215D01*
X91032247Y-82610645D01*
X91157746Y-82485146D01*
X91305316Y-82386543D01*
X91469288Y-82318623D01*
X91618588Y-82288926D01*
X91643358Y-82283999D01*
X91820842Y-82283999D01*
X91845612Y-82288926D01*
G37*
G36*
X89305612Y-82288926D02*
G01*
X89454912Y-82318623D01*
X89618884Y-82386543D01*
X89766454Y-82485146D01*
X89891953Y-82610645D01*
X89990556Y-82758215D01*
X90058476Y-82922187D01*
X90093100Y-83096258D01*
X90093100Y-83273740D01*
X90058476Y-83447811D01*
X89990556Y-83611783D01*
X89891953Y-83759353D01*
X89766454Y-83884852D01*
X89618884Y-83983455D01*
X89454912Y-84051375D01*
X89305612Y-84081072D01*
X89280842Y-84085999D01*
X89103358Y-84085999D01*
X89078588Y-84081072D01*
X88929288Y-84051375D01*
X88765316Y-83983455D01*
X88617746Y-83884852D01*
X88492247Y-83759353D01*
X88393644Y-83611783D01*
X88325724Y-83447811D01*
X88291100Y-83273740D01*
X88291100Y-83096258D01*
X88325724Y-82922187D01*
X88393644Y-82758215D01*
X88492247Y-82610645D01*
X88617746Y-82485146D01*
X88765316Y-82386543D01*
X88929288Y-82318623D01*
X89078588Y-82288926D01*
X89103358Y-82283999D01*
X89280842Y-82283999D01*
X89305612Y-82288926D01*
G37*
G36*
X86765612Y-82288926D02*
G01*
X86914912Y-82318623D01*
X87078884Y-82386543D01*
X87226454Y-82485146D01*
X87351953Y-82610645D01*
X87450556Y-82758215D01*
X87518476Y-82922187D01*
X87553100Y-83096258D01*
X87553100Y-83273740D01*
X87518476Y-83447811D01*
X87450556Y-83611783D01*
X87351953Y-83759353D01*
X87226454Y-83884852D01*
X87078884Y-83983455D01*
X86914912Y-84051375D01*
X86765612Y-84081072D01*
X86740842Y-84085999D01*
X86563358Y-84085999D01*
X86538588Y-84081072D01*
X86389288Y-84051375D01*
X86225316Y-83983455D01*
X86077746Y-83884852D01*
X85952247Y-83759353D01*
X85853644Y-83611783D01*
X85785724Y-83447811D01*
X85751100Y-83273740D01*
X85751100Y-83096258D01*
X85785724Y-82922187D01*
X85853644Y-82758215D01*
X85952247Y-82610645D01*
X86077746Y-82485146D01*
X86225316Y-82386543D01*
X86389288Y-82318623D01*
X86538588Y-82288926D01*
X86563358Y-82283999D01*
X86740842Y-82283999D01*
X86765612Y-82288926D01*
G37*
G36*
X84225612Y-82288926D02*
G01*
X84374912Y-82318623D01*
X84538884Y-82386543D01*
X84686454Y-82485146D01*
X84811953Y-82610645D01*
X84910556Y-82758215D01*
X84978476Y-82922187D01*
X85013100Y-83096258D01*
X85013100Y-83273740D01*
X84978476Y-83447811D01*
X84910556Y-83611783D01*
X84811953Y-83759353D01*
X84686454Y-83884852D01*
X84538884Y-83983455D01*
X84374912Y-84051375D01*
X84225612Y-84081072D01*
X84200842Y-84085999D01*
X84023358Y-84085999D01*
X83998588Y-84081072D01*
X83849288Y-84051375D01*
X83685316Y-83983455D01*
X83537746Y-83884852D01*
X83412247Y-83759353D01*
X83313644Y-83611783D01*
X83245724Y-83447811D01*
X83211100Y-83273740D01*
X83211100Y-83096258D01*
X83245724Y-82922187D01*
X83313644Y-82758215D01*
X83412247Y-82610645D01*
X83537746Y-82485146D01*
X83685316Y-82386543D01*
X83849288Y-82318623D01*
X83998588Y-82288926D01*
X84023358Y-82283999D01*
X84200842Y-82283999D01*
X84225612Y-82288926D01*
G37*
G36*
X81685612Y-82288926D02*
G01*
X81834912Y-82318623D01*
X81998884Y-82386543D01*
X82146454Y-82485146D01*
X82271953Y-82610645D01*
X82370556Y-82758215D01*
X82438476Y-82922187D01*
X82473100Y-83096258D01*
X82473100Y-83273740D01*
X82438476Y-83447811D01*
X82370556Y-83611783D01*
X82271953Y-83759353D01*
X82146454Y-83884852D01*
X81998884Y-83983455D01*
X81834912Y-84051375D01*
X81685612Y-84081072D01*
X81660842Y-84085999D01*
X81483358Y-84085999D01*
X81458588Y-84081072D01*
X81309288Y-84051375D01*
X81145316Y-83983455D01*
X80997746Y-83884852D01*
X80872247Y-83759353D01*
X80773644Y-83611783D01*
X80705724Y-83447811D01*
X80671100Y-83273740D01*
X80671100Y-83096258D01*
X80705724Y-82922187D01*
X80773644Y-82758215D01*
X80872247Y-82610645D01*
X80997746Y-82485146D01*
X81145316Y-82386543D01*
X81309288Y-82318623D01*
X81458588Y-82288926D01*
X81483358Y-82283999D01*
X81660842Y-82283999D01*
X81685612Y-82288926D01*
G37*
G36*
X104545612Y-82288926D02*
G01*
X104694912Y-82318623D01*
X104858884Y-82386543D01*
X105006454Y-82485146D01*
X105131953Y-82610645D01*
X105230556Y-82758215D01*
X105298476Y-82922187D01*
X105333100Y-83096258D01*
X105333100Y-83273740D01*
X105298476Y-83447811D01*
X105230556Y-83611783D01*
X105131953Y-83759353D01*
X105006454Y-83884852D01*
X104858884Y-83983455D01*
X104694912Y-84051375D01*
X104545612Y-84081072D01*
X104520842Y-84085999D01*
X104343358Y-84085999D01*
X104318588Y-84081072D01*
X104169288Y-84051375D01*
X104005316Y-83983455D01*
X103857746Y-83884852D01*
X103732247Y-83759353D01*
X103633644Y-83611783D01*
X103565724Y-83447811D01*
X103531100Y-83273740D01*
X103531100Y-83096258D01*
X103565724Y-82922187D01*
X103633644Y-82758215D01*
X103732247Y-82610645D01*
X103857746Y-82485146D01*
X104005316Y-82386543D01*
X104169288Y-82318623D01*
X104318588Y-82288926D01*
X104343358Y-82283999D01*
X104520842Y-82283999D01*
X104545612Y-82288926D01*
G37*
G36*
X76605612Y-82288926D02*
G01*
X76754912Y-82318623D01*
X76918884Y-82386543D01*
X77066454Y-82485146D01*
X77191953Y-82610645D01*
X77290556Y-82758215D01*
X77358476Y-82922187D01*
X77393100Y-83096258D01*
X77393100Y-83273740D01*
X77358476Y-83447811D01*
X77290556Y-83611783D01*
X77191953Y-83759353D01*
X77066454Y-83884852D01*
X76918884Y-83983455D01*
X76754912Y-84051375D01*
X76605612Y-84081072D01*
X76580842Y-84085999D01*
X76403358Y-84085999D01*
X76378588Y-84081072D01*
X76229288Y-84051375D01*
X76065316Y-83983455D01*
X75917746Y-83884852D01*
X75792247Y-83759353D01*
X75693644Y-83611783D01*
X75625724Y-83447811D01*
X75591100Y-83273740D01*
X75591100Y-83096258D01*
X75625724Y-82922187D01*
X75693644Y-82758215D01*
X75792247Y-82610645D01*
X75917746Y-82485146D01*
X76065316Y-82386543D01*
X76229288Y-82318623D01*
X76378588Y-82288926D01*
X76403358Y-82283999D01*
X76580842Y-82283999D01*
X76605612Y-82288926D01*
G37*
G36*
X107085612Y-82288926D02*
G01*
X107234912Y-82318623D01*
X107398884Y-82386543D01*
X107546454Y-82485146D01*
X107671953Y-82610645D01*
X107770556Y-82758215D01*
X107838476Y-82922187D01*
X107873100Y-83096258D01*
X107873100Y-83273740D01*
X107838476Y-83447811D01*
X107770556Y-83611783D01*
X107671953Y-83759353D01*
X107546454Y-83884852D01*
X107398884Y-83983455D01*
X107234912Y-84051375D01*
X107085612Y-84081072D01*
X107060842Y-84085999D01*
X106883358Y-84085999D01*
X106858588Y-84081072D01*
X106709288Y-84051375D01*
X106545316Y-83983455D01*
X106397746Y-83884852D01*
X106272247Y-83759353D01*
X106173644Y-83611783D01*
X106105724Y-83447811D01*
X106071100Y-83273740D01*
X106071100Y-83096258D01*
X106105724Y-82922187D01*
X106173644Y-82758215D01*
X106272247Y-82610645D01*
X106397746Y-82485146D01*
X106545316Y-82386543D01*
X106709288Y-82318623D01*
X106858588Y-82288926D01*
X106883358Y-82283999D01*
X107060842Y-82283999D01*
X107085612Y-82288926D01*
G37*
G36*
X109625612Y-82288926D02*
G01*
X109774912Y-82318623D01*
X109938884Y-82386543D01*
X110086454Y-82485146D01*
X110211953Y-82610645D01*
X110310556Y-82758215D01*
X110378476Y-82922187D01*
X110413100Y-83096258D01*
X110413100Y-83273740D01*
X110378476Y-83447811D01*
X110310556Y-83611783D01*
X110211953Y-83759353D01*
X110086454Y-83884852D01*
X109938884Y-83983455D01*
X109774912Y-84051375D01*
X109625612Y-84081072D01*
X109600842Y-84085999D01*
X109423358Y-84085999D01*
X109398588Y-84081072D01*
X109249288Y-84051375D01*
X109085316Y-83983455D01*
X108937746Y-83884852D01*
X108812247Y-83759353D01*
X108713644Y-83611783D01*
X108645724Y-83447811D01*
X108611100Y-83273740D01*
X108611100Y-83096258D01*
X108645724Y-82922187D01*
X108713644Y-82758215D01*
X108812247Y-82610645D01*
X108937746Y-82485146D01*
X109085316Y-82386543D01*
X109249288Y-82318623D01*
X109398588Y-82288926D01*
X109423358Y-82283999D01*
X109600842Y-82283999D01*
X109625612Y-82288926D01*
G37*
G36*
X112165612Y-82288926D02*
G01*
X112314912Y-82318623D01*
X112478884Y-82386543D01*
X112626454Y-82485146D01*
X112751953Y-82610645D01*
X112850556Y-82758215D01*
X112918476Y-82922187D01*
X112953100Y-83096258D01*
X112953100Y-83273740D01*
X112918476Y-83447811D01*
X112850556Y-83611783D01*
X112751953Y-83759353D01*
X112626454Y-83884852D01*
X112478884Y-83983455D01*
X112314912Y-84051375D01*
X112165612Y-84081072D01*
X112140842Y-84085999D01*
X111963358Y-84085999D01*
X111938588Y-84081072D01*
X111789288Y-84051375D01*
X111625316Y-83983455D01*
X111477746Y-83884852D01*
X111352247Y-83759353D01*
X111253644Y-83611783D01*
X111185724Y-83447811D01*
X111151100Y-83273740D01*
X111151100Y-83096258D01*
X111185724Y-82922187D01*
X111253644Y-82758215D01*
X111352247Y-82610645D01*
X111477746Y-82485146D01*
X111625316Y-82386543D01*
X111789288Y-82318623D01*
X111938588Y-82288926D01*
X111963358Y-82283999D01*
X112140842Y-82283999D01*
X112165612Y-82288926D01*
G37*
G36*
X115493100Y-84085999D02*
G01*
X113691100Y-84085999D01*
X113691100Y-82283999D01*
X115493100Y-82283999D01*
X115493100Y-84085999D01*
G37*
G36*
X138835612Y-82288926D02*
G01*
X138984912Y-82318623D01*
X139148884Y-82386543D01*
X139296454Y-82485146D01*
X139421953Y-82610645D01*
X139520556Y-82758215D01*
X139588476Y-82922187D01*
X139623100Y-83096258D01*
X139623100Y-83273740D01*
X139588476Y-83447811D01*
X139520556Y-83611783D01*
X139421953Y-83759353D01*
X139296454Y-83884852D01*
X139148884Y-83983455D01*
X138984912Y-84051375D01*
X138835612Y-84081072D01*
X138810842Y-84085999D01*
X138633358Y-84085999D01*
X138608588Y-84081072D01*
X138459288Y-84051375D01*
X138295316Y-83983455D01*
X138147746Y-83884852D01*
X138022247Y-83759353D01*
X137923644Y-83611783D01*
X137855724Y-83447811D01*
X137821100Y-83273740D01*
X137821100Y-83096258D01*
X137855724Y-82922187D01*
X137923644Y-82758215D01*
X138022247Y-82610645D01*
X138147746Y-82485146D01*
X138295316Y-82386543D01*
X138459288Y-82318623D01*
X138608588Y-82288926D01*
X138633358Y-82283999D01*
X138810842Y-82283999D01*
X138835612Y-82288926D01*
G37*
G36*
X79145612Y-82288926D02*
G01*
X79294912Y-82318623D01*
X79458884Y-82386543D01*
X79606454Y-82485146D01*
X79731953Y-82610645D01*
X79830556Y-82758215D01*
X79898476Y-82922187D01*
X79933100Y-83096258D01*
X79933100Y-83273740D01*
X79898476Y-83447811D01*
X79830556Y-83611783D01*
X79731953Y-83759353D01*
X79606454Y-83884852D01*
X79458884Y-83983455D01*
X79294912Y-84051375D01*
X79145612Y-84081072D01*
X79120842Y-84085999D01*
X78943358Y-84085999D01*
X78918588Y-84081072D01*
X78769288Y-84051375D01*
X78605316Y-83983455D01*
X78457746Y-83884852D01*
X78332247Y-83759353D01*
X78233644Y-83611783D01*
X78165724Y-83447811D01*
X78131100Y-83273740D01*
X78131100Y-83096258D01*
X78165724Y-82922187D01*
X78233644Y-82758215D01*
X78332247Y-82610645D01*
X78457746Y-82485146D01*
X78605316Y-82386543D01*
X78769288Y-82318623D01*
X78918588Y-82288926D01*
X78943358Y-82283999D01*
X79120842Y-82283999D01*
X79145612Y-82288926D01*
G37*
M02*
