G04 #@! TF.GenerationSoftware,KiCad,Pcbnew,(5.1.5)-3*
G04 #@! TF.CreationDate,2020-07-14T08:47:50-04:00*
G04 #@! TF.ProjectId,WR9R_Raduino,57523952-5f52-4616-9475-696e6f2e6b69,rev?*
G04 #@! TF.SameCoordinates,Original*
G04 #@! TF.FileFunction,Copper,L2,Bot*
G04 #@! TF.FilePolarity,Positive*
%FSLAX46Y46*%
G04 Gerber Fmt 4.6, Leading zero omitted, Abs format (unit mm)*
G04 Created by KiCad (PCBNEW (5.1.5)-3) date 2020-07-14 08:47:50*
%MOMM*%
%LPD*%
G04 APERTURE LIST*
%ADD10O,1.700000X1.700000*%
%ADD11R,1.700000X1.700000*%
%ADD12O,1.600000X1.600000*%
%ADD13R,1.600000X1.600000*%
%ADD14C,2.600000*%
%ADD15C,1.200000*%
%ADD16R,1.200000X1.200000*%
%ADD17C,0.800000*%
%ADD18C,0.250000*%
%ADD19C,0.254000*%
G04 APERTURE END LIST*
D10*
X148247100Y-95884999D03*
D11*
X148247100Y-93344999D03*
D12*
X140627100Y-100202999D03*
D13*
X133007100Y-100202999D03*
D12*
X91732100Y-113664999D03*
X91732100Y-98424999D03*
X127292100Y-113664999D03*
X94272100Y-98424999D03*
X124752100Y-113664999D03*
X96812100Y-98424999D03*
X122212100Y-113664999D03*
X99352100Y-98424999D03*
X119672100Y-113664999D03*
X101892100Y-98424999D03*
X117132100Y-113664999D03*
X104432100Y-98424999D03*
X114592100Y-113664999D03*
X106972100Y-98424999D03*
X112052100Y-113664999D03*
X109512100Y-98424999D03*
X109512100Y-113664999D03*
X112052100Y-98424999D03*
X106972100Y-113664999D03*
X114592100Y-98424999D03*
X104432100Y-113664999D03*
X117132100Y-98424999D03*
X101892100Y-113664999D03*
X119672100Y-98424999D03*
X99352100Y-113664999D03*
X122212100Y-98424999D03*
X96812100Y-113664999D03*
X124752100Y-98424999D03*
X94272100Y-113664999D03*
D13*
X127292100Y-98424999D03*
D10*
X127292100Y-83184999D03*
D11*
X129832100Y-83184999D03*
D10*
X148247100Y-109854999D03*
X148247100Y-107314999D03*
D11*
X148247100Y-104774999D03*
D10*
X138722100Y-83184999D03*
D11*
X141262100Y-83184999D03*
D10*
X72047100Y-100329999D03*
X72047100Y-102869999D03*
X72047100Y-105409999D03*
D11*
X72047100Y-107949999D03*
D14*
X112052100Y-91994999D03*
X112052100Y-86994999D03*
D10*
X76492100Y-83184999D03*
X79032100Y-83184999D03*
X81572100Y-83184999D03*
X84112100Y-83184999D03*
X86652100Y-83184999D03*
X89192100Y-83184999D03*
X91732100Y-83184999D03*
X94272100Y-83184999D03*
X96812100Y-83184999D03*
X99352100Y-83184999D03*
X101892100Y-83184999D03*
X104432100Y-83184999D03*
X106972100Y-83184999D03*
X109512100Y-83184999D03*
X112052100Y-83184999D03*
D11*
X114592100Y-83184999D03*
D15*
X120942100Y-89439999D03*
D16*
X120942100Y-91439999D03*
D17*
X148755100Y-88010999D03*
X84112100Y-107949999D03*
X136817100Y-93598999D03*
X127165100Y-89788989D03*
X121577100Y-101980999D03*
X109385100Y-107060999D03*
D18*
X84112100Y-107949999D02*
X84112100Y-103504999D01*
X88637100Y-91994999D02*
X112052100Y-91994999D01*
X84112100Y-96519999D02*
X88637100Y-91994999D01*
X84112100Y-103504999D02*
X84112100Y-96519999D01*
X119672100Y-113664999D02*
X119672100Y-100583999D01*
X119672100Y-100583999D02*
X118529100Y-99440999D01*
X120092100Y-91439999D02*
X120942100Y-91439999D01*
X118529100Y-93002999D02*
X120092100Y-91439999D01*
X118529100Y-99440999D02*
X118529100Y-93002999D01*
X136817100Y-93598999D02*
X136817100Y-84962999D01*
X136944100Y-84962999D02*
X138722100Y-83184999D01*
X136817100Y-84962999D02*
X136944100Y-84962999D01*
X127292100Y-89661989D02*
X127165100Y-89788989D01*
X127292100Y-83184999D02*
X127292100Y-89661989D01*
X109385100Y-113537999D02*
X109512100Y-113664999D01*
X109385100Y-107060999D02*
X109385100Y-113537999D01*
X121977099Y-101581000D02*
X121577100Y-101980999D01*
X123337101Y-95452002D02*
X123337101Y-100220998D01*
X128275102Y-92038001D02*
X126751102Y-92038001D01*
X123337101Y-100220998D02*
X121977099Y-101581000D01*
X129832100Y-90481003D02*
X128275102Y-92038001D01*
X126751102Y-92038001D02*
X123337101Y-95452002D01*
X129832100Y-83184999D02*
X129832100Y-90481003D01*
D19*
G36*
X150814100Y-109234686D02*
G01*
X150814099Y-109234696D01*
X150814100Y-116739999D01*
X68972100Y-116739999D01*
X68972100Y-114013371D01*
X69995586Y-114013371D01*
X69995586Y-114485029D01*
X70087602Y-114947625D01*
X70268097Y-115383381D01*
X70530137Y-115775550D01*
X70863650Y-116109063D01*
X71255819Y-116371103D01*
X71691575Y-116551598D01*
X72154171Y-116643614D01*
X72625829Y-116643614D01*
X73088425Y-116551598D01*
X73524181Y-116371103D01*
X73916350Y-116109063D01*
X74249863Y-115775550D01*
X74511903Y-115383381D01*
X74692398Y-114947625D01*
X74784414Y-114485029D01*
X74784414Y-114013371D01*
X74692398Y-113550775D01*
X74511903Y-113115019D01*
X74249863Y-112722850D01*
X73916350Y-112389337D01*
X73524181Y-112127297D01*
X73088425Y-111946802D01*
X72625829Y-111854786D01*
X72154171Y-111854786D01*
X71691575Y-111946802D01*
X71255819Y-112127297D01*
X70863650Y-112389337D01*
X70530137Y-112722850D01*
X70268097Y-113115019D01*
X70087602Y-113550775D01*
X69995586Y-114013371D01*
X68972100Y-114013371D01*
X68972100Y-108799999D01*
X70559028Y-108799999D01*
X70571288Y-108924481D01*
X70607598Y-109044179D01*
X70666563Y-109154493D01*
X70745915Y-109251184D01*
X70842606Y-109330536D01*
X70952920Y-109389501D01*
X71072618Y-109425811D01*
X71197100Y-109438071D01*
X71761350Y-109434999D01*
X71920100Y-109276249D01*
X71920100Y-108076999D01*
X72174100Y-108076999D01*
X72174100Y-109276249D01*
X72332850Y-109434999D01*
X72897100Y-109438071D01*
X73021582Y-109425811D01*
X73141280Y-109389501D01*
X73251594Y-109330536D01*
X73348285Y-109251184D01*
X73427637Y-109154493D01*
X73486602Y-109044179D01*
X73522912Y-108924481D01*
X73535172Y-108799999D01*
X73532100Y-108235749D01*
X73373350Y-108076999D01*
X72174100Y-108076999D01*
X71920100Y-108076999D01*
X70720850Y-108076999D01*
X70562100Y-108235749D01*
X70559028Y-108799999D01*
X68972100Y-108799999D01*
X68972100Y-107848060D01*
X83077100Y-107848060D01*
X83077100Y-108051938D01*
X83116874Y-108251897D01*
X83194895Y-108440255D01*
X83308163Y-108609773D01*
X83452326Y-108753936D01*
X83621844Y-108867204D01*
X83810202Y-108945225D01*
X84010161Y-108984999D01*
X84214039Y-108984999D01*
X84413998Y-108945225D01*
X84602356Y-108867204D01*
X84771874Y-108753936D01*
X84916037Y-108609773D01*
X85029305Y-108440255D01*
X85107326Y-108251897D01*
X85147100Y-108051938D01*
X85147100Y-107848060D01*
X85107326Y-107648101D01*
X85029305Y-107459743D01*
X84916037Y-107290225D01*
X84872100Y-107246288D01*
X84872100Y-98283664D01*
X90297100Y-98283664D01*
X90297100Y-98566334D01*
X90352247Y-98843573D01*
X90460420Y-99104726D01*
X90617463Y-99339758D01*
X90817341Y-99539636D01*
X91052373Y-99696679D01*
X91313526Y-99804852D01*
X91590765Y-99859999D01*
X91873435Y-99859999D01*
X92150674Y-99804852D01*
X92411827Y-99696679D01*
X92646859Y-99539636D01*
X92846737Y-99339758D01*
X93002100Y-99107240D01*
X93157463Y-99339758D01*
X93357341Y-99539636D01*
X93592373Y-99696679D01*
X93853526Y-99804852D01*
X94130765Y-99859999D01*
X94413435Y-99859999D01*
X94690674Y-99804852D01*
X94951827Y-99696679D01*
X95186859Y-99539636D01*
X95386737Y-99339758D01*
X95542100Y-99107240D01*
X95697463Y-99339758D01*
X95897341Y-99539636D01*
X96132373Y-99696679D01*
X96393526Y-99804852D01*
X96670765Y-99859999D01*
X96953435Y-99859999D01*
X97230674Y-99804852D01*
X97491827Y-99696679D01*
X97726859Y-99539636D01*
X97926737Y-99339758D01*
X98082100Y-99107240D01*
X98237463Y-99339758D01*
X98437341Y-99539636D01*
X98672373Y-99696679D01*
X98933526Y-99804852D01*
X99210765Y-99859999D01*
X99493435Y-99859999D01*
X99770674Y-99804852D01*
X100031827Y-99696679D01*
X100266859Y-99539636D01*
X100466737Y-99339758D01*
X100622100Y-99107240D01*
X100777463Y-99339758D01*
X100977341Y-99539636D01*
X101212373Y-99696679D01*
X101473526Y-99804852D01*
X101750765Y-99859999D01*
X102033435Y-99859999D01*
X102310674Y-99804852D01*
X102571827Y-99696679D01*
X102806859Y-99539636D01*
X103006737Y-99339758D01*
X103162100Y-99107240D01*
X103317463Y-99339758D01*
X103517341Y-99539636D01*
X103752373Y-99696679D01*
X104013526Y-99804852D01*
X104290765Y-99859999D01*
X104573435Y-99859999D01*
X104850674Y-99804852D01*
X105111827Y-99696679D01*
X105346859Y-99539636D01*
X105546737Y-99339758D01*
X105702100Y-99107240D01*
X105857463Y-99339758D01*
X106057341Y-99539636D01*
X106292373Y-99696679D01*
X106553526Y-99804852D01*
X106830765Y-99859999D01*
X107113435Y-99859999D01*
X107390674Y-99804852D01*
X107651827Y-99696679D01*
X107886859Y-99539636D01*
X108086737Y-99339758D01*
X108242100Y-99107240D01*
X108397463Y-99339758D01*
X108597341Y-99539636D01*
X108832373Y-99696679D01*
X109093526Y-99804852D01*
X109370765Y-99859999D01*
X109653435Y-99859999D01*
X109930674Y-99804852D01*
X110191827Y-99696679D01*
X110426859Y-99539636D01*
X110626737Y-99339758D01*
X110782100Y-99107240D01*
X110937463Y-99339758D01*
X111137341Y-99539636D01*
X111372373Y-99696679D01*
X111633526Y-99804852D01*
X111910765Y-99859999D01*
X112193435Y-99859999D01*
X112470674Y-99804852D01*
X112731827Y-99696679D01*
X112966859Y-99539636D01*
X113166737Y-99339758D01*
X113322100Y-99107240D01*
X113477463Y-99339758D01*
X113677341Y-99539636D01*
X113912373Y-99696679D01*
X114173526Y-99804852D01*
X114450765Y-99859999D01*
X114733435Y-99859999D01*
X115010674Y-99804852D01*
X115271827Y-99696679D01*
X115506859Y-99539636D01*
X115706737Y-99339758D01*
X115862100Y-99107240D01*
X116017463Y-99339758D01*
X116217341Y-99539636D01*
X116452373Y-99696679D01*
X116713526Y-99804852D01*
X116990765Y-99859999D01*
X117273435Y-99859999D01*
X117550674Y-99804852D01*
X117811827Y-99696679D01*
X117812355Y-99696326D01*
X117823554Y-99733245D01*
X117894126Y-99865275D01*
X117920032Y-99896841D01*
X117989099Y-99981000D01*
X118018102Y-100004803D01*
X118912101Y-100898802D01*
X118912100Y-112446956D01*
X118757341Y-112550362D01*
X118557463Y-112750240D01*
X118402100Y-112982758D01*
X118246737Y-112750240D01*
X118046859Y-112550362D01*
X117811827Y-112393319D01*
X117550674Y-112285146D01*
X117273435Y-112229999D01*
X116990765Y-112229999D01*
X116713526Y-112285146D01*
X116452373Y-112393319D01*
X116217341Y-112550362D01*
X116017463Y-112750240D01*
X115862100Y-112982758D01*
X115706737Y-112750240D01*
X115506859Y-112550362D01*
X115271827Y-112393319D01*
X115010674Y-112285146D01*
X114733435Y-112229999D01*
X114450765Y-112229999D01*
X114173526Y-112285146D01*
X113912373Y-112393319D01*
X113677341Y-112550362D01*
X113477463Y-112750240D01*
X113322100Y-112982758D01*
X113166737Y-112750240D01*
X112966859Y-112550362D01*
X112731827Y-112393319D01*
X112470674Y-112285146D01*
X112193435Y-112229999D01*
X111910765Y-112229999D01*
X111633526Y-112285146D01*
X111372373Y-112393319D01*
X111137341Y-112550362D01*
X110937463Y-112750240D01*
X110782100Y-112982758D01*
X110626737Y-112750240D01*
X110426859Y-112550362D01*
X110191827Y-112393319D01*
X110145100Y-112373964D01*
X110145100Y-107764710D01*
X110189037Y-107720773D01*
X110302305Y-107551255D01*
X110380326Y-107362897D01*
X110420100Y-107162938D01*
X110420100Y-106959060D01*
X110380326Y-106759101D01*
X110302305Y-106570743D01*
X110189037Y-106401225D01*
X110044874Y-106257062D01*
X109875356Y-106143794D01*
X109686998Y-106065773D01*
X109487039Y-106025999D01*
X109283161Y-106025999D01*
X109083202Y-106065773D01*
X108894844Y-106143794D01*
X108725326Y-106257062D01*
X108581163Y-106401225D01*
X108467895Y-106570743D01*
X108389874Y-106759101D01*
X108350100Y-106959060D01*
X108350100Y-107162938D01*
X108389874Y-107362897D01*
X108467895Y-107551255D01*
X108581163Y-107720773D01*
X108625100Y-107764710D01*
X108625101Y-112531814D01*
X108597341Y-112550362D01*
X108397463Y-112750240D01*
X108242100Y-112982758D01*
X108086737Y-112750240D01*
X107886859Y-112550362D01*
X107651827Y-112393319D01*
X107390674Y-112285146D01*
X107113435Y-112229999D01*
X106830765Y-112229999D01*
X106553526Y-112285146D01*
X106292373Y-112393319D01*
X106057341Y-112550362D01*
X105857463Y-112750240D01*
X105702100Y-112982758D01*
X105546737Y-112750240D01*
X105346859Y-112550362D01*
X105111827Y-112393319D01*
X104850674Y-112285146D01*
X104573435Y-112229999D01*
X104290765Y-112229999D01*
X104013526Y-112285146D01*
X103752373Y-112393319D01*
X103517341Y-112550362D01*
X103317463Y-112750240D01*
X103162100Y-112982758D01*
X103006737Y-112750240D01*
X102806859Y-112550362D01*
X102571827Y-112393319D01*
X102310674Y-112285146D01*
X102033435Y-112229999D01*
X101750765Y-112229999D01*
X101473526Y-112285146D01*
X101212373Y-112393319D01*
X100977341Y-112550362D01*
X100777463Y-112750240D01*
X100622100Y-112982758D01*
X100466737Y-112750240D01*
X100266859Y-112550362D01*
X100031827Y-112393319D01*
X99770674Y-112285146D01*
X99493435Y-112229999D01*
X99210765Y-112229999D01*
X98933526Y-112285146D01*
X98672373Y-112393319D01*
X98437341Y-112550362D01*
X98237463Y-112750240D01*
X98082100Y-112982758D01*
X97926737Y-112750240D01*
X97726859Y-112550362D01*
X97491827Y-112393319D01*
X97230674Y-112285146D01*
X96953435Y-112229999D01*
X96670765Y-112229999D01*
X96393526Y-112285146D01*
X96132373Y-112393319D01*
X95897341Y-112550362D01*
X95697463Y-112750240D01*
X95542100Y-112982758D01*
X95386737Y-112750240D01*
X95186859Y-112550362D01*
X94951827Y-112393319D01*
X94690674Y-112285146D01*
X94413435Y-112229999D01*
X94130765Y-112229999D01*
X93853526Y-112285146D01*
X93592373Y-112393319D01*
X93357341Y-112550362D01*
X93157463Y-112750240D01*
X93002100Y-112982758D01*
X92846737Y-112750240D01*
X92646859Y-112550362D01*
X92411827Y-112393319D01*
X92150674Y-112285146D01*
X91873435Y-112229999D01*
X91590765Y-112229999D01*
X91313526Y-112285146D01*
X91052373Y-112393319D01*
X90817341Y-112550362D01*
X90617463Y-112750240D01*
X90460420Y-112985272D01*
X90352247Y-113246425D01*
X90297100Y-113523664D01*
X90297100Y-113806334D01*
X90352247Y-114083573D01*
X90460420Y-114344726D01*
X90617463Y-114579758D01*
X90817341Y-114779636D01*
X91052373Y-114936679D01*
X91313526Y-115044852D01*
X91590765Y-115099999D01*
X91873435Y-115099999D01*
X92150674Y-115044852D01*
X92411827Y-114936679D01*
X92646859Y-114779636D01*
X92846737Y-114579758D01*
X93002100Y-114347240D01*
X93157463Y-114579758D01*
X93357341Y-114779636D01*
X93592373Y-114936679D01*
X93853526Y-115044852D01*
X94130765Y-115099999D01*
X94413435Y-115099999D01*
X94690674Y-115044852D01*
X94951827Y-114936679D01*
X95186859Y-114779636D01*
X95386737Y-114579758D01*
X95542100Y-114347240D01*
X95697463Y-114579758D01*
X95897341Y-114779636D01*
X96132373Y-114936679D01*
X96393526Y-115044852D01*
X96670765Y-115099999D01*
X96953435Y-115099999D01*
X97230674Y-115044852D01*
X97491827Y-114936679D01*
X97726859Y-114779636D01*
X97926737Y-114579758D01*
X98082100Y-114347240D01*
X98237463Y-114579758D01*
X98437341Y-114779636D01*
X98672373Y-114936679D01*
X98933526Y-115044852D01*
X99210765Y-115099999D01*
X99493435Y-115099999D01*
X99770674Y-115044852D01*
X100031827Y-114936679D01*
X100266859Y-114779636D01*
X100466737Y-114579758D01*
X100622100Y-114347240D01*
X100777463Y-114579758D01*
X100977341Y-114779636D01*
X101212373Y-114936679D01*
X101473526Y-115044852D01*
X101750765Y-115099999D01*
X102033435Y-115099999D01*
X102310674Y-115044852D01*
X102571827Y-114936679D01*
X102806859Y-114779636D01*
X103006737Y-114579758D01*
X103162100Y-114347240D01*
X103317463Y-114579758D01*
X103517341Y-114779636D01*
X103752373Y-114936679D01*
X104013526Y-115044852D01*
X104290765Y-115099999D01*
X104573435Y-115099999D01*
X104850674Y-115044852D01*
X105111827Y-114936679D01*
X105346859Y-114779636D01*
X105546737Y-114579758D01*
X105702100Y-114347240D01*
X105857463Y-114579758D01*
X106057341Y-114779636D01*
X106292373Y-114936679D01*
X106553526Y-115044852D01*
X106830765Y-115099999D01*
X107113435Y-115099999D01*
X107390674Y-115044852D01*
X107651827Y-114936679D01*
X107886859Y-114779636D01*
X108086737Y-114579758D01*
X108242100Y-114347240D01*
X108397463Y-114579758D01*
X108597341Y-114779636D01*
X108832373Y-114936679D01*
X109093526Y-115044852D01*
X109370765Y-115099999D01*
X109653435Y-115099999D01*
X109930674Y-115044852D01*
X110191827Y-114936679D01*
X110426859Y-114779636D01*
X110626737Y-114579758D01*
X110782100Y-114347240D01*
X110937463Y-114579758D01*
X111137341Y-114779636D01*
X111372373Y-114936679D01*
X111633526Y-115044852D01*
X111910765Y-115099999D01*
X112193435Y-115099999D01*
X112470674Y-115044852D01*
X112731827Y-114936679D01*
X112966859Y-114779636D01*
X113166737Y-114579758D01*
X113322100Y-114347240D01*
X113477463Y-114579758D01*
X113677341Y-114779636D01*
X113912373Y-114936679D01*
X114173526Y-115044852D01*
X114450765Y-115099999D01*
X114733435Y-115099999D01*
X115010674Y-115044852D01*
X115271827Y-114936679D01*
X115506859Y-114779636D01*
X115706737Y-114579758D01*
X115862100Y-114347240D01*
X116017463Y-114579758D01*
X116217341Y-114779636D01*
X116452373Y-114936679D01*
X116713526Y-115044852D01*
X116990765Y-115099999D01*
X117273435Y-115099999D01*
X117550674Y-115044852D01*
X117811827Y-114936679D01*
X118046859Y-114779636D01*
X118246737Y-114579758D01*
X118402100Y-114347240D01*
X118557463Y-114579758D01*
X118757341Y-114779636D01*
X118992373Y-114936679D01*
X119253526Y-115044852D01*
X119530765Y-115099999D01*
X119813435Y-115099999D01*
X120090674Y-115044852D01*
X120351827Y-114936679D01*
X120586859Y-114779636D01*
X120786737Y-114579758D01*
X120942100Y-114347240D01*
X121097463Y-114579758D01*
X121297341Y-114779636D01*
X121532373Y-114936679D01*
X121793526Y-115044852D01*
X122070765Y-115099999D01*
X122353435Y-115099999D01*
X122630674Y-115044852D01*
X122891827Y-114936679D01*
X123126859Y-114779636D01*
X123326737Y-114579758D01*
X123483780Y-114344726D01*
X123488167Y-114334134D01*
X123599715Y-114520130D01*
X123788686Y-114728518D01*
X124014680Y-114896036D01*
X124269013Y-115016245D01*
X124403061Y-115056903D01*
X124625100Y-114934914D01*
X124625100Y-113791999D01*
X124605100Y-113791999D01*
X124605100Y-113537999D01*
X124625100Y-113537999D01*
X124625100Y-112395084D01*
X124879100Y-112395084D01*
X124879100Y-113537999D01*
X124899100Y-113537999D01*
X124899100Y-113791999D01*
X124879100Y-113791999D01*
X124879100Y-114934914D01*
X125101139Y-115056903D01*
X125235187Y-115016245D01*
X125489520Y-114896036D01*
X125715514Y-114728518D01*
X125904485Y-114520130D01*
X126016033Y-114334134D01*
X126020420Y-114344726D01*
X126177463Y-114579758D01*
X126377341Y-114779636D01*
X126612373Y-114936679D01*
X126873526Y-115044852D01*
X127150765Y-115099999D01*
X127433435Y-115099999D01*
X127710674Y-115044852D01*
X127971827Y-114936679D01*
X128206859Y-114779636D01*
X128406737Y-114579758D01*
X128563780Y-114344726D01*
X128671953Y-114083573D01*
X128685917Y-114013371D01*
X145001785Y-114013371D01*
X145001785Y-114485029D01*
X145093801Y-114947625D01*
X145274296Y-115383381D01*
X145536336Y-115775550D01*
X145869849Y-116109063D01*
X146262018Y-116371103D01*
X146697774Y-116551598D01*
X147160370Y-116643614D01*
X147632028Y-116643614D01*
X148094624Y-116551598D01*
X148530380Y-116371103D01*
X148922549Y-116109063D01*
X149256062Y-115775550D01*
X149518102Y-115383381D01*
X149698597Y-114947625D01*
X149790613Y-114485029D01*
X149790613Y-114013371D01*
X149698597Y-113550775D01*
X149518102Y-113115019D01*
X149256062Y-112722850D01*
X148922549Y-112389337D01*
X148530380Y-112127297D01*
X148094624Y-111946802D01*
X147632028Y-111854786D01*
X147160370Y-111854786D01*
X146697774Y-111946802D01*
X146262018Y-112127297D01*
X145869849Y-112389337D01*
X145536336Y-112722850D01*
X145274296Y-113115019D01*
X145093801Y-113550775D01*
X145001785Y-114013371D01*
X128685917Y-114013371D01*
X128727100Y-113806334D01*
X128727100Y-113523664D01*
X128671953Y-113246425D01*
X128563780Y-112985272D01*
X128406737Y-112750240D01*
X128206859Y-112550362D01*
X127971827Y-112393319D01*
X127710674Y-112285146D01*
X127433435Y-112229999D01*
X127150765Y-112229999D01*
X126873526Y-112285146D01*
X126612373Y-112393319D01*
X126377341Y-112550362D01*
X126177463Y-112750240D01*
X126020420Y-112985272D01*
X126016033Y-112995864D01*
X125904485Y-112809868D01*
X125715514Y-112601480D01*
X125489520Y-112433962D01*
X125235187Y-112313753D01*
X125101139Y-112273095D01*
X124879100Y-112395084D01*
X124625100Y-112395084D01*
X124403061Y-112273095D01*
X124269013Y-112313753D01*
X124014680Y-112433962D01*
X123788686Y-112601480D01*
X123599715Y-112809868D01*
X123488167Y-112995864D01*
X123483780Y-112985272D01*
X123326737Y-112750240D01*
X123126859Y-112550362D01*
X122891827Y-112393319D01*
X122630674Y-112285146D01*
X122353435Y-112229999D01*
X122070765Y-112229999D01*
X121793526Y-112285146D01*
X121532373Y-112393319D01*
X121297341Y-112550362D01*
X121097463Y-112750240D01*
X120942100Y-112982758D01*
X120786737Y-112750240D01*
X120586859Y-112550362D01*
X120432100Y-112446956D01*
X120432100Y-109708739D01*
X146762100Y-109708739D01*
X146762100Y-110001259D01*
X146819168Y-110288157D01*
X146931110Y-110558410D01*
X147093625Y-110801631D01*
X147300468Y-111008474D01*
X147543689Y-111170989D01*
X147813942Y-111282931D01*
X148100840Y-111339999D01*
X148393360Y-111339999D01*
X148680258Y-111282931D01*
X148950511Y-111170989D01*
X149193732Y-111008474D01*
X149400575Y-110801631D01*
X149563090Y-110558410D01*
X149675032Y-110288157D01*
X149732100Y-110001259D01*
X149732100Y-109708739D01*
X149675032Y-109421841D01*
X149563090Y-109151588D01*
X149400575Y-108908367D01*
X149193732Y-108701524D01*
X149011566Y-108579804D01*
X149128455Y-108510177D01*
X149344688Y-108315268D01*
X149518741Y-108081919D01*
X149643925Y-107819098D01*
X149688576Y-107671889D01*
X149567255Y-107441999D01*
X148374100Y-107441999D01*
X148374100Y-107461999D01*
X148120100Y-107461999D01*
X148120100Y-107441999D01*
X146926945Y-107441999D01*
X146805624Y-107671889D01*
X146850275Y-107819098D01*
X146975459Y-108081919D01*
X147149512Y-108315268D01*
X147365745Y-108510177D01*
X147482634Y-108579804D01*
X147300468Y-108701524D01*
X147093625Y-108908367D01*
X146931110Y-109151588D01*
X146819168Y-109421841D01*
X146762100Y-109708739D01*
X120432100Y-109708739D01*
X120432100Y-103924999D01*
X146759028Y-103924999D01*
X146759028Y-105624999D01*
X146771288Y-105749481D01*
X146807598Y-105869179D01*
X146866563Y-105979493D01*
X146945915Y-106076184D01*
X147042606Y-106155536D01*
X147152920Y-106214501D01*
X147233566Y-106238965D01*
X147149512Y-106314730D01*
X146975459Y-106548079D01*
X146850275Y-106810900D01*
X146805624Y-106958109D01*
X146926945Y-107187999D01*
X148120100Y-107187999D01*
X148120100Y-107167999D01*
X148374100Y-107167999D01*
X148374100Y-107187999D01*
X149567255Y-107187999D01*
X149688576Y-106958109D01*
X149643925Y-106810900D01*
X149518741Y-106548079D01*
X149344688Y-106314730D01*
X149260634Y-106238965D01*
X149341280Y-106214501D01*
X149451594Y-106155536D01*
X149548285Y-106076184D01*
X149627637Y-105979493D01*
X149686602Y-105869179D01*
X149722912Y-105749481D01*
X149735172Y-105624999D01*
X149735172Y-103924999D01*
X149722912Y-103800517D01*
X149686602Y-103680819D01*
X149627637Y-103570505D01*
X149548285Y-103473814D01*
X149451594Y-103394462D01*
X149341280Y-103335497D01*
X149221582Y-103299187D01*
X149097100Y-103286927D01*
X147397100Y-103286927D01*
X147272618Y-103299187D01*
X147152920Y-103335497D01*
X147042606Y-103394462D01*
X146945915Y-103473814D01*
X146866563Y-103570505D01*
X146807598Y-103680819D01*
X146771288Y-103800517D01*
X146759028Y-103924999D01*
X120432100Y-103924999D01*
X120432100Y-100621321D01*
X120435776Y-100583998D01*
X120432100Y-100546675D01*
X120432100Y-100546666D01*
X120421103Y-100435013D01*
X120377646Y-100291752D01*
X120339827Y-100220999D01*
X120307074Y-100159722D01*
X120235899Y-100072996D01*
X120212101Y-100043998D01*
X120183103Y-100020200D01*
X119929409Y-99766506D01*
X120021139Y-99816903D01*
X120155187Y-99776245D01*
X120409520Y-99656036D01*
X120635514Y-99488518D01*
X120824485Y-99280130D01*
X120936033Y-99094134D01*
X120940420Y-99104726D01*
X121097463Y-99339758D01*
X121297341Y-99539636D01*
X121532373Y-99696679D01*
X121793526Y-99804852D01*
X122070765Y-99859999D01*
X122353435Y-99859999D01*
X122577102Y-99815508D01*
X122577102Y-99906195D01*
X121537299Y-100945999D01*
X121475161Y-100945999D01*
X121275202Y-100985773D01*
X121086844Y-101063794D01*
X120917326Y-101177062D01*
X120773163Y-101321225D01*
X120659895Y-101490743D01*
X120581874Y-101679101D01*
X120542100Y-101879060D01*
X120542100Y-102082938D01*
X120581874Y-102282897D01*
X120659895Y-102471255D01*
X120773163Y-102640773D01*
X120917326Y-102784936D01*
X121086844Y-102898204D01*
X121275202Y-102976225D01*
X121475161Y-103015999D01*
X121679039Y-103015999D01*
X121878998Y-102976225D01*
X122067356Y-102898204D01*
X122236874Y-102784936D01*
X122381037Y-102640773D01*
X122494305Y-102471255D01*
X122572326Y-102282897D01*
X122612100Y-102082938D01*
X122612100Y-102020800D01*
X123848104Y-100784797D01*
X123877102Y-100760999D01*
X123972075Y-100645274D01*
X124042647Y-100513245D01*
X124086104Y-100369984D01*
X124097101Y-100258331D01*
X124097101Y-100258322D01*
X124100777Y-100220999D01*
X124097101Y-100183676D01*
X124097101Y-99706922D01*
X124333526Y-99804852D01*
X124610765Y-99859999D01*
X124893435Y-99859999D01*
X125170674Y-99804852D01*
X125431827Y-99696679D01*
X125666859Y-99539636D01*
X125865457Y-99341038D01*
X125866288Y-99349481D01*
X125902598Y-99469179D01*
X125961563Y-99579493D01*
X126040915Y-99676184D01*
X126137606Y-99755536D01*
X126247920Y-99814501D01*
X126367618Y-99850811D01*
X126492100Y-99863071D01*
X128092100Y-99863071D01*
X128216582Y-99850811D01*
X128336280Y-99814501D01*
X128446594Y-99755536D01*
X128543285Y-99676184D01*
X128622637Y-99579493D01*
X128681602Y-99469179D01*
X128701677Y-99402999D01*
X131569028Y-99402999D01*
X131569028Y-101002999D01*
X131581288Y-101127481D01*
X131617598Y-101247179D01*
X131676563Y-101357493D01*
X131755915Y-101454184D01*
X131852606Y-101533536D01*
X131962920Y-101592501D01*
X132082618Y-101628811D01*
X132207100Y-101641071D01*
X133807100Y-101641071D01*
X133931582Y-101628811D01*
X134051280Y-101592501D01*
X134161594Y-101533536D01*
X134258285Y-101454184D01*
X134337637Y-101357493D01*
X134396602Y-101247179D01*
X134432912Y-101127481D01*
X134445172Y-101002999D01*
X134445172Y-100552038D01*
X139235196Y-100552038D01*
X139275854Y-100686086D01*
X139396063Y-100940419D01*
X139563581Y-101166413D01*
X139771969Y-101355384D01*
X140013219Y-101500069D01*
X140278060Y-101594908D01*
X140500100Y-101473623D01*
X140500100Y-100329999D01*
X140754100Y-100329999D01*
X140754100Y-101473623D01*
X140976140Y-101594908D01*
X141240981Y-101500069D01*
X141482231Y-101355384D01*
X141690619Y-101166413D01*
X141858137Y-100940419D01*
X141978346Y-100686086D01*
X142019004Y-100552038D01*
X141897015Y-100329999D01*
X140754100Y-100329999D01*
X140500100Y-100329999D01*
X139357185Y-100329999D01*
X139235196Y-100552038D01*
X134445172Y-100552038D01*
X134445172Y-99853960D01*
X139235196Y-99853960D01*
X139357185Y-100075999D01*
X140500100Y-100075999D01*
X140500100Y-98932375D01*
X140754100Y-98932375D01*
X140754100Y-100075999D01*
X141897015Y-100075999D01*
X142019004Y-99853960D01*
X141978346Y-99719912D01*
X141858137Y-99465579D01*
X141690619Y-99239585D01*
X141482231Y-99050614D01*
X141240981Y-98905929D01*
X140976140Y-98811090D01*
X140754100Y-98932375D01*
X140500100Y-98932375D01*
X140278060Y-98811090D01*
X140013219Y-98905929D01*
X139771969Y-99050614D01*
X139563581Y-99239585D01*
X139396063Y-99465579D01*
X139275854Y-99719912D01*
X139235196Y-99853960D01*
X134445172Y-99853960D01*
X134445172Y-99402999D01*
X134432912Y-99278517D01*
X134396602Y-99158819D01*
X134337637Y-99048505D01*
X134258285Y-98951814D01*
X134161594Y-98872462D01*
X134051280Y-98813497D01*
X133931582Y-98777187D01*
X133807100Y-98764927D01*
X132207100Y-98764927D01*
X132082618Y-98777187D01*
X131962920Y-98813497D01*
X131852606Y-98872462D01*
X131755915Y-98951814D01*
X131676563Y-99048505D01*
X131617598Y-99158819D01*
X131581288Y-99278517D01*
X131569028Y-99402999D01*
X128701677Y-99402999D01*
X128717912Y-99349481D01*
X128730172Y-99224999D01*
X128730172Y-97624999D01*
X128717912Y-97500517D01*
X128681602Y-97380819D01*
X128622637Y-97270505D01*
X128543285Y-97173814D01*
X128446594Y-97094462D01*
X128336280Y-97035497D01*
X128216582Y-96999187D01*
X128092100Y-96986927D01*
X126492100Y-96986927D01*
X126367618Y-96999187D01*
X126247920Y-97035497D01*
X126137606Y-97094462D01*
X126040915Y-97173814D01*
X125961563Y-97270505D01*
X125902598Y-97380819D01*
X125866288Y-97500517D01*
X125865457Y-97508960D01*
X125666859Y-97310362D01*
X125431827Y-97153319D01*
X125170674Y-97045146D01*
X124893435Y-96989999D01*
X124610765Y-96989999D01*
X124333526Y-97045146D01*
X124097101Y-97143076D01*
X124097101Y-95766803D01*
X126366844Y-93497060D01*
X135782100Y-93497060D01*
X135782100Y-93700938D01*
X135821874Y-93900897D01*
X135899895Y-94089255D01*
X136013163Y-94258773D01*
X136157326Y-94402936D01*
X136326844Y-94516204D01*
X136515202Y-94594225D01*
X136715161Y-94633999D01*
X136919039Y-94633999D01*
X137118998Y-94594225D01*
X137307356Y-94516204D01*
X137476874Y-94402936D01*
X137621037Y-94258773D01*
X137734305Y-94089255D01*
X137812326Y-93900897D01*
X137852100Y-93700938D01*
X137852100Y-93497060D01*
X137812326Y-93297101D01*
X137734305Y-93108743D01*
X137621037Y-92939225D01*
X137577100Y-92895288D01*
X137577100Y-92494999D01*
X146759028Y-92494999D01*
X146759028Y-94194999D01*
X146771288Y-94319481D01*
X146807598Y-94439179D01*
X146866563Y-94549493D01*
X146945915Y-94646184D01*
X147042606Y-94725536D01*
X147152920Y-94784501D01*
X147225480Y-94806512D01*
X147093625Y-94938367D01*
X146931110Y-95181588D01*
X146819168Y-95451841D01*
X146762100Y-95738739D01*
X146762100Y-96031259D01*
X146819168Y-96318157D01*
X146931110Y-96588410D01*
X147093625Y-96831631D01*
X147300468Y-97038474D01*
X147543689Y-97200989D01*
X147813942Y-97312931D01*
X148100840Y-97369999D01*
X148393360Y-97369999D01*
X148680258Y-97312931D01*
X148950511Y-97200989D01*
X149193732Y-97038474D01*
X149400575Y-96831631D01*
X149563090Y-96588410D01*
X149675032Y-96318157D01*
X149732100Y-96031259D01*
X149732100Y-95738739D01*
X149675032Y-95451841D01*
X149563090Y-95181588D01*
X149400575Y-94938367D01*
X149268720Y-94806512D01*
X149341280Y-94784501D01*
X149451594Y-94725536D01*
X149548285Y-94646184D01*
X149627637Y-94549493D01*
X149686602Y-94439179D01*
X149722912Y-94319481D01*
X149735172Y-94194999D01*
X149735172Y-92494999D01*
X149722912Y-92370517D01*
X149686602Y-92250819D01*
X149627637Y-92140505D01*
X149548285Y-92043814D01*
X149451594Y-91964462D01*
X149341280Y-91905497D01*
X149221582Y-91869187D01*
X149097100Y-91856927D01*
X147397100Y-91856927D01*
X147272618Y-91869187D01*
X147152920Y-91905497D01*
X147042606Y-91964462D01*
X146945915Y-92043814D01*
X146866563Y-92140505D01*
X146807598Y-92250819D01*
X146771288Y-92370517D01*
X146759028Y-92494999D01*
X137577100Y-92494999D01*
X137577100Y-85404800D01*
X138355692Y-84626209D01*
X138575840Y-84669999D01*
X138868360Y-84669999D01*
X139155258Y-84612931D01*
X139425511Y-84500989D01*
X139668732Y-84338474D01*
X139800587Y-84206619D01*
X139822598Y-84279179D01*
X139881563Y-84389493D01*
X139960915Y-84486184D01*
X140057606Y-84565536D01*
X140167920Y-84624501D01*
X140287618Y-84660811D01*
X140412100Y-84673071D01*
X142112100Y-84673071D01*
X142236582Y-84660811D01*
X142356280Y-84624501D01*
X142466594Y-84565536D01*
X142563285Y-84486184D01*
X142642637Y-84389493D01*
X142701602Y-84279179D01*
X142737912Y-84159481D01*
X142750172Y-84034999D01*
X142750172Y-82949171D01*
X145001785Y-82949171D01*
X145001785Y-83420829D01*
X145093801Y-83883425D01*
X145274296Y-84319181D01*
X145536336Y-84711350D01*
X145869849Y-85044863D01*
X146262018Y-85306903D01*
X146697774Y-85487398D01*
X147160370Y-85579414D01*
X147632028Y-85579414D01*
X148094624Y-85487398D01*
X148530380Y-85306903D01*
X148922549Y-85044863D01*
X149256062Y-84711350D01*
X149518102Y-84319181D01*
X149698597Y-83883425D01*
X149790613Y-83420829D01*
X149790613Y-82949171D01*
X149698597Y-82486575D01*
X149518102Y-82050819D01*
X149256062Y-81658650D01*
X148922549Y-81325137D01*
X148530380Y-81063097D01*
X148094624Y-80882602D01*
X147632028Y-80790586D01*
X147160370Y-80790586D01*
X146697774Y-80882602D01*
X146262018Y-81063097D01*
X145869849Y-81325137D01*
X145536336Y-81658650D01*
X145274296Y-82050819D01*
X145093801Y-82486575D01*
X145001785Y-82949171D01*
X142750172Y-82949171D01*
X142750172Y-82334999D01*
X142737912Y-82210517D01*
X142701602Y-82090819D01*
X142642637Y-81980505D01*
X142563285Y-81883814D01*
X142466594Y-81804462D01*
X142356280Y-81745497D01*
X142236582Y-81709187D01*
X142112100Y-81696927D01*
X140412100Y-81696927D01*
X140287618Y-81709187D01*
X140167920Y-81745497D01*
X140057606Y-81804462D01*
X139960915Y-81883814D01*
X139881563Y-81980505D01*
X139822598Y-82090819D01*
X139800587Y-82163379D01*
X139668732Y-82031524D01*
X139425511Y-81869009D01*
X139155258Y-81757067D01*
X138868360Y-81699999D01*
X138575840Y-81699999D01*
X138288942Y-81757067D01*
X138018689Y-81869009D01*
X137775468Y-82031524D01*
X137568625Y-82238367D01*
X137406110Y-82481588D01*
X137294168Y-82751841D01*
X137237100Y-83038739D01*
X137237100Y-83331259D01*
X137280890Y-83551407D01*
X136596613Y-84235685D01*
X136524853Y-84257453D01*
X136392824Y-84328025D01*
X136277099Y-84422998D01*
X136182126Y-84538723D01*
X136111554Y-84670752D01*
X136068097Y-84814013D01*
X136053423Y-84962999D01*
X136057101Y-85000342D01*
X136057100Y-92895288D01*
X136013163Y-92939225D01*
X135899895Y-93108743D01*
X135821874Y-93297101D01*
X135782100Y-93497060D01*
X126366844Y-93497060D01*
X127065904Y-92798001D01*
X128237780Y-92798001D01*
X128275102Y-92801677D01*
X128312424Y-92798001D01*
X128312435Y-92798001D01*
X128424088Y-92787004D01*
X128567349Y-92743547D01*
X128699378Y-92672975D01*
X128815103Y-92578002D01*
X128838906Y-92548998D01*
X130343103Y-91044802D01*
X130372101Y-91021004D01*
X130467074Y-90905279D01*
X130537646Y-90773250D01*
X130581103Y-90629989D01*
X130592100Y-90518336D01*
X130592100Y-90518328D01*
X130595776Y-90481003D01*
X130592100Y-90443678D01*
X130592100Y-84673071D01*
X130682100Y-84673071D01*
X130806582Y-84660811D01*
X130926280Y-84624501D01*
X131036594Y-84565536D01*
X131133285Y-84486184D01*
X131212637Y-84389493D01*
X131271602Y-84279179D01*
X131307912Y-84159481D01*
X131320172Y-84034999D01*
X131320172Y-82334999D01*
X131307912Y-82210517D01*
X131271602Y-82090819D01*
X131212637Y-81980505D01*
X131133285Y-81883814D01*
X131036594Y-81804462D01*
X130926280Y-81745497D01*
X130806582Y-81709187D01*
X130682100Y-81696927D01*
X128982100Y-81696927D01*
X128857618Y-81709187D01*
X128737920Y-81745497D01*
X128627606Y-81804462D01*
X128530915Y-81883814D01*
X128451563Y-81980505D01*
X128392598Y-82090819D01*
X128370587Y-82163379D01*
X128238732Y-82031524D01*
X127995511Y-81869009D01*
X127725258Y-81757067D01*
X127438360Y-81699999D01*
X127145840Y-81699999D01*
X126858942Y-81757067D01*
X126588689Y-81869009D01*
X126345468Y-82031524D01*
X126138625Y-82238367D01*
X125976110Y-82481588D01*
X125864168Y-82751841D01*
X125807100Y-83038739D01*
X125807100Y-83331259D01*
X125864168Y-83618157D01*
X125976110Y-83888410D01*
X126138625Y-84131631D01*
X126345468Y-84338474D01*
X126532100Y-84463178D01*
X126532101Y-88967162D01*
X126505326Y-88985052D01*
X126361163Y-89129215D01*
X126247895Y-89298733D01*
X126169874Y-89487091D01*
X126130100Y-89687050D01*
X126130100Y-89890928D01*
X126169874Y-90090887D01*
X126247895Y-90279245D01*
X126361163Y-90448763D01*
X126505326Y-90592926D01*
X126674844Y-90706194D01*
X126863202Y-90784215D01*
X127063161Y-90823989D01*
X127267039Y-90823989D01*
X127466998Y-90784215D01*
X127655356Y-90706194D01*
X127824874Y-90592926D01*
X127969037Y-90448763D01*
X128082305Y-90279245D01*
X128160326Y-90090887D01*
X128200100Y-89890928D01*
X128200100Y-89687050D01*
X128160326Y-89487091D01*
X128082305Y-89298733D01*
X128052100Y-89253528D01*
X128052100Y-84463177D01*
X128238732Y-84338474D01*
X128370587Y-84206619D01*
X128392598Y-84279179D01*
X128451563Y-84389493D01*
X128530915Y-84486184D01*
X128627606Y-84565536D01*
X128737920Y-84624501D01*
X128857618Y-84660811D01*
X128982100Y-84673071D01*
X129072100Y-84673071D01*
X129072101Y-90166200D01*
X127960301Y-91278001D01*
X126788435Y-91278001D01*
X126751102Y-91274324D01*
X126713769Y-91278001D01*
X126602116Y-91288998D01*
X126458855Y-91332455D01*
X126326826Y-91403027D01*
X126211101Y-91498000D01*
X126187303Y-91526998D01*
X122826104Y-94888198D01*
X122797100Y-94912001D01*
X122741972Y-94979176D01*
X122702127Y-95027726D01*
X122631556Y-95159755D01*
X122631555Y-95159756D01*
X122588098Y-95303017D01*
X122577101Y-95414670D01*
X122577101Y-95414680D01*
X122573425Y-95452002D01*
X122577101Y-95489325D01*
X122577101Y-97034490D01*
X122353435Y-96989999D01*
X122070765Y-96989999D01*
X121793526Y-97045146D01*
X121532373Y-97153319D01*
X121297341Y-97310362D01*
X121097463Y-97510240D01*
X120940420Y-97745272D01*
X120936033Y-97755864D01*
X120824485Y-97569868D01*
X120635514Y-97361480D01*
X120409520Y-97193962D01*
X120155187Y-97073753D01*
X120021139Y-97033095D01*
X119799100Y-97155084D01*
X119799100Y-98297999D01*
X119819100Y-98297999D01*
X119819100Y-98551999D01*
X119799100Y-98551999D01*
X119799100Y-98571999D01*
X119545100Y-98571999D01*
X119545100Y-98551999D01*
X119525100Y-98551999D01*
X119525100Y-98297999D01*
X119545100Y-98297999D01*
X119545100Y-97155084D01*
X119323061Y-97033095D01*
X119289100Y-97043396D01*
X119289100Y-93317800D01*
X120019381Y-92587520D01*
X120097920Y-92629501D01*
X120217618Y-92665811D01*
X120342100Y-92678071D01*
X121542100Y-92678071D01*
X121666582Y-92665811D01*
X121786280Y-92629501D01*
X121896594Y-92570536D01*
X121993285Y-92491184D01*
X122072637Y-92394493D01*
X122131602Y-92284179D01*
X122167912Y-92164481D01*
X122180172Y-92039999D01*
X122180172Y-90839999D01*
X122167912Y-90715517D01*
X122131602Y-90595819D01*
X122072637Y-90485505D01*
X121993285Y-90388814D01*
X121896594Y-90309462D01*
X121851094Y-90285141D01*
X121908972Y-90227263D01*
X121791866Y-90110157D01*
X122015448Y-90062851D01*
X122116337Y-89841483D01*
X122172100Y-89604686D01*
X122180595Y-89361561D01*
X122141495Y-89121450D01*
X122056302Y-88893581D01*
X122015448Y-88817147D01*
X121791864Y-88769840D01*
X121121705Y-89439999D01*
X121135848Y-89454142D01*
X120956243Y-89633747D01*
X120942100Y-89619604D01*
X120927958Y-89633747D01*
X120748353Y-89454142D01*
X120762495Y-89439999D01*
X120092336Y-88769840D01*
X119868752Y-88817147D01*
X119767863Y-89038515D01*
X119712100Y-89275312D01*
X119703605Y-89518437D01*
X119742705Y-89758548D01*
X119827898Y-89986417D01*
X119868752Y-90062851D01*
X120092334Y-90110157D01*
X119975228Y-90227263D01*
X120033106Y-90285141D01*
X119987606Y-90309462D01*
X119890915Y-90388814D01*
X119811563Y-90485505D01*
X119752598Y-90595819D01*
X119716288Y-90715517D01*
X119709676Y-90782654D01*
X119667824Y-90805025D01*
X119552099Y-90899998D01*
X119528301Y-90928996D01*
X118018098Y-92439200D01*
X117989100Y-92462998D01*
X117965302Y-92491996D01*
X117965301Y-92491997D01*
X117894126Y-92578723D01*
X117823554Y-92710753D01*
X117780098Y-92854014D01*
X117765424Y-93002999D01*
X117769101Y-93040331D01*
X117769100Y-97135621D01*
X117550674Y-97045146D01*
X117273435Y-96989999D01*
X116990765Y-96989999D01*
X116713526Y-97045146D01*
X116452373Y-97153319D01*
X116217341Y-97310362D01*
X116017463Y-97510240D01*
X115862100Y-97742758D01*
X115706737Y-97510240D01*
X115506859Y-97310362D01*
X115271827Y-97153319D01*
X115010674Y-97045146D01*
X114733435Y-96989999D01*
X114450765Y-96989999D01*
X114173526Y-97045146D01*
X113912373Y-97153319D01*
X113677341Y-97310362D01*
X113477463Y-97510240D01*
X113322100Y-97742758D01*
X113166737Y-97510240D01*
X112966859Y-97310362D01*
X112731827Y-97153319D01*
X112470674Y-97045146D01*
X112193435Y-96989999D01*
X111910765Y-96989999D01*
X111633526Y-97045146D01*
X111372373Y-97153319D01*
X111137341Y-97310362D01*
X110937463Y-97510240D01*
X110782100Y-97742758D01*
X110626737Y-97510240D01*
X110426859Y-97310362D01*
X110191827Y-97153319D01*
X109930674Y-97045146D01*
X109653435Y-96989999D01*
X109370765Y-96989999D01*
X109093526Y-97045146D01*
X108832373Y-97153319D01*
X108597341Y-97310362D01*
X108397463Y-97510240D01*
X108242100Y-97742758D01*
X108086737Y-97510240D01*
X107886859Y-97310362D01*
X107651827Y-97153319D01*
X107390674Y-97045146D01*
X107113435Y-96989999D01*
X106830765Y-96989999D01*
X106553526Y-97045146D01*
X106292373Y-97153319D01*
X106057341Y-97310362D01*
X105857463Y-97510240D01*
X105702100Y-97742758D01*
X105546737Y-97510240D01*
X105346859Y-97310362D01*
X105111827Y-97153319D01*
X104850674Y-97045146D01*
X104573435Y-96989999D01*
X104290765Y-96989999D01*
X104013526Y-97045146D01*
X103752373Y-97153319D01*
X103517341Y-97310362D01*
X103317463Y-97510240D01*
X103162100Y-97742758D01*
X103006737Y-97510240D01*
X102806859Y-97310362D01*
X102571827Y-97153319D01*
X102310674Y-97045146D01*
X102033435Y-96989999D01*
X101750765Y-96989999D01*
X101473526Y-97045146D01*
X101212373Y-97153319D01*
X100977341Y-97310362D01*
X100777463Y-97510240D01*
X100622100Y-97742758D01*
X100466737Y-97510240D01*
X100266859Y-97310362D01*
X100031827Y-97153319D01*
X99770674Y-97045146D01*
X99493435Y-96989999D01*
X99210765Y-96989999D01*
X98933526Y-97045146D01*
X98672373Y-97153319D01*
X98437341Y-97310362D01*
X98237463Y-97510240D01*
X98082100Y-97742758D01*
X97926737Y-97510240D01*
X97726859Y-97310362D01*
X97491827Y-97153319D01*
X97230674Y-97045146D01*
X96953435Y-96989999D01*
X96670765Y-96989999D01*
X96393526Y-97045146D01*
X96132373Y-97153319D01*
X95897341Y-97310362D01*
X95697463Y-97510240D01*
X95542100Y-97742758D01*
X95386737Y-97510240D01*
X95186859Y-97310362D01*
X94951827Y-97153319D01*
X94690674Y-97045146D01*
X94413435Y-96989999D01*
X94130765Y-96989999D01*
X93853526Y-97045146D01*
X93592373Y-97153319D01*
X93357341Y-97310362D01*
X93157463Y-97510240D01*
X93002100Y-97742758D01*
X92846737Y-97510240D01*
X92646859Y-97310362D01*
X92411827Y-97153319D01*
X92150674Y-97045146D01*
X91873435Y-96989999D01*
X91590765Y-96989999D01*
X91313526Y-97045146D01*
X91052373Y-97153319D01*
X90817341Y-97310362D01*
X90617463Y-97510240D01*
X90460420Y-97745272D01*
X90352247Y-98006425D01*
X90297100Y-98283664D01*
X84872100Y-98283664D01*
X84872100Y-96834800D01*
X88951902Y-92754999D01*
X110272473Y-92754999D01*
X110337325Y-92911565D01*
X110549087Y-93228490D01*
X110818609Y-93498012D01*
X111135534Y-93709774D01*
X111487681Y-93855638D01*
X111861519Y-93929999D01*
X112242681Y-93929999D01*
X112616519Y-93855638D01*
X112968666Y-93709774D01*
X113285591Y-93498012D01*
X113555113Y-93228490D01*
X113766875Y-92911565D01*
X113912739Y-92559418D01*
X113987100Y-92185580D01*
X113987100Y-91804418D01*
X113912739Y-91430580D01*
X113766875Y-91078433D01*
X113555113Y-90761508D01*
X113285591Y-90491986D01*
X112968666Y-90280224D01*
X112616519Y-90134360D01*
X112242681Y-90059999D01*
X111861519Y-90059999D01*
X111487681Y-90134360D01*
X111135534Y-90280224D01*
X110818609Y-90491986D01*
X110549087Y-90761508D01*
X110337325Y-91078433D01*
X110272473Y-91234999D01*
X88674422Y-91234999D01*
X88637099Y-91231323D01*
X88599776Y-91234999D01*
X88599767Y-91234999D01*
X88488114Y-91245996D01*
X88344853Y-91289453D01*
X88212824Y-91360025D01*
X88097099Y-91454998D01*
X88073301Y-91483996D01*
X83601098Y-95956200D01*
X83572100Y-95979998D01*
X83548302Y-96008996D01*
X83548301Y-96008997D01*
X83477126Y-96095723D01*
X83406554Y-96227753D01*
X83363098Y-96371014D01*
X83348424Y-96519999D01*
X83352101Y-96557331D01*
X83352100Y-103542331D01*
X83352101Y-103542341D01*
X83352100Y-107246288D01*
X83308163Y-107290225D01*
X83194895Y-107459743D01*
X83116874Y-107648101D01*
X83077100Y-107848060D01*
X68972100Y-107848060D01*
X68972100Y-107099999D01*
X70559028Y-107099999D01*
X70562100Y-107664249D01*
X70720850Y-107822999D01*
X71920100Y-107822999D01*
X71920100Y-107802999D01*
X72174100Y-107802999D01*
X72174100Y-107822999D01*
X73373350Y-107822999D01*
X73532100Y-107664249D01*
X73535172Y-107099999D01*
X73522912Y-106975517D01*
X73486602Y-106855819D01*
X73427637Y-106745505D01*
X73348285Y-106648814D01*
X73251594Y-106569462D01*
X73141280Y-106510497D01*
X73068720Y-106488486D01*
X73200575Y-106356631D01*
X73363090Y-106113410D01*
X73475032Y-105843157D01*
X73532100Y-105556259D01*
X73532100Y-105263739D01*
X73475032Y-104976841D01*
X73363090Y-104706588D01*
X73200575Y-104463367D01*
X72993732Y-104256524D01*
X72819340Y-104139999D01*
X72993732Y-104023474D01*
X73200575Y-103816631D01*
X73363090Y-103573410D01*
X73475032Y-103303157D01*
X73532100Y-103016259D01*
X73532100Y-102723739D01*
X73475032Y-102436841D01*
X73363090Y-102166588D01*
X73200575Y-101923367D01*
X72993732Y-101716524D01*
X72819340Y-101599999D01*
X72993732Y-101483474D01*
X73200575Y-101276631D01*
X73363090Y-101033410D01*
X73475032Y-100763157D01*
X73532100Y-100476259D01*
X73532100Y-100183739D01*
X73475032Y-99896841D01*
X73363090Y-99626588D01*
X73200575Y-99383367D01*
X72993732Y-99176524D01*
X72750511Y-99014009D01*
X72480258Y-98902067D01*
X72193360Y-98844999D01*
X71900840Y-98844999D01*
X71613942Y-98902067D01*
X71343689Y-99014009D01*
X71100468Y-99176524D01*
X70893625Y-99383367D01*
X70731110Y-99626588D01*
X70619168Y-99896841D01*
X70562100Y-100183739D01*
X70562100Y-100476259D01*
X70619168Y-100763157D01*
X70731110Y-101033410D01*
X70893625Y-101276631D01*
X71100468Y-101483474D01*
X71274860Y-101599999D01*
X71100468Y-101716524D01*
X70893625Y-101923367D01*
X70731110Y-102166588D01*
X70619168Y-102436841D01*
X70562100Y-102723739D01*
X70562100Y-103016259D01*
X70619168Y-103303157D01*
X70731110Y-103573410D01*
X70893625Y-103816631D01*
X71100468Y-104023474D01*
X71274860Y-104139999D01*
X71100468Y-104256524D01*
X70893625Y-104463367D01*
X70731110Y-104706588D01*
X70619168Y-104976841D01*
X70562100Y-105263739D01*
X70562100Y-105556259D01*
X70619168Y-105843157D01*
X70731110Y-106113410D01*
X70893625Y-106356631D01*
X71025480Y-106488486D01*
X70952920Y-106510497D01*
X70842606Y-106569462D01*
X70745915Y-106648814D01*
X70666563Y-106745505D01*
X70607598Y-106855819D01*
X70571288Y-106975517D01*
X70559028Y-107099999D01*
X68972100Y-107099999D01*
X68972100Y-86804418D01*
X110117100Y-86804418D01*
X110117100Y-87185580D01*
X110191461Y-87559418D01*
X110337325Y-87911565D01*
X110549087Y-88228490D01*
X110818609Y-88498012D01*
X111135534Y-88709774D01*
X111487681Y-88855638D01*
X111861519Y-88929999D01*
X112242681Y-88929999D01*
X112616519Y-88855638D01*
X112968666Y-88709774D01*
X113147569Y-88590235D01*
X120271941Y-88590235D01*
X120942100Y-89260394D01*
X121612259Y-88590235D01*
X121564952Y-88366651D01*
X121343584Y-88265762D01*
X121106787Y-88209999D01*
X120863662Y-88201504D01*
X120623551Y-88240604D01*
X120395682Y-88325797D01*
X120319248Y-88366651D01*
X120271941Y-88590235D01*
X113147569Y-88590235D01*
X113285591Y-88498012D01*
X113555113Y-88228490D01*
X113766875Y-87911565D01*
X113912739Y-87559418D01*
X113987100Y-87185580D01*
X113987100Y-86804418D01*
X113912739Y-86430580D01*
X113766875Y-86078433D01*
X113555113Y-85761508D01*
X113285591Y-85491986D01*
X112968666Y-85280224D01*
X112616519Y-85134360D01*
X112242681Y-85059999D01*
X111861519Y-85059999D01*
X111487681Y-85134360D01*
X111135534Y-85280224D01*
X110818609Y-85491986D01*
X110549087Y-85761508D01*
X110337325Y-86078433D01*
X110191461Y-86430580D01*
X110117100Y-86804418D01*
X68972100Y-86804418D01*
X68972100Y-82949171D01*
X69995586Y-82949171D01*
X69995586Y-83420829D01*
X70087602Y-83883425D01*
X70268097Y-84319181D01*
X70530137Y-84711350D01*
X70863650Y-85044863D01*
X71255819Y-85306903D01*
X71691575Y-85487398D01*
X72154171Y-85579414D01*
X72625829Y-85579414D01*
X73088425Y-85487398D01*
X73524181Y-85306903D01*
X73916350Y-85044863D01*
X74249863Y-84711350D01*
X74511903Y-84319181D01*
X74692398Y-83883425D01*
X74760333Y-83541890D01*
X75050619Y-83541890D01*
X75147943Y-83816251D01*
X75296922Y-84066354D01*
X75491831Y-84282587D01*
X75725180Y-84456640D01*
X75988001Y-84581824D01*
X76135210Y-84626475D01*
X76365100Y-84505154D01*
X76365100Y-83311999D01*
X75171286Y-83311999D01*
X75050619Y-83541890D01*
X74760333Y-83541890D01*
X74784414Y-83420829D01*
X74784414Y-82949171D01*
X74760334Y-82828108D01*
X75050619Y-82828108D01*
X75171286Y-83057999D01*
X76365100Y-83057999D01*
X76365100Y-81864844D01*
X76619100Y-81864844D01*
X76619100Y-83057999D01*
X76639100Y-83057999D01*
X76639100Y-83311999D01*
X76619100Y-83311999D01*
X76619100Y-84505154D01*
X76848990Y-84626475D01*
X76996199Y-84581824D01*
X77259020Y-84456640D01*
X77492369Y-84282587D01*
X77687278Y-84066354D01*
X77756905Y-83949465D01*
X77878625Y-84131631D01*
X78085468Y-84338474D01*
X78328689Y-84500989D01*
X78598942Y-84612931D01*
X78885840Y-84669999D01*
X79178360Y-84669999D01*
X79465258Y-84612931D01*
X79735511Y-84500989D01*
X79978732Y-84338474D01*
X80185575Y-84131631D01*
X80302100Y-83957239D01*
X80418625Y-84131631D01*
X80625468Y-84338474D01*
X80868689Y-84500989D01*
X81138942Y-84612931D01*
X81425840Y-84669999D01*
X81718360Y-84669999D01*
X82005258Y-84612931D01*
X82275511Y-84500989D01*
X82518732Y-84338474D01*
X82725575Y-84131631D01*
X82842100Y-83957239D01*
X82958625Y-84131631D01*
X83165468Y-84338474D01*
X83408689Y-84500989D01*
X83678942Y-84612931D01*
X83965840Y-84669999D01*
X84258360Y-84669999D01*
X84545258Y-84612931D01*
X84815511Y-84500989D01*
X85058732Y-84338474D01*
X85265575Y-84131631D01*
X85382100Y-83957239D01*
X85498625Y-84131631D01*
X85705468Y-84338474D01*
X85948689Y-84500989D01*
X86218942Y-84612931D01*
X86505840Y-84669999D01*
X86798360Y-84669999D01*
X87085258Y-84612931D01*
X87355511Y-84500989D01*
X87598732Y-84338474D01*
X87805575Y-84131631D01*
X87922100Y-83957239D01*
X88038625Y-84131631D01*
X88245468Y-84338474D01*
X88488689Y-84500989D01*
X88758942Y-84612931D01*
X89045840Y-84669999D01*
X89338360Y-84669999D01*
X89625258Y-84612931D01*
X89895511Y-84500989D01*
X90138732Y-84338474D01*
X90345575Y-84131631D01*
X90462100Y-83957239D01*
X90578625Y-84131631D01*
X90785468Y-84338474D01*
X91028689Y-84500989D01*
X91298942Y-84612931D01*
X91585840Y-84669999D01*
X91878360Y-84669999D01*
X92165258Y-84612931D01*
X92435511Y-84500989D01*
X92678732Y-84338474D01*
X92885575Y-84131631D01*
X93002100Y-83957239D01*
X93118625Y-84131631D01*
X93325468Y-84338474D01*
X93568689Y-84500989D01*
X93838942Y-84612931D01*
X94125840Y-84669999D01*
X94418360Y-84669999D01*
X94705258Y-84612931D01*
X94975511Y-84500989D01*
X95218732Y-84338474D01*
X95425575Y-84131631D01*
X95542100Y-83957239D01*
X95658625Y-84131631D01*
X95865468Y-84338474D01*
X96108689Y-84500989D01*
X96378942Y-84612931D01*
X96665840Y-84669999D01*
X96958360Y-84669999D01*
X97245258Y-84612931D01*
X97515511Y-84500989D01*
X97758732Y-84338474D01*
X97965575Y-84131631D01*
X98082100Y-83957239D01*
X98198625Y-84131631D01*
X98405468Y-84338474D01*
X98648689Y-84500989D01*
X98918942Y-84612931D01*
X99205840Y-84669999D01*
X99498360Y-84669999D01*
X99785258Y-84612931D01*
X100055511Y-84500989D01*
X100298732Y-84338474D01*
X100505575Y-84131631D01*
X100622100Y-83957239D01*
X100738625Y-84131631D01*
X100945468Y-84338474D01*
X101188689Y-84500989D01*
X101458942Y-84612931D01*
X101745840Y-84669999D01*
X102038360Y-84669999D01*
X102325258Y-84612931D01*
X102595511Y-84500989D01*
X102838732Y-84338474D01*
X103045575Y-84131631D01*
X103162100Y-83957239D01*
X103278625Y-84131631D01*
X103485468Y-84338474D01*
X103728689Y-84500989D01*
X103998942Y-84612931D01*
X104285840Y-84669999D01*
X104578360Y-84669999D01*
X104865258Y-84612931D01*
X105135511Y-84500989D01*
X105378732Y-84338474D01*
X105585575Y-84131631D01*
X105702100Y-83957239D01*
X105818625Y-84131631D01*
X106025468Y-84338474D01*
X106268689Y-84500989D01*
X106538942Y-84612931D01*
X106825840Y-84669999D01*
X107118360Y-84669999D01*
X107405258Y-84612931D01*
X107675511Y-84500989D01*
X107918732Y-84338474D01*
X108125575Y-84131631D01*
X108242100Y-83957239D01*
X108358625Y-84131631D01*
X108565468Y-84338474D01*
X108808689Y-84500989D01*
X109078942Y-84612931D01*
X109365840Y-84669999D01*
X109658360Y-84669999D01*
X109945258Y-84612931D01*
X110215511Y-84500989D01*
X110458732Y-84338474D01*
X110665575Y-84131631D01*
X110782100Y-83957239D01*
X110898625Y-84131631D01*
X111105468Y-84338474D01*
X111348689Y-84500989D01*
X111618942Y-84612931D01*
X111905840Y-84669999D01*
X112198360Y-84669999D01*
X112485258Y-84612931D01*
X112755511Y-84500989D01*
X112998732Y-84338474D01*
X113130587Y-84206619D01*
X113152598Y-84279179D01*
X113211563Y-84389493D01*
X113290915Y-84486184D01*
X113387606Y-84565536D01*
X113497920Y-84624501D01*
X113617618Y-84660811D01*
X113742100Y-84673071D01*
X114306350Y-84669999D01*
X114465100Y-84511249D01*
X114465100Y-83311999D01*
X114719100Y-83311999D01*
X114719100Y-84511249D01*
X114877850Y-84669999D01*
X115442100Y-84673071D01*
X115566582Y-84660811D01*
X115686280Y-84624501D01*
X115796594Y-84565536D01*
X115893285Y-84486184D01*
X115972637Y-84389493D01*
X116031602Y-84279179D01*
X116067912Y-84159481D01*
X116080172Y-84034999D01*
X116077100Y-83470749D01*
X115918350Y-83311999D01*
X114719100Y-83311999D01*
X114465100Y-83311999D01*
X114445100Y-83311999D01*
X114445100Y-83057999D01*
X114465100Y-83057999D01*
X114465100Y-81858749D01*
X114719100Y-81858749D01*
X114719100Y-83057999D01*
X115918350Y-83057999D01*
X116077100Y-82899249D01*
X116080172Y-82334999D01*
X116067912Y-82210517D01*
X116031602Y-82090819D01*
X115972637Y-81980505D01*
X115893285Y-81883814D01*
X115796594Y-81804462D01*
X115686280Y-81745497D01*
X115566582Y-81709187D01*
X115442100Y-81696927D01*
X114877850Y-81699999D01*
X114719100Y-81858749D01*
X114465100Y-81858749D01*
X114306350Y-81699999D01*
X113742100Y-81696927D01*
X113617618Y-81709187D01*
X113497920Y-81745497D01*
X113387606Y-81804462D01*
X113290915Y-81883814D01*
X113211563Y-81980505D01*
X113152598Y-82090819D01*
X113130587Y-82163379D01*
X112998732Y-82031524D01*
X112755511Y-81869009D01*
X112485258Y-81757067D01*
X112198360Y-81699999D01*
X111905840Y-81699999D01*
X111618942Y-81757067D01*
X111348689Y-81869009D01*
X111105468Y-82031524D01*
X110898625Y-82238367D01*
X110782100Y-82412759D01*
X110665575Y-82238367D01*
X110458732Y-82031524D01*
X110215511Y-81869009D01*
X109945258Y-81757067D01*
X109658360Y-81699999D01*
X109365840Y-81699999D01*
X109078942Y-81757067D01*
X108808689Y-81869009D01*
X108565468Y-82031524D01*
X108358625Y-82238367D01*
X108242100Y-82412759D01*
X108125575Y-82238367D01*
X107918732Y-82031524D01*
X107675511Y-81869009D01*
X107405258Y-81757067D01*
X107118360Y-81699999D01*
X106825840Y-81699999D01*
X106538942Y-81757067D01*
X106268689Y-81869009D01*
X106025468Y-82031524D01*
X105818625Y-82238367D01*
X105702100Y-82412759D01*
X105585575Y-82238367D01*
X105378732Y-82031524D01*
X105135511Y-81869009D01*
X104865258Y-81757067D01*
X104578360Y-81699999D01*
X104285840Y-81699999D01*
X103998942Y-81757067D01*
X103728689Y-81869009D01*
X103485468Y-82031524D01*
X103278625Y-82238367D01*
X103162100Y-82412759D01*
X103045575Y-82238367D01*
X102838732Y-82031524D01*
X102595511Y-81869009D01*
X102325258Y-81757067D01*
X102038360Y-81699999D01*
X101745840Y-81699999D01*
X101458942Y-81757067D01*
X101188689Y-81869009D01*
X100945468Y-82031524D01*
X100738625Y-82238367D01*
X100622100Y-82412759D01*
X100505575Y-82238367D01*
X100298732Y-82031524D01*
X100055511Y-81869009D01*
X99785258Y-81757067D01*
X99498360Y-81699999D01*
X99205840Y-81699999D01*
X98918942Y-81757067D01*
X98648689Y-81869009D01*
X98405468Y-82031524D01*
X98198625Y-82238367D01*
X98082100Y-82412759D01*
X97965575Y-82238367D01*
X97758732Y-82031524D01*
X97515511Y-81869009D01*
X97245258Y-81757067D01*
X96958360Y-81699999D01*
X96665840Y-81699999D01*
X96378942Y-81757067D01*
X96108689Y-81869009D01*
X95865468Y-82031524D01*
X95658625Y-82238367D01*
X95542100Y-82412759D01*
X95425575Y-82238367D01*
X95218732Y-82031524D01*
X94975511Y-81869009D01*
X94705258Y-81757067D01*
X94418360Y-81699999D01*
X94125840Y-81699999D01*
X93838942Y-81757067D01*
X93568689Y-81869009D01*
X93325468Y-82031524D01*
X93118625Y-82238367D01*
X93002100Y-82412759D01*
X92885575Y-82238367D01*
X92678732Y-82031524D01*
X92435511Y-81869009D01*
X92165258Y-81757067D01*
X91878360Y-81699999D01*
X91585840Y-81699999D01*
X91298942Y-81757067D01*
X91028689Y-81869009D01*
X90785468Y-82031524D01*
X90578625Y-82238367D01*
X90462100Y-82412759D01*
X90345575Y-82238367D01*
X90138732Y-82031524D01*
X89895511Y-81869009D01*
X89625258Y-81757067D01*
X89338360Y-81699999D01*
X89045840Y-81699999D01*
X88758942Y-81757067D01*
X88488689Y-81869009D01*
X88245468Y-82031524D01*
X88038625Y-82238367D01*
X87922100Y-82412759D01*
X87805575Y-82238367D01*
X87598732Y-82031524D01*
X87355511Y-81869009D01*
X87085258Y-81757067D01*
X86798360Y-81699999D01*
X86505840Y-81699999D01*
X86218942Y-81757067D01*
X85948689Y-81869009D01*
X85705468Y-82031524D01*
X85498625Y-82238367D01*
X85382100Y-82412759D01*
X85265575Y-82238367D01*
X85058732Y-82031524D01*
X84815511Y-81869009D01*
X84545258Y-81757067D01*
X84258360Y-81699999D01*
X83965840Y-81699999D01*
X83678942Y-81757067D01*
X83408689Y-81869009D01*
X83165468Y-82031524D01*
X82958625Y-82238367D01*
X82842100Y-82412759D01*
X82725575Y-82238367D01*
X82518732Y-82031524D01*
X82275511Y-81869009D01*
X82005258Y-81757067D01*
X81718360Y-81699999D01*
X81425840Y-81699999D01*
X81138942Y-81757067D01*
X80868689Y-81869009D01*
X80625468Y-82031524D01*
X80418625Y-82238367D01*
X80302100Y-82412759D01*
X80185575Y-82238367D01*
X79978732Y-82031524D01*
X79735511Y-81869009D01*
X79465258Y-81757067D01*
X79178360Y-81699999D01*
X78885840Y-81699999D01*
X78598942Y-81757067D01*
X78328689Y-81869009D01*
X78085468Y-82031524D01*
X77878625Y-82238367D01*
X77756905Y-82420533D01*
X77687278Y-82303644D01*
X77492369Y-82087411D01*
X77259020Y-81913358D01*
X76996199Y-81788174D01*
X76848990Y-81743523D01*
X76619100Y-81864844D01*
X76365100Y-81864844D01*
X76135210Y-81743523D01*
X75988001Y-81788174D01*
X75725180Y-81913358D01*
X75491831Y-82087411D01*
X75296922Y-82303644D01*
X75147943Y-82553747D01*
X75050619Y-82828108D01*
X74760334Y-82828108D01*
X74692398Y-82486575D01*
X74511903Y-82050819D01*
X74249863Y-81658650D01*
X73916350Y-81325137D01*
X73524181Y-81063097D01*
X73088425Y-80882602D01*
X72625829Y-80790586D01*
X72154171Y-80790586D01*
X71691575Y-80882602D01*
X71255819Y-81063097D01*
X70863650Y-81325137D01*
X70530137Y-81658650D01*
X70268097Y-82050819D01*
X70087602Y-82486575D01*
X69995586Y-82949171D01*
X68972100Y-82949171D01*
X68972100Y-80694200D01*
X150814099Y-80694200D01*
X150814100Y-109234686D01*
G37*
X150814100Y-109234686D02*
X150814099Y-109234696D01*
X150814100Y-116739999D01*
X68972100Y-116739999D01*
X68972100Y-114013371D01*
X69995586Y-114013371D01*
X69995586Y-114485029D01*
X70087602Y-114947625D01*
X70268097Y-115383381D01*
X70530137Y-115775550D01*
X70863650Y-116109063D01*
X71255819Y-116371103D01*
X71691575Y-116551598D01*
X72154171Y-116643614D01*
X72625829Y-116643614D01*
X73088425Y-116551598D01*
X73524181Y-116371103D01*
X73916350Y-116109063D01*
X74249863Y-115775550D01*
X74511903Y-115383381D01*
X74692398Y-114947625D01*
X74784414Y-114485029D01*
X74784414Y-114013371D01*
X74692398Y-113550775D01*
X74511903Y-113115019D01*
X74249863Y-112722850D01*
X73916350Y-112389337D01*
X73524181Y-112127297D01*
X73088425Y-111946802D01*
X72625829Y-111854786D01*
X72154171Y-111854786D01*
X71691575Y-111946802D01*
X71255819Y-112127297D01*
X70863650Y-112389337D01*
X70530137Y-112722850D01*
X70268097Y-113115019D01*
X70087602Y-113550775D01*
X69995586Y-114013371D01*
X68972100Y-114013371D01*
X68972100Y-108799999D01*
X70559028Y-108799999D01*
X70571288Y-108924481D01*
X70607598Y-109044179D01*
X70666563Y-109154493D01*
X70745915Y-109251184D01*
X70842606Y-109330536D01*
X70952920Y-109389501D01*
X71072618Y-109425811D01*
X71197100Y-109438071D01*
X71761350Y-109434999D01*
X71920100Y-109276249D01*
X71920100Y-108076999D01*
X72174100Y-108076999D01*
X72174100Y-109276249D01*
X72332850Y-109434999D01*
X72897100Y-109438071D01*
X73021582Y-109425811D01*
X73141280Y-109389501D01*
X73251594Y-109330536D01*
X73348285Y-109251184D01*
X73427637Y-109154493D01*
X73486602Y-109044179D01*
X73522912Y-108924481D01*
X73535172Y-108799999D01*
X73532100Y-108235749D01*
X73373350Y-108076999D01*
X72174100Y-108076999D01*
X71920100Y-108076999D01*
X70720850Y-108076999D01*
X70562100Y-108235749D01*
X70559028Y-108799999D01*
X68972100Y-108799999D01*
X68972100Y-107848060D01*
X83077100Y-107848060D01*
X83077100Y-108051938D01*
X83116874Y-108251897D01*
X83194895Y-108440255D01*
X83308163Y-108609773D01*
X83452326Y-108753936D01*
X83621844Y-108867204D01*
X83810202Y-108945225D01*
X84010161Y-108984999D01*
X84214039Y-108984999D01*
X84413998Y-108945225D01*
X84602356Y-108867204D01*
X84771874Y-108753936D01*
X84916037Y-108609773D01*
X85029305Y-108440255D01*
X85107326Y-108251897D01*
X85147100Y-108051938D01*
X85147100Y-107848060D01*
X85107326Y-107648101D01*
X85029305Y-107459743D01*
X84916037Y-107290225D01*
X84872100Y-107246288D01*
X84872100Y-98283664D01*
X90297100Y-98283664D01*
X90297100Y-98566334D01*
X90352247Y-98843573D01*
X90460420Y-99104726D01*
X90617463Y-99339758D01*
X90817341Y-99539636D01*
X91052373Y-99696679D01*
X91313526Y-99804852D01*
X91590765Y-99859999D01*
X91873435Y-99859999D01*
X92150674Y-99804852D01*
X92411827Y-99696679D01*
X92646859Y-99539636D01*
X92846737Y-99339758D01*
X93002100Y-99107240D01*
X93157463Y-99339758D01*
X93357341Y-99539636D01*
X93592373Y-99696679D01*
X93853526Y-99804852D01*
X94130765Y-99859999D01*
X94413435Y-99859999D01*
X94690674Y-99804852D01*
X94951827Y-99696679D01*
X95186859Y-99539636D01*
X95386737Y-99339758D01*
X95542100Y-99107240D01*
X95697463Y-99339758D01*
X95897341Y-99539636D01*
X96132373Y-99696679D01*
X96393526Y-99804852D01*
X96670765Y-99859999D01*
X96953435Y-99859999D01*
X97230674Y-99804852D01*
X97491827Y-99696679D01*
X97726859Y-99539636D01*
X97926737Y-99339758D01*
X98082100Y-99107240D01*
X98237463Y-99339758D01*
X98437341Y-99539636D01*
X98672373Y-99696679D01*
X98933526Y-99804852D01*
X99210765Y-99859999D01*
X99493435Y-99859999D01*
X99770674Y-99804852D01*
X100031827Y-99696679D01*
X100266859Y-99539636D01*
X100466737Y-99339758D01*
X100622100Y-99107240D01*
X100777463Y-99339758D01*
X100977341Y-99539636D01*
X101212373Y-99696679D01*
X101473526Y-99804852D01*
X101750765Y-99859999D01*
X102033435Y-99859999D01*
X102310674Y-99804852D01*
X102571827Y-99696679D01*
X102806859Y-99539636D01*
X103006737Y-99339758D01*
X103162100Y-99107240D01*
X103317463Y-99339758D01*
X103517341Y-99539636D01*
X103752373Y-99696679D01*
X104013526Y-99804852D01*
X104290765Y-99859999D01*
X104573435Y-99859999D01*
X104850674Y-99804852D01*
X105111827Y-99696679D01*
X105346859Y-99539636D01*
X105546737Y-99339758D01*
X105702100Y-99107240D01*
X105857463Y-99339758D01*
X106057341Y-99539636D01*
X106292373Y-99696679D01*
X106553526Y-99804852D01*
X106830765Y-99859999D01*
X107113435Y-99859999D01*
X107390674Y-99804852D01*
X107651827Y-99696679D01*
X107886859Y-99539636D01*
X108086737Y-99339758D01*
X108242100Y-99107240D01*
X108397463Y-99339758D01*
X108597341Y-99539636D01*
X108832373Y-99696679D01*
X109093526Y-99804852D01*
X109370765Y-99859999D01*
X109653435Y-99859999D01*
X109930674Y-99804852D01*
X110191827Y-99696679D01*
X110426859Y-99539636D01*
X110626737Y-99339758D01*
X110782100Y-99107240D01*
X110937463Y-99339758D01*
X111137341Y-99539636D01*
X111372373Y-99696679D01*
X111633526Y-99804852D01*
X111910765Y-99859999D01*
X112193435Y-99859999D01*
X112470674Y-99804852D01*
X112731827Y-99696679D01*
X112966859Y-99539636D01*
X113166737Y-99339758D01*
X113322100Y-99107240D01*
X113477463Y-99339758D01*
X113677341Y-99539636D01*
X113912373Y-99696679D01*
X114173526Y-99804852D01*
X114450765Y-99859999D01*
X114733435Y-99859999D01*
X115010674Y-99804852D01*
X115271827Y-99696679D01*
X115506859Y-99539636D01*
X115706737Y-99339758D01*
X115862100Y-99107240D01*
X116017463Y-99339758D01*
X116217341Y-99539636D01*
X116452373Y-99696679D01*
X116713526Y-99804852D01*
X116990765Y-99859999D01*
X117273435Y-99859999D01*
X117550674Y-99804852D01*
X117811827Y-99696679D01*
X117812355Y-99696326D01*
X117823554Y-99733245D01*
X117894126Y-99865275D01*
X117920032Y-99896841D01*
X117989099Y-99981000D01*
X118018102Y-100004803D01*
X118912101Y-100898802D01*
X118912100Y-112446956D01*
X118757341Y-112550362D01*
X118557463Y-112750240D01*
X118402100Y-112982758D01*
X118246737Y-112750240D01*
X118046859Y-112550362D01*
X117811827Y-112393319D01*
X117550674Y-112285146D01*
X117273435Y-112229999D01*
X116990765Y-112229999D01*
X116713526Y-112285146D01*
X116452373Y-112393319D01*
X116217341Y-112550362D01*
X116017463Y-112750240D01*
X115862100Y-112982758D01*
X115706737Y-112750240D01*
X115506859Y-112550362D01*
X115271827Y-112393319D01*
X115010674Y-112285146D01*
X114733435Y-112229999D01*
X114450765Y-112229999D01*
X114173526Y-112285146D01*
X113912373Y-112393319D01*
X113677341Y-112550362D01*
X113477463Y-112750240D01*
X113322100Y-112982758D01*
X113166737Y-112750240D01*
X112966859Y-112550362D01*
X112731827Y-112393319D01*
X112470674Y-112285146D01*
X112193435Y-112229999D01*
X111910765Y-112229999D01*
X111633526Y-112285146D01*
X111372373Y-112393319D01*
X111137341Y-112550362D01*
X110937463Y-112750240D01*
X110782100Y-112982758D01*
X110626737Y-112750240D01*
X110426859Y-112550362D01*
X110191827Y-112393319D01*
X110145100Y-112373964D01*
X110145100Y-107764710D01*
X110189037Y-107720773D01*
X110302305Y-107551255D01*
X110380326Y-107362897D01*
X110420100Y-107162938D01*
X110420100Y-106959060D01*
X110380326Y-106759101D01*
X110302305Y-106570743D01*
X110189037Y-106401225D01*
X110044874Y-106257062D01*
X109875356Y-106143794D01*
X109686998Y-106065773D01*
X109487039Y-106025999D01*
X109283161Y-106025999D01*
X109083202Y-106065773D01*
X108894844Y-106143794D01*
X108725326Y-106257062D01*
X108581163Y-106401225D01*
X108467895Y-106570743D01*
X108389874Y-106759101D01*
X108350100Y-106959060D01*
X108350100Y-107162938D01*
X108389874Y-107362897D01*
X108467895Y-107551255D01*
X108581163Y-107720773D01*
X108625100Y-107764710D01*
X108625101Y-112531814D01*
X108597341Y-112550362D01*
X108397463Y-112750240D01*
X108242100Y-112982758D01*
X108086737Y-112750240D01*
X107886859Y-112550362D01*
X107651827Y-112393319D01*
X107390674Y-112285146D01*
X107113435Y-112229999D01*
X106830765Y-112229999D01*
X106553526Y-112285146D01*
X106292373Y-112393319D01*
X106057341Y-112550362D01*
X105857463Y-112750240D01*
X105702100Y-112982758D01*
X105546737Y-112750240D01*
X105346859Y-112550362D01*
X105111827Y-112393319D01*
X104850674Y-112285146D01*
X104573435Y-112229999D01*
X104290765Y-112229999D01*
X104013526Y-112285146D01*
X103752373Y-112393319D01*
X103517341Y-112550362D01*
X103317463Y-112750240D01*
X103162100Y-112982758D01*
X103006737Y-112750240D01*
X102806859Y-112550362D01*
X102571827Y-112393319D01*
X102310674Y-112285146D01*
X102033435Y-112229999D01*
X101750765Y-112229999D01*
X101473526Y-112285146D01*
X101212373Y-112393319D01*
X100977341Y-112550362D01*
X100777463Y-112750240D01*
X100622100Y-112982758D01*
X100466737Y-112750240D01*
X100266859Y-112550362D01*
X100031827Y-112393319D01*
X99770674Y-112285146D01*
X99493435Y-112229999D01*
X99210765Y-112229999D01*
X98933526Y-112285146D01*
X98672373Y-112393319D01*
X98437341Y-112550362D01*
X98237463Y-112750240D01*
X98082100Y-112982758D01*
X97926737Y-112750240D01*
X97726859Y-112550362D01*
X97491827Y-112393319D01*
X97230674Y-112285146D01*
X96953435Y-112229999D01*
X96670765Y-112229999D01*
X96393526Y-112285146D01*
X96132373Y-112393319D01*
X95897341Y-112550362D01*
X95697463Y-112750240D01*
X95542100Y-112982758D01*
X95386737Y-112750240D01*
X95186859Y-112550362D01*
X94951827Y-112393319D01*
X94690674Y-112285146D01*
X94413435Y-112229999D01*
X94130765Y-112229999D01*
X93853526Y-112285146D01*
X93592373Y-112393319D01*
X93357341Y-112550362D01*
X93157463Y-112750240D01*
X93002100Y-112982758D01*
X92846737Y-112750240D01*
X92646859Y-112550362D01*
X92411827Y-112393319D01*
X92150674Y-112285146D01*
X91873435Y-112229999D01*
X91590765Y-112229999D01*
X91313526Y-112285146D01*
X91052373Y-112393319D01*
X90817341Y-112550362D01*
X90617463Y-112750240D01*
X90460420Y-112985272D01*
X90352247Y-113246425D01*
X90297100Y-113523664D01*
X90297100Y-113806334D01*
X90352247Y-114083573D01*
X90460420Y-114344726D01*
X90617463Y-114579758D01*
X90817341Y-114779636D01*
X91052373Y-114936679D01*
X91313526Y-115044852D01*
X91590765Y-115099999D01*
X91873435Y-115099999D01*
X92150674Y-115044852D01*
X92411827Y-114936679D01*
X92646859Y-114779636D01*
X92846737Y-114579758D01*
X93002100Y-114347240D01*
X93157463Y-114579758D01*
X93357341Y-114779636D01*
X93592373Y-114936679D01*
X93853526Y-115044852D01*
X94130765Y-115099999D01*
X94413435Y-115099999D01*
X94690674Y-115044852D01*
X94951827Y-114936679D01*
X95186859Y-114779636D01*
X95386737Y-114579758D01*
X95542100Y-114347240D01*
X95697463Y-114579758D01*
X95897341Y-114779636D01*
X96132373Y-114936679D01*
X96393526Y-115044852D01*
X96670765Y-115099999D01*
X96953435Y-115099999D01*
X97230674Y-115044852D01*
X97491827Y-114936679D01*
X97726859Y-114779636D01*
X97926737Y-114579758D01*
X98082100Y-114347240D01*
X98237463Y-114579758D01*
X98437341Y-114779636D01*
X98672373Y-114936679D01*
X98933526Y-115044852D01*
X99210765Y-115099999D01*
X99493435Y-115099999D01*
X99770674Y-115044852D01*
X100031827Y-114936679D01*
X100266859Y-114779636D01*
X100466737Y-114579758D01*
X100622100Y-114347240D01*
X100777463Y-114579758D01*
X100977341Y-114779636D01*
X101212373Y-114936679D01*
X101473526Y-115044852D01*
X101750765Y-115099999D01*
X102033435Y-115099999D01*
X102310674Y-115044852D01*
X102571827Y-114936679D01*
X102806859Y-114779636D01*
X103006737Y-114579758D01*
X103162100Y-114347240D01*
X103317463Y-114579758D01*
X103517341Y-114779636D01*
X103752373Y-114936679D01*
X104013526Y-115044852D01*
X104290765Y-115099999D01*
X104573435Y-115099999D01*
X104850674Y-115044852D01*
X105111827Y-114936679D01*
X105346859Y-114779636D01*
X105546737Y-114579758D01*
X105702100Y-114347240D01*
X105857463Y-114579758D01*
X106057341Y-114779636D01*
X106292373Y-114936679D01*
X106553526Y-115044852D01*
X106830765Y-115099999D01*
X107113435Y-115099999D01*
X107390674Y-115044852D01*
X107651827Y-114936679D01*
X107886859Y-114779636D01*
X108086737Y-114579758D01*
X108242100Y-114347240D01*
X108397463Y-114579758D01*
X108597341Y-114779636D01*
X108832373Y-114936679D01*
X109093526Y-115044852D01*
X109370765Y-115099999D01*
X109653435Y-115099999D01*
X109930674Y-115044852D01*
X110191827Y-114936679D01*
X110426859Y-114779636D01*
X110626737Y-114579758D01*
X110782100Y-114347240D01*
X110937463Y-114579758D01*
X111137341Y-114779636D01*
X111372373Y-114936679D01*
X111633526Y-115044852D01*
X111910765Y-115099999D01*
X112193435Y-115099999D01*
X112470674Y-115044852D01*
X112731827Y-114936679D01*
X112966859Y-114779636D01*
X113166737Y-114579758D01*
X113322100Y-114347240D01*
X113477463Y-114579758D01*
X113677341Y-114779636D01*
X113912373Y-114936679D01*
X114173526Y-115044852D01*
X114450765Y-115099999D01*
X114733435Y-115099999D01*
X115010674Y-115044852D01*
X115271827Y-114936679D01*
X115506859Y-114779636D01*
X115706737Y-114579758D01*
X115862100Y-114347240D01*
X116017463Y-114579758D01*
X116217341Y-114779636D01*
X116452373Y-114936679D01*
X116713526Y-115044852D01*
X116990765Y-115099999D01*
X117273435Y-115099999D01*
X117550674Y-115044852D01*
X117811827Y-114936679D01*
X118046859Y-114779636D01*
X118246737Y-114579758D01*
X118402100Y-114347240D01*
X118557463Y-114579758D01*
X118757341Y-114779636D01*
X118992373Y-114936679D01*
X119253526Y-115044852D01*
X119530765Y-115099999D01*
X119813435Y-115099999D01*
X120090674Y-115044852D01*
X120351827Y-114936679D01*
X120586859Y-114779636D01*
X120786737Y-114579758D01*
X120942100Y-114347240D01*
X121097463Y-114579758D01*
X121297341Y-114779636D01*
X121532373Y-114936679D01*
X121793526Y-115044852D01*
X122070765Y-115099999D01*
X122353435Y-115099999D01*
X122630674Y-115044852D01*
X122891827Y-114936679D01*
X123126859Y-114779636D01*
X123326737Y-114579758D01*
X123483780Y-114344726D01*
X123488167Y-114334134D01*
X123599715Y-114520130D01*
X123788686Y-114728518D01*
X124014680Y-114896036D01*
X124269013Y-115016245D01*
X124403061Y-115056903D01*
X124625100Y-114934914D01*
X124625100Y-113791999D01*
X124605100Y-113791999D01*
X124605100Y-113537999D01*
X124625100Y-113537999D01*
X124625100Y-112395084D01*
X124879100Y-112395084D01*
X124879100Y-113537999D01*
X124899100Y-113537999D01*
X124899100Y-113791999D01*
X124879100Y-113791999D01*
X124879100Y-114934914D01*
X125101139Y-115056903D01*
X125235187Y-115016245D01*
X125489520Y-114896036D01*
X125715514Y-114728518D01*
X125904485Y-114520130D01*
X126016033Y-114334134D01*
X126020420Y-114344726D01*
X126177463Y-114579758D01*
X126377341Y-114779636D01*
X126612373Y-114936679D01*
X126873526Y-115044852D01*
X127150765Y-115099999D01*
X127433435Y-115099999D01*
X127710674Y-115044852D01*
X127971827Y-114936679D01*
X128206859Y-114779636D01*
X128406737Y-114579758D01*
X128563780Y-114344726D01*
X128671953Y-114083573D01*
X128685917Y-114013371D01*
X145001785Y-114013371D01*
X145001785Y-114485029D01*
X145093801Y-114947625D01*
X145274296Y-115383381D01*
X145536336Y-115775550D01*
X145869849Y-116109063D01*
X146262018Y-116371103D01*
X146697774Y-116551598D01*
X147160370Y-116643614D01*
X147632028Y-116643614D01*
X148094624Y-116551598D01*
X148530380Y-116371103D01*
X148922549Y-116109063D01*
X149256062Y-115775550D01*
X149518102Y-115383381D01*
X149698597Y-114947625D01*
X149790613Y-114485029D01*
X149790613Y-114013371D01*
X149698597Y-113550775D01*
X149518102Y-113115019D01*
X149256062Y-112722850D01*
X148922549Y-112389337D01*
X148530380Y-112127297D01*
X148094624Y-111946802D01*
X147632028Y-111854786D01*
X147160370Y-111854786D01*
X146697774Y-111946802D01*
X146262018Y-112127297D01*
X145869849Y-112389337D01*
X145536336Y-112722850D01*
X145274296Y-113115019D01*
X145093801Y-113550775D01*
X145001785Y-114013371D01*
X128685917Y-114013371D01*
X128727100Y-113806334D01*
X128727100Y-113523664D01*
X128671953Y-113246425D01*
X128563780Y-112985272D01*
X128406737Y-112750240D01*
X128206859Y-112550362D01*
X127971827Y-112393319D01*
X127710674Y-112285146D01*
X127433435Y-112229999D01*
X127150765Y-112229999D01*
X126873526Y-112285146D01*
X126612373Y-112393319D01*
X126377341Y-112550362D01*
X126177463Y-112750240D01*
X126020420Y-112985272D01*
X126016033Y-112995864D01*
X125904485Y-112809868D01*
X125715514Y-112601480D01*
X125489520Y-112433962D01*
X125235187Y-112313753D01*
X125101139Y-112273095D01*
X124879100Y-112395084D01*
X124625100Y-112395084D01*
X124403061Y-112273095D01*
X124269013Y-112313753D01*
X124014680Y-112433962D01*
X123788686Y-112601480D01*
X123599715Y-112809868D01*
X123488167Y-112995864D01*
X123483780Y-112985272D01*
X123326737Y-112750240D01*
X123126859Y-112550362D01*
X122891827Y-112393319D01*
X122630674Y-112285146D01*
X122353435Y-112229999D01*
X122070765Y-112229999D01*
X121793526Y-112285146D01*
X121532373Y-112393319D01*
X121297341Y-112550362D01*
X121097463Y-112750240D01*
X120942100Y-112982758D01*
X120786737Y-112750240D01*
X120586859Y-112550362D01*
X120432100Y-112446956D01*
X120432100Y-109708739D01*
X146762100Y-109708739D01*
X146762100Y-110001259D01*
X146819168Y-110288157D01*
X146931110Y-110558410D01*
X147093625Y-110801631D01*
X147300468Y-111008474D01*
X147543689Y-111170989D01*
X147813942Y-111282931D01*
X148100840Y-111339999D01*
X148393360Y-111339999D01*
X148680258Y-111282931D01*
X148950511Y-111170989D01*
X149193732Y-111008474D01*
X149400575Y-110801631D01*
X149563090Y-110558410D01*
X149675032Y-110288157D01*
X149732100Y-110001259D01*
X149732100Y-109708739D01*
X149675032Y-109421841D01*
X149563090Y-109151588D01*
X149400575Y-108908367D01*
X149193732Y-108701524D01*
X149011566Y-108579804D01*
X149128455Y-108510177D01*
X149344688Y-108315268D01*
X149518741Y-108081919D01*
X149643925Y-107819098D01*
X149688576Y-107671889D01*
X149567255Y-107441999D01*
X148374100Y-107441999D01*
X148374100Y-107461999D01*
X148120100Y-107461999D01*
X148120100Y-107441999D01*
X146926945Y-107441999D01*
X146805624Y-107671889D01*
X146850275Y-107819098D01*
X146975459Y-108081919D01*
X147149512Y-108315268D01*
X147365745Y-108510177D01*
X147482634Y-108579804D01*
X147300468Y-108701524D01*
X147093625Y-108908367D01*
X146931110Y-109151588D01*
X146819168Y-109421841D01*
X146762100Y-109708739D01*
X120432100Y-109708739D01*
X120432100Y-103924999D01*
X146759028Y-103924999D01*
X146759028Y-105624999D01*
X146771288Y-105749481D01*
X146807598Y-105869179D01*
X146866563Y-105979493D01*
X146945915Y-106076184D01*
X147042606Y-106155536D01*
X147152920Y-106214501D01*
X147233566Y-106238965D01*
X147149512Y-106314730D01*
X146975459Y-106548079D01*
X146850275Y-106810900D01*
X146805624Y-106958109D01*
X146926945Y-107187999D01*
X148120100Y-107187999D01*
X148120100Y-107167999D01*
X148374100Y-107167999D01*
X148374100Y-107187999D01*
X149567255Y-107187999D01*
X149688576Y-106958109D01*
X149643925Y-106810900D01*
X149518741Y-106548079D01*
X149344688Y-106314730D01*
X149260634Y-106238965D01*
X149341280Y-106214501D01*
X149451594Y-106155536D01*
X149548285Y-106076184D01*
X149627637Y-105979493D01*
X149686602Y-105869179D01*
X149722912Y-105749481D01*
X149735172Y-105624999D01*
X149735172Y-103924999D01*
X149722912Y-103800517D01*
X149686602Y-103680819D01*
X149627637Y-103570505D01*
X149548285Y-103473814D01*
X149451594Y-103394462D01*
X149341280Y-103335497D01*
X149221582Y-103299187D01*
X149097100Y-103286927D01*
X147397100Y-103286927D01*
X147272618Y-103299187D01*
X147152920Y-103335497D01*
X147042606Y-103394462D01*
X146945915Y-103473814D01*
X146866563Y-103570505D01*
X146807598Y-103680819D01*
X146771288Y-103800517D01*
X146759028Y-103924999D01*
X120432100Y-103924999D01*
X120432100Y-100621321D01*
X120435776Y-100583998D01*
X120432100Y-100546675D01*
X120432100Y-100546666D01*
X120421103Y-100435013D01*
X120377646Y-100291752D01*
X120339827Y-100220999D01*
X120307074Y-100159722D01*
X120235899Y-100072996D01*
X120212101Y-100043998D01*
X120183103Y-100020200D01*
X119929409Y-99766506D01*
X120021139Y-99816903D01*
X120155187Y-99776245D01*
X120409520Y-99656036D01*
X120635514Y-99488518D01*
X120824485Y-99280130D01*
X120936033Y-99094134D01*
X120940420Y-99104726D01*
X121097463Y-99339758D01*
X121297341Y-99539636D01*
X121532373Y-99696679D01*
X121793526Y-99804852D01*
X122070765Y-99859999D01*
X122353435Y-99859999D01*
X122577102Y-99815508D01*
X122577102Y-99906195D01*
X121537299Y-100945999D01*
X121475161Y-100945999D01*
X121275202Y-100985773D01*
X121086844Y-101063794D01*
X120917326Y-101177062D01*
X120773163Y-101321225D01*
X120659895Y-101490743D01*
X120581874Y-101679101D01*
X120542100Y-101879060D01*
X120542100Y-102082938D01*
X120581874Y-102282897D01*
X120659895Y-102471255D01*
X120773163Y-102640773D01*
X120917326Y-102784936D01*
X121086844Y-102898204D01*
X121275202Y-102976225D01*
X121475161Y-103015999D01*
X121679039Y-103015999D01*
X121878998Y-102976225D01*
X122067356Y-102898204D01*
X122236874Y-102784936D01*
X122381037Y-102640773D01*
X122494305Y-102471255D01*
X122572326Y-102282897D01*
X122612100Y-102082938D01*
X122612100Y-102020800D01*
X123848104Y-100784797D01*
X123877102Y-100760999D01*
X123972075Y-100645274D01*
X124042647Y-100513245D01*
X124086104Y-100369984D01*
X124097101Y-100258331D01*
X124097101Y-100258322D01*
X124100777Y-100220999D01*
X124097101Y-100183676D01*
X124097101Y-99706922D01*
X124333526Y-99804852D01*
X124610765Y-99859999D01*
X124893435Y-99859999D01*
X125170674Y-99804852D01*
X125431827Y-99696679D01*
X125666859Y-99539636D01*
X125865457Y-99341038D01*
X125866288Y-99349481D01*
X125902598Y-99469179D01*
X125961563Y-99579493D01*
X126040915Y-99676184D01*
X126137606Y-99755536D01*
X126247920Y-99814501D01*
X126367618Y-99850811D01*
X126492100Y-99863071D01*
X128092100Y-99863071D01*
X128216582Y-99850811D01*
X128336280Y-99814501D01*
X128446594Y-99755536D01*
X128543285Y-99676184D01*
X128622637Y-99579493D01*
X128681602Y-99469179D01*
X128701677Y-99402999D01*
X131569028Y-99402999D01*
X131569028Y-101002999D01*
X131581288Y-101127481D01*
X131617598Y-101247179D01*
X131676563Y-101357493D01*
X131755915Y-101454184D01*
X131852606Y-101533536D01*
X131962920Y-101592501D01*
X132082618Y-101628811D01*
X132207100Y-101641071D01*
X133807100Y-101641071D01*
X133931582Y-101628811D01*
X134051280Y-101592501D01*
X134161594Y-101533536D01*
X134258285Y-101454184D01*
X134337637Y-101357493D01*
X134396602Y-101247179D01*
X134432912Y-101127481D01*
X134445172Y-101002999D01*
X134445172Y-100552038D01*
X139235196Y-100552038D01*
X139275854Y-100686086D01*
X139396063Y-100940419D01*
X139563581Y-101166413D01*
X139771969Y-101355384D01*
X140013219Y-101500069D01*
X140278060Y-101594908D01*
X140500100Y-101473623D01*
X140500100Y-100329999D01*
X140754100Y-100329999D01*
X140754100Y-101473623D01*
X140976140Y-101594908D01*
X141240981Y-101500069D01*
X141482231Y-101355384D01*
X141690619Y-101166413D01*
X141858137Y-100940419D01*
X141978346Y-100686086D01*
X142019004Y-100552038D01*
X141897015Y-100329999D01*
X140754100Y-100329999D01*
X140500100Y-100329999D01*
X139357185Y-100329999D01*
X139235196Y-100552038D01*
X134445172Y-100552038D01*
X134445172Y-99853960D01*
X139235196Y-99853960D01*
X139357185Y-100075999D01*
X140500100Y-100075999D01*
X140500100Y-98932375D01*
X140754100Y-98932375D01*
X140754100Y-100075999D01*
X141897015Y-100075999D01*
X142019004Y-99853960D01*
X141978346Y-99719912D01*
X141858137Y-99465579D01*
X141690619Y-99239585D01*
X141482231Y-99050614D01*
X141240981Y-98905929D01*
X140976140Y-98811090D01*
X140754100Y-98932375D01*
X140500100Y-98932375D01*
X140278060Y-98811090D01*
X140013219Y-98905929D01*
X139771969Y-99050614D01*
X139563581Y-99239585D01*
X139396063Y-99465579D01*
X139275854Y-99719912D01*
X139235196Y-99853960D01*
X134445172Y-99853960D01*
X134445172Y-99402999D01*
X134432912Y-99278517D01*
X134396602Y-99158819D01*
X134337637Y-99048505D01*
X134258285Y-98951814D01*
X134161594Y-98872462D01*
X134051280Y-98813497D01*
X133931582Y-98777187D01*
X133807100Y-98764927D01*
X132207100Y-98764927D01*
X132082618Y-98777187D01*
X131962920Y-98813497D01*
X131852606Y-98872462D01*
X131755915Y-98951814D01*
X131676563Y-99048505D01*
X131617598Y-99158819D01*
X131581288Y-99278517D01*
X131569028Y-99402999D01*
X128701677Y-99402999D01*
X128717912Y-99349481D01*
X128730172Y-99224999D01*
X128730172Y-97624999D01*
X128717912Y-97500517D01*
X128681602Y-97380819D01*
X128622637Y-97270505D01*
X128543285Y-97173814D01*
X128446594Y-97094462D01*
X128336280Y-97035497D01*
X128216582Y-96999187D01*
X128092100Y-96986927D01*
X126492100Y-96986927D01*
X126367618Y-96999187D01*
X126247920Y-97035497D01*
X126137606Y-97094462D01*
X126040915Y-97173814D01*
X125961563Y-97270505D01*
X125902598Y-97380819D01*
X125866288Y-97500517D01*
X125865457Y-97508960D01*
X125666859Y-97310362D01*
X125431827Y-97153319D01*
X125170674Y-97045146D01*
X124893435Y-96989999D01*
X124610765Y-96989999D01*
X124333526Y-97045146D01*
X124097101Y-97143076D01*
X124097101Y-95766803D01*
X126366844Y-93497060D01*
X135782100Y-93497060D01*
X135782100Y-93700938D01*
X135821874Y-93900897D01*
X135899895Y-94089255D01*
X136013163Y-94258773D01*
X136157326Y-94402936D01*
X136326844Y-94516204D01*
X136515202Y-94594225D01*
X136715161Y-94633999D01*
X136919039Y-94633999D01*
X137118998Y-94594225D01*
X137307356Y-94516204D01*
X137476874Y-94402936D01*
X137621037Y-94258773D01*
X137734305Y-94089255D01*
X137812326Y-93900897D01*
X137852100Y-93700938D01*
X137852100Y-93497060D01*
X137812326Y-93297101D01*
X137734305Y-93108743D01*
X137621037Y-92939225D01*
X137577100Y-92895288D01*
X137577100Y-92494999D01*
X146759028Y-92494999D01*
X146759028Y-94194999D01*
X146771288Y-94319481D01*
X146807598Y-94439179D01*
X146866563Y-94549493D01*
X146945915Y-94646184D01*
X147042606Y-94725536D01*
X147152920Y-94784501D01*
X147225480Y-94806512D01*
X147093625Y-94938367D01*
X146931110Y-95181588D01*
X146819168Y-95451841D01*
X146762100Y-95738739D01*
X146762100Y-96031259D01*
X146819168Y-96318157D01*
X146931110Y-96588410D01*
X147093625Y-96831631D01*
X147300468Y-97038474D01*
X147543689Y-97200989D01*
X147813942Y-97312931D01*
X148100840Y-97369999D01*
X148393360Y-97369999D01*
X148680258Y-97312931D01*
X148950511Y-97200989D01*
X149193732Y-97038474D01*
X149400575Y-96831631D01*
X149563090Y-96588410D01*
X149675032Y-96318157D01*
X149732100Y-96031259D01*
X149732100Y-95738739D01*
X149675032Y-95451841D01*
X149563090Y-95181588D01*
X149400575Y-94938367D01*
X149268720Y-94806512D01*
X149341280Y-94784501D01*
X149451594Y-94725536D01*
X149548285Y-94646184D01*
X149627637Y-94549493D01*
X149686602Y-94439179D01*
X149722912Y-94319481D01*
X149735172Y-94194999D01*
X149735172Y-92494999D01*
X149722912Y-92370517D01*
X149686602Y-92250819D01*
X149627637Y-92140505D01*
X149548285Y-92043814D01*
X149451594Y-91964462D01*
X149341280Y-91905497D01*
X149221582Y-91869187D01*
X149097100Y-91856927D01*
X147397100Y-91856927D01*
X147272618Y-91869187D01*
X147152920Y-91905497D01*
X147042606Y-91964462D01*
X146945915Y-92043814D01*
X146866563Y-92140505D01*
X146807598Y-92250819D01*
X146771288Y-92370517D01*
X146759028Y-92494999D01*
X137577100Y-92494999D01*
X137577100Y-85404800D01*
X138355692Y-84626209D01*
X138575840Y-84669999D01*
X138868360Y-84669999D01*
X139155258Y-84612931D01*
X139425511Y-84500989D01*
X139668732Y-84338474D01*
X139800587Y-84206619D01*
X139822598Y-84279179D01*
X139881563Y-84389493D01*
X139960915Y-84486184D01*
X140057606Y-84565536D01*
X140167920Y-84624501D01*
X140287618Y-84660811D01*
X140412100Y-84673071D01*
X142112100Y-84673071D01*
X142236582Y-84660811D01*
X142356280Y-84624501D01*
X142466594Y-84565536D01*
X142563285Y-84486184D01*
X142642637Y-84389493D01*
X142701602Y-84279179D01*
X142737912Y-84159481D01*
X142750172Y-84034999D01*
X142750172Y-82949171D01*
X145001785Y-82949171D01*
X145001785Y-83420829D01*
X145093801Y-83883425D01*
X145274296Y-84319181D01*
X145536336Y-84711350D01*
X145869849Y-85044863D01*
X146262018Y-85306903D01*
X146697774Y-85487398D01*
X147160370Y-85579414D01*
X147632028Y-85579414D01*
X148094624Y-85487398D01*
X148530380Y-85306903D01*
X148922549Y-85044863D01*
X149256062Y-84711350D01*
X149518102Y-84319181D01*
X149698597Y-83883425D01*
X149790613Y-83420829D01*
X149790613Y-82949171D01*
X149698597Y-82486575D01*
X149518102Y-82050819D01*
X149256062Y-81658650D01*
X148922549Y-81325137D01*
X148530380Y-81063097D01*
X148094624Y-80882602D01*
X147632028Y-80790586D01*
X147160370Y-80790586D01*
X146697774Y-80882602D01*
X146262018Y-81063097D01*
X145869849Y-81325137D01*
X145536336Y-81658650D01*
X145274296Y-82050819D01*
X145093801Y-82486575D01*
X145001785Y-82949171D01*
X142750172Y-82949171D01*
X142750172Y-82334999D01*
X142737912Y-82210517D01*
X142701602Y-82090819D01*
X142642637Y-81980505D01*
X142563285Y-81883814D01*
X142466594Y-81804462D01*
X142356280Y-81745497D01*
X142236582Y-81709187D01*
X142112100Y-81696927D01*
X140412100Y-81696927D01*
X140287618Y-81709187D01*
X140167920Y-81745497D01*
X140057606Y-81804462D01*
X139960915Y-81883814D01*
X139881563Y-81980505D01*
X139822598Y-82090819D01*
X139800587Y-82163379D01*
X139668732Y-82031524D01*
X139425511Y-81869009D01*
X139155258Y-81757067D01*
X138868360Y-81699999D01*
X138575840Y-81699999D01*
X138288942Y-81757067D01*
X138018689Y-81869009D01*
X137775468Y-82031524D01*
X137568625Y-82238367D01*
X137406110Y-82481588D01*
X137294168Y-82751841D01*
X137237100Y-83038739D01*
X137237100Y-83331259D01*
X137280890Y-83551407D01*
X136596613Y-84235685D01*
X136524853Y-84257453D01*
X136392824Y-84328025D01*
X136277099Y-84422998D01*
X136182126Y-84538723D01*
X136111554Y-84670752D01*
X136068097Y-84814013D01*
X136053423Y-84962999D01*
X136057101Y-85000342D01*
X136057100Y-92895288D01*
X136013163Y-92939225D01*
X135899895Y-93108743D01*
X135821874Y-93297101D01*
X135782100Y-93497060D01*
X126366844Y-93497060D01*
X127065904Y-92798001D01*
X128237780Y-92798001D01*
X128275102Y-92801677D01*
X128312424Y-92798001D01*
X128312435Y-92798001D01*
X128424088Y-92787004D01*
X128567349Y-92743547D01*
X128699378Y-92672975D01*
X128815103Y-92578002D01*
X128838906Y-92548998D01*
X130343103Y-91044802D01*
X130372101Y-91021004D01*
X130467074Y-90905279D01*
X130537646Y-90773250D01*
X130581103Y-90629989D01*
X130592100Y-90518336D01*
X130592100Y-90518328D01*
X130595776Y-90481003D01*
X130592100Y-90443678D01*
X130592100Y-84673071D01*
X130682100Y-84673071D01*
X130806582Y-84660811D01*
X130926280Y-84624501D01*
X131036594Y-84565536D01*
X131133285Y-84486184D01*
X131212637Y-84389493D01*
X131271602Y-84279179D01*
X131307912Y-84159481D01*
X131320172Y-84034999D01*
X131320172Y-82334999D01*
X131307912Y-82210517D01*
X131271602Y-82090819D01*
X131212637Y-81980505D01*
X131133285Y-81883814D01*
X131036594Y-81804462D01*
X130926280Y-81745497D01*
X130806582Y-81709187D01*
X130682100Y-81696927D01*
X128982100Y-81696927D01*
X128857618Y-81709187D01*
X128737920Y-81745497D01*
X128627606Y-81804462D01*
X128530915Y-81883814D01*
X128451563Y-81980505D01*
X128392598Y-82090819D01*
X128370587Y-82163379D01*
X128238732Y-82031524D01*
X127995511Y-81869009D01*
X127725258Y-81757067D01*
X127438360Y-81699999D01*
X127145840Y-81699999D01*
X126858942Y-81757067D01*
X126588689Y-81869009D01*
X126345468Y-82031524D01*
X126138625Y-82238367D01*
X125976110Y-82481588D01*
X125864168Y-82751841D01*
X125807100Y-83038739D01*
X125807100Y-83331259D01*
X125864168Y-83618157D01*
X125976110Y-83888410D01*
X126138625Y-84131631D01*
X126345468Y-84338474D01*
X126532100Y-84463178D01*
X126532101Y-88967162D01*
X126505326Y-88985052D01*
X126361163Y-89129215D01*
X126247895Y-89298733D01*
X126169874Y-89487091D01*
X126130100Y-89687050D01*
X126130100Y-89890928D01*
X126169874Y-90090887D01*
X126247895Y-90279245D01*
X126361163Y-90448763D01*
X126505326Y-90592926D01*
X126674844Y-90706194D01*
X126863202Y-90784215D01*
X127063161Y-90823989D01*
X127267039Y-90823989D01*
X127466998Y-90784215D01*
X127655356Y-90706194D01*
X127824874Y-90592926D01*
X127969037Y-90448763D01*
X128082305Y-90279245D01*
X128160326Y-90090887D01*
X128200100Y-89890928D01*
X128200100Y-89687050D01*
X128160326Y-89487091D01*
X128082305Y-89298733D01*
X128052100Y-89253528D01*
X128052100Y-84463177D01*
X128238732Y-84338474D01*
X128370587Y-84206619D01*
X128392598Y-84279179D01*
X128451563Y-84389493D01*
X128530915Y-84486184D01*
X128627606Y-84565536D01*
X128737920Y-84624501D01*
X128857618Y-84660811D01*
X128982100Y-84673071D01*
X129072100Y-84673071D01*
X129072101Y-90166200D01*
X127960301Y-91278001D01*
X126788435Y-91278001D01*
X126751102Y-91274324D01*
X126713769Y-91278001D01*
X126602116Y-91288998D01*
X126458855Y-91332455D01*
X126326826Y-91403027D01*
X126211101Y-91498000D01*
X126187303Y-91526998D01*
X122826104Y-94888198D01*
X122797100Y-94912001D01*
X122741972Y-94979176D01*
X122702127Y-95027726D01*
X122631556Y-95159755D01*
X122631555Y-95159756D01*
X122588098Y-95303017D01*
X122577101Y-95414670D01*
X122577101Y-95414680D01*
X122573425Y-95452002D01*
X122577101Y-95489325D01*
X122577101Y-97034490D01*
X122353435Y-96989999D01*
X122070765Y-96989999D01*
X121793526Y-97045146D01*
X121532373Y-97153319D01*
X121297341Y-97310362D01*
X121097463Y-97510240D01*
X120940420Y-97745272D01*
X120936033Y-97755864D01*
X120824485Y-97569868D01*
X120635514Y-97361480D01*
X120409520Y-97193962D01*
X120155187Y-97073753D01*
X120021139Y-97033095D01*
X119799100Y-97155084D01*
X119799100Y-98297999D01*
X119819100Y-98297999D01*
X119819100Y-98551999D01*
X119799100Y-98551999D01*
X119799100Y-98571999D01*
X119545100Y-98571999D01*
X119545100Y-98551999D01*
X119525100Y-98551999D01*
X119525100Y-98297999D01*
X119545100Y-98297999D01*
X119545100Y-97155084D01*
X119323061Y-97033095D01*
X119289100Y-97043396D01*
X119289100Y-93317800D01*
X120019381Y-92587520D01*
X120097920Y-92629501D01*
X120217618Y-92665811D01*
X120342100Y-92678071D01*
X121542100Y-92678071D01*
X121666582Y-92665811D01*
X121786280Y-92629501D01*
X121896594Y-92570536D01*
X121993285Y-92491184D01*
X122072637Y-92394493D01*
X122131602Y-92284179D01*
X122167912Y-92164481D01*
X122180172Y-92039999D01*
X122180172Y-90839999D01*
X122167912Y-90715517D01*
X122131602Y-90595819D01*
X122072637Y-90485505D01*
X121993285Y-90388814D01*
X121896594Y-90309462D01*
X121851094Y-90285141D01*
X121908972Y-90227263D01*
X121791866Y-90110157D01*
X122015448Y-90062851D01*
X122116337Y-89841483D01*
X122172100Y-89604686D01*
X122180595Y-89361561D01*
X122141495Y-89121450D01*
X122056302Y-88893581D01*
X122015448Y-88817147D01*
X121791864Y-88769840D01*
X121121705Y-89439999D01*
X121135848Y-89454142D01*
X120956243Y-89633747D01*
X120942100Y-89619604D01*
X120927958Y-89633747D01*
X120748353Y-89454142D01*
X120762495Y-89439999D01*
X120092336Y-88769840D01*
X119868752Y-88817147D01*
X119767863Y-89038515D01*
X119712100Y-89275312D01*
X119703605Y-89518437D01*
X119742705Y-89758548D01*
X119827898Y-89986417D01*
X119868752Y-90062851D01*
X120092334Y-90110157D01*
X119975228Y-90227263D01*
X120033106Y-90285141D01*
X119987606Y-90309462D01*
X119890915Y-90388814D01*
X119811563Y-90485505D01*
X119752598Y-90595819D01*
X119716288Y-90715517D01*
X119709676Y-90782654D01*
X119667824Y-90805025D01*
X119552099Y-90899998D01*
X119528301Y-90928996D01*
X118018098Y-92439200D01*
X117989100Y-92462998D01*
X117965302Y-92491996D01*
X117965301Y-92491997D01*
X117894126Y-92578723D01*
X117823554Y-92710753D01*
X117780098Y-92854014D01*
X117765424Y-93002999D01*
X117769101Y-93040331D01*
X117769100Y-97135621D01*
X117550674Y-97045146D01*
X117273435Y-96989999D01*
X116990765Y-96989999D01*
X116713526Y-97045146D01*
X116452373Y-97153319D01*
X116217341Y-97310362D01*
X116017463Y-97510240D01*
X115862100Y-97742758D01*
X115706737Y-97510240D01*
X115506859Y-97310362D01*
X115271827Y-97153319D01*
X115010674Y-97045146D01*
X114733435Y-96989999D01*
X114450765Y-96989999D01*
X114173526Y-97045146D01*
X113912373Y-97153319D01*
X113677341Y-97310362D01*
X113477463Y-97510240D01*
X113322100Y-97742758D01*
X113166737Y-97510240D01*
X112966859Y-97310362D01*
X112731827Y-97153319D01*
X112470674Y-97045146D01*
X112193435Y-96989999D01*
X111910765Y-96989999D01*
X111633526Y-97045146D01*
X111372373Y-97153319D01*
X111137341Y-97310362D01*
X110937463Y-97510240D01*
X110782100Y-97742758D01*
X110626737Y-97510240D01*
X110426859Y-97310362D01*
X110191827Y-97153319D01*
X109930674Y-97045146D01*
X109653435Y-96989999D01*
X109370765Y-96989999D01*
X109093526Y-97045146D01*
X108832373Y-97153319D01*
X108597341Y-97310362D01*
X108397463Y-97510240D01*
X108242100Y-97742758D01*
X108086737Y-97510240D01*
X107886859Y-97310362D01*
X107651827Y-97153319D01*
X107390674Y-97045146D01*
X107113435Y-96989999D01*
X106830765Y-96989999D01*
X106553526Y-97045146D01*
X106292373Y-97153319D01*
X106057341Y-97310362D01*
X105857463Y-97510240D01*
X105702100Y-97742758D01*
X105546737Y-97510240D01*
X105346859Y-97310362D01*
X105111827Y-97153319D01*
X104850674Y-97045146D01*
X104573435Y-96989999D01*
X104290765Y-96989999D01*
X104013526Y-97045146D01*
X103752373Y-97153319D01*
X103517341Y-97310362D01*
X103317463Y-97510240D01*
X103162100Y-97742758D01*
X103006737Y-97510240D01*
X102806859Y-97310362D01*
X102571827Y-97153319D01*
X102310674Y-97045146D01*
X102033435Y-96989999D01*
X101750765Y-96989999D01*
X101473526Y-97045146D01*
X101212373Y-97153319D01*
X100977341Y-97310362D01*
X100777463Y-97510240D01*
X100622100Y-97742758D01*
X100466737Y-97510240D01*
X100266859Y-97310362D01*
X100031827Y-97153319D01*
X99770674Y-97045146D01*
X99493435Y-96989999D01*
X99210765Y-96989999D01*
X98933526Y-97045146D01*
X98672373Y-97153319D01*
X98437341Y-97310362D01*
X98237463Y-97510240D01*
X98082100Y-97742758D01*
X97926737Y-97510240D01*
X97726859Y-97310362D01*
X97491827Y-97153319D01*
X97230674Y-97045146D01*
X96953435Y-96989999D01*
X96670765Y-96989999D01*
X96393526Y-97045146D01*
X96132373Y-97153319D01*
X95897341Y-97310362D01*
X95697463Y-97510240D01*
X95542100Y-97742758D01*
X95386737Y-97510240D01*
X95186859Y-97310362D01*
X94951827Y-97153319D01*
X94690674Y-97045146D01*
X94413435Y-96989999D01*
X94130765Y-96989999D01*
X93853526Y-97045146D01*
X93592373Y-97153319D01*
X93357341Y-97310362D01*
X93157463Y-97510240D01*
X93002100Y-97742758D01*
X92846737Y-97510240D01*
X92646859Y-97310362D01*
X92411827Y-97153319D01*
X92150674Y-97045146D01*
X91873435Y-96989999D01*
X91590765Y-96989999D01*
X91313526Y-97045146D01*
X91052373Y-97153319D01*
X90817341Y-97310362D01*
X90617463Y-97510240D01*
X90460420Y-97745272D01*
X90352247Y-98006425D01*
X90297100Y-98283664D01*
X84872100Y-98283664D01*
X84872100Y-96834800D01*
X88951902Y-92754999D01*
X110272473Y-92754999D01*
X110337325Y-92911565D01*
X110549087Y-93228490D01*
X110818609Y-93498012D01*
X111135534Y-93709774D01*
X111487681Y-93855638D01*
X111861519Y-93929999D01*
X112242681Y-93929999D01*
X112616519Y-93855638D01*
X112968666Y-93709774D01*
X113285591Y-93498012D01*
X113555113Y-93228490D01*
X113766875Y-92911565D01*
X113912739Y-92559418D01*
X113987100Y-92185580D01*
X113987100Y-91804418D01*
X113912739Y-91430580D01*
X113766875Y-91078433D01*
X113555113Y-90761508D01*
X113285591Y-90491986D01*
X112968666Y-90280224D01*
X112616519Y-90134360D01*
X112242681Y-90059999D01*
X111861519Y-90059999D01*
X111487681Y-90134360D01*
X111135534Y-90280224D01*
X110818609Y-90491986D01*
X110549087Y-90761508D01*
X110337325Y-91078433D01*
X110272473Y-91234999D01*
X88674422Y-91234999D01*
X88637099Y-91231323D01*
X88599776Y-91234999D01*
X88599767Y-91234999D01*
X88488114Y-91245996D01*
X88344853Y-91289453D01*
X88212824Y-91360025D01*
X88097099Y-91454998D01*
X88073301Y-91483996D01*
X83601098Y-95956200D01*
X83572100Y-95979998D01*
X83548302Y-96008996D01*
X83548301Y-96008997D01*
X83477126Y-96095723D01*
X83406554Y-96227753D01*
X83363098Y-96371014D01*
X83348424Y-96519999D01*
X83352101Y-96557331D01*
X83352100Y-103542331D01*
X83352101Y-103542341D01*
X83352100Y-107246288D01*
X83308163Y-107290225D01*
X83194895Y-107459743D01*
X83116874Y-107648101D01*
X83077100Y-107848060D01*
X68972100Y-107848060D01*
X68972100Y-107099999D01*
X70559028Y-107099999D01*
X70562100Y-107664249D01*
X70720850Y-107822999D01*
X71920100Y-107822999D01*
X71920100Y-107802999D01*
X72174100Y-107802999D01*
X72174100Y-107822999D01*
X73373350Y-107822999D01*
X73532100Y-107664249D01*
X73535172Y-107099999D01*
X73522912Y-106975517D01*
X73486602Y-106855819D01*
X73427637Y-106745505D01*
X73348285Y-106648814D01*
X73251594Y-106569462D01*
X73141280Y-106510497D01*
X73068720Y-106488486D01*
X73200575Y-106356631D01*
X73363090Y-106113410D01*
X73475032Y-105843157D01*
X73532100Y-105556259D01*
X73532100Y-105263739D01*
X73475032Y-104976841D01*
X73363090Y-104706588D01*
X73200575Y-104463367D01*
X72993732Y-104256524D01*
X72819340Y-104139999D01*
X72993732Y-104023474D01*
X73200575Y-103816631D01*
X73363090Y-103573410D01*
X73475032Y-103303157D01*
X73532100Y-103016259D01*
X73532100Y-102723739D01*
X73475032Y-102436841D01*
X73363090Y-102166588D01*
X73200575Y-101923367D01*
X72993732Y-101716524D01*
X72819340Y-101599999D01*
X72993732Y-101483474D01*
X73200575Y-101276631D01*
X73363090Y-101033410D01*
X73475032Y-100763157D01*
X73532100Y-100476259D01*
X73532100Y-100183739D01*
X73475032Y-99896841D01*
X73363090Y-99626588D01*
X73200575Y-99383367D01*
X72993732Y-99176524D01*
X72750511Y-99014009D01*
X72480258Y-98902067D01*
X72193360Y-98844999D01*
X71900840Y-98844999D01*
X71613942Y-98902067D01*
X71343689Y-99014009D01*
X71100468Y-99176524D01*
X70893625Y-99383367D01*
X70731110Y-99626588D01*
X70619168Y-99896841D01*
X70562100Y-100183739D01*
X70562100Y-100476259D01*
X70619168Y-100763157D01*
X70731110Y-101033410D01*
X70893625Y-101276631D01*
X71100468Y-101483474D01*
X71274860Y-101599999D01*
X71100468Y-101716524D01*
X70893625Y-101923367D01*
X70731110Y-102166588D01*
X70619168Y-102436841D01*
X70562100Y-102723739D01*
X70562100Y-103016259D01*
X70619168Y-103303157D01*
X70731110Y-103573410D01*
X70893625Y-103816631D01*
X71100468Y-104023474D01*
X71274860Y-104139999D01*
X71100468Y-104256524D01*
X70893625Y-104463367D01*
X70731110Y-104706588D01*
X70619168Y-104976841D01*
X70562100Y-105263739D01*
X70562100Y-105556259D01*
X70619168Y-105843157D01*
X70731110Y-106113410D01*
X70893625Y-106356631D01*
X71025480Y-106488486D01*
X70952920Y-106510497D01*
X70842606Y-106569462D01*
X70745915Y-106648814D01*
X70666563Y-106745505D01*
X70607598Y-106855819D01*
X70571288Y-106975517D01*
X70559028Y-107099999D01*
X68972100Y-107099999D01*
X68972100Y-86804418D01*
X110117100Y-86804418D01*
X110117100Y-87185580D01*
X110191461Y-87559418D01*
X110337325Y-87911565D01*
X110549087Y-88228490D01*
X110818609Y-88498012D01*
X111135534Y-88709774D01*
X111487681Y-88855638D01*
X111861519Y-88929999D01*
X112242681Y-88929999D01*
X112616519Y-88855638D01*
X112968666Y-88709774D01*
X113147569Y-88590235D01*
X120271941Y-88590235D01*
X120942100Y-89260394D01*
X121612259Y-88590235D01*
X121564952Y-88366651D01*
X121343584Y-88265762D01*
X121106787Y-88209999D01*
X120863662Y-88201504D01*
X120623551Y-88240604D01*
X120395682Y-88325797D01*
X120319248Y-88366651D01*
X120271941Y-88590235D01*
X113147569Y-88590235D01*
X113285591Y-88498012D01*
X113555113Y-88228490D01*
X113766875Y-87911565D01*
X113912739Y-87559418D01*
X113987100Y-87185580D01*
X113987100Y-86804418D01*
X113912739Y-86430580D01*
X113766875Y-86078433D01*
X113555113Y-85761508D01*
X113285591Y-85491986D01*
X112968666Y-85280224D01*
X112616519Y-85134360D01*
X112242681Y-85059999D01*
X111861519Y-85059999D01*
X111487681Y-85134360D01*
X111135534Y-85280224D01*
X110818609Y-85491986D01*
X110549087Y-85761508D01*
X110337325Y-86078433D01*
X110191461Y-86430580D01*
X110117100Y-86804418D01*
X68972100Y-86804418D01*
X68972100Y-82949171D01*
X69995586Y-82949171D01*
X69995586Y-83420829D01*
X70087602Y-83883425D01*
X70268097Y-84319181D01*
X70530137Y-84711350D01*
X70863650Y-85044863D01*
X71255819Y-85306903D01*
X71691575Y-85487398D01*
X72154171Y-85579414D01*
X72625829Y-85579414D01*
X73088425Y-85487398D01*
X73524181Y-85306903D01*
X73916350Y-85044863D01*
X74249863Y-84711350D01*
X74511903Y-84319181D01*
X74692398Y-83883425D01*
X74760333Y-83541890D01*
X75050619Y-83541890D01*
X75147943Y-83816251D01*
X75296922Y-84066354D01*
X75491831Y-84282587D01*
X75725180Y-84456640D01*
X75988001Y-84581824D01*
X76135210Y-84626475D01*
X76365100Y-84505154D01*
X76365100Y-83311999D01*
X75171286Y-83311999D01*
X75050619Y-83541890D01*
X74760333Y-83541890D01*
X74784414Y-83420829D01*
X74784414Y-82949171D01*
X74760334Y-82828108D01*
X75050619Y-82828108D01*
X75171286Y-83057999D01*
X76365100Y-83057999D01*
X76365100Y-81864844D01*
X76619100Y-81864844D01*
X76619100Y-83057999D01*
X76639100Y-83057999D01*
X76639100Y-83311999D01*
X76619100Y-83311999D01*
X76619100Y-84505154D01*
X76848990Y-84626475D01*
X76996199Y-84581824D01*
X77259020Y-84456640D01*
X77492369Y-84282587D01*
X77687278Y-84066354D01*
X77756905Y-83949465D01*
X77878625Y-84131631D01*
X78085468Y-84338474D01*
X78328689Y-84500989D01*
X78598942Y-84612931D01*
X78885840Y-84669999D01*
X79178360Y-84669999D01*
X79465258Y-84612931D01*
X79735511Y-84500989D01*
X79978732Y-84338474D01*
X80185575Y-84131631D01*
X80302100Y-83957239D01*
X80418625Y-84131631D01*
X80625468Y-84338474D01*
X80868689Y-84500989D01*
X81138942Y-84612931D01*
X81425840Y-84669999D01*
X81718360Y-84669999D01*
X82005258Y-84612931D01*
X82275511Y-84500989D01*
X82518732Y-84338474D01*
X82725575Y-84131631D01*
X82842100Y-83957239D01*
X82958625Y-84131631D01*
X83165468Y-84338474D01*
X83408689Y-84500989D01*
X83678942Y-84612931D01*
X83965840Y-84669999D01*
X84258360Y-84669999D01*
X84545258Y-84612931D01*
X84815511Y-84500989D01*
X85058732Y-84338474D01*
X85265575Y-84131631D01*
X85382100Y-83957239D01*
X85498625Y-84131631D01*
X85705468Y-84338474D01*
X85948689Y-84500989D01*
X86218942Y-84612931D01*
X86505840Y-84669999D01*
X86798360Y-84669999D01*
X87085258Y-84612931D01*
X87355511Y-84500989D01*
X87598732Y-84338474D01*
X87805575Y-84131631D01*
X87922100Y-83957239D01*
X88038625Y-84131631D01*
X88245468Y-84338474D01*
X88488689Y-84500989D01*
X88758942Y-84612931D01*
X89045840Y-84669999D01*
X89338360Y-84669999D01*
X89625258Y-84612931D01*
X89895511Y-84500989D01*
X90138732Y-84338474D01*
X90345575Y-84131631D01*
X90462100Y-83957239D01*
X90578625Y-84131631D01*
X90785468Y-84338474D01*
X91028689Y-84500989D01*
X91298942Y-84612931D01*
X91585840Y-84669999D01*
X91878360Y-84669999D01*
X92165258Y-84612931D01*
X92435511Y-84500989D01*
X92678732Y-84338474D01*
X92885575Y-84131631D01*
X93002100Y-83957239D01*
X93118625Y-84131631D01*
X93325468Y-84338474D01*
X93568689Y-84500989D01*
X93838942Y-84612931D01*
X94125840Y-84669999D01*
X94418360Y-84669999D01*
X94705258Y-84612931D01*
X94975511Y-84500989D01*
X95218732Y-84338474D01*
X95425575Y-84131631D01*
X95542100Y-83957239D01*
X95658625Y-84131631D01*
X95865468Y-84338474D01*
X96108689Y-84500989D01*
X96378942Y-84612931D01*
X96665840Y-84669999D01*
X96958360Y-84669999D01*
X97245258Y-84612931D01*
X97515511Y-84500989D01*
X97758732Y-84338474D01*
X97965575Y-84131631D01*
X98082100Y-83957239D01*
X98198625Y-84131631D01*
X98405468Y-84338474D01*
X98648689Y-84500989D01*
X98918942Y-84612931D01*
X99205840Y-84669999D01*
X99498360Y-84669999D01*
X99785258Y-84612931D01*
X100055511Y-84500989D01*
X100298732Y-84338474D01*
X100505575Y-84131631D01*
X100622100Y-83957239D01*
X100738625Y-84131631D01*
X100945468Y-84338474D01*
X101188689Y-84500989D01*
X101458942Y-84612931D01*
X101745840Y-84669999D01*
X102038360Y-84669999D01*
X102325258Y-84612931D01*
X102595511Y-84500989D01*
X102838732Y-84338474D01*
X103045575Y-84131631D01*
X103162100Y-83957239D01*
X103278625Y-84131631D01*
X103485468Y-84338474D01*
X103728689Y-84500989D01*
X103998942Y-84612931D01*
X104285840Y-84669999D01*
X104578360Y-84669999D01*
X104865258Y-84612931D01*
X105135511Y-84500989D01*
X105378732Y-84338474D01*
X105585575Y-84131631D01*
X105702100Y-83957239D01*
X105818625Y-84131631D01*
X106025468Y-84338474D01*
X106268689Y-84500989D01*
X106538942Y-84612931D01*
X106825840Y-84669999D01*
X107118360Y-84669999D01*
X107405258Y-84612931D01*
X107675511Y-84500989D01*
X107918732Y-84338474D01*
X108125575Y-84131631D01*
X108242100Y-83957239D01*
X108358625Y-84131631D01*
X108565468Y-84338474D01*
X108808689Y-84500989D01*
X109078942Y-84612931D01*
X109365840Y-84669999D01*
X109658360Y-84669999D01*
X109945258Y-84612931D01*
X110215511Y-84500989D01*
X110458732Y-84338474D01*
X110665575Y-84131631D01*
X110782100Y-83957239D01*
X110898625Y-84131631D01*
X111105468Y-84338474D01*
X111348689Y-84500989D01*
X111618942Y-84612931D01*
X111905840Y-84669999D01*
X112198360Y-84669999D01*
X112485258Y-84612931D01*
X112755511Y-84500989D01*
X112998732Y-84338474D01*
X113130587Y-84206619D01*
X113152598Y-84279179D01*
X113211563Y-84389493D01*
X113290915Y-84486184D01*
X113387606Y-84565536D01*
X113497920Y-84624501D01*
X113617618Y-84660811D01*
X113742100Y-84673071D01*
X114306350Y-84669999D01*
X114465100Y-84511249D01*
X114465100Y-83311999D01*
X114719100Y-83311999D01*
X114719100Y-84511249D01*
X114877850Y-84669999D01*
X115442100Y-84673071D01*
X115566582Y-84660811D01*
X115686280Y-84624501D01*
X115796594Y-84565536D01*
X115893285Y-84486184D01*
X115972637Y-84389493D01*
X116031602Y-84279179D01*
X116067912Y-84159481D01*
X116080172Y-84034999D01*
X116077100Y-83470749D01*
X115918350Y-83311999D01*
X114719100Y-83311999D01*
X114465100Y-83311999D01*
X114445100Y-83311999D01*
X114445100Y-83057999D01*
X114465100Y-83057999D01*
X114465100Y-81858749D01*
X114719100Y-81858749D01*
X114719100Y-83057999D01*
X115918350Y-83057999D01*
X116077100Y-82899249D01*
X116080172Y-82334999D01*
X116067912Y-82210517D01*
X116031602Y-82090819D01*
X115972637Y-81980505D01*
X115893285Y-81883814D01*
X115796594Y-81804462D01*
X115686280Y-81745497D01*
X115566582Y-81709187D01*
X115442100Y-81696927D01*
X114877850Y-81699999D01*
X114719100Y-81858749D01*
X114465100Y-81858749D01*
X114306350Y-81699999D01*
X113742100Y-81696927D01*
X113617618Y-81709187D01*
X113497920Y-81745497D01*
X113387606Y-81804462D01*
X113290915Y-81883814D01*
X113211563Y-81980505D01*
X113152598Y-82090819D01*
X113130587Y-82163379D01*
X112998732Y-82031524D01*
X112755511Y-81869009D01*
X112485258Y-81757067D01*
X112198360Y-81699999D01*
X111905840Y-81699999D01*
X111618942Y-81757067D01*
X111348689Y-81869009D01*
X111105468Y-82031524D01*
X110898625Y-82238367D01*
X110782100Y-82412759D01*
X110665575Y-82238367D01*
X110458732Y-82031524D01*
X110215511Y-81869009D01*
X109945258Y-81757067D01*
X109658360Y-81699999D01*
X109365840Y-81699999D01*
X109078942Y-81757067D01*
X108808689Y-81869009D01*
X108565468Y-82031524D01*
X108358625Y-82238367D01*
X108242100Y-82412759D01*
X108125575Y-82238367D01*
X107918732Y-82031524D01*
X107675511Y-81869009D01*
X107405258Y-81757067D01*
X107118360Y-81699999D01*
X106825840Y-81699999D01*
X106538942Y-81757067D01*
X106268689Y-81869009D01*
X106025468Y-82031524D01*
X105818625Y-82238367D01*
X105702100Y-82412759D01*
X105585575Y-82238367D01*
X105378732Y-82031524D01*
X105135511Y-81869009D01*
X104865258Y-81757067D01*
X104578360Y-81699999D01*
X104285840Y-81699999D01*
X103998942Y-81757067D01*
X103728689Y-81869009D01*
X103485468Y-82031524D01*
X103278625Y-82238367D01*
X103162100Y-82412759D01*
X103045575Y-82238367D01*
X102838732Y-82031524D01*
X102595511Y-81869009D01*
X102325258Y-81757067D01*
X102038360Y-81699999D01*
X101745840Y-81699999D01*
X101458942Y-81757067D01*
X101188689Y-81869009D01*
X100945468Y-82031524D01*
X100738625Y-82238367D01*
X100622100Y-82412759D01*
X100505575Y-82238367D01*
X100298732Y-82031524D01*
X100055511Y-81869009D01*
X99785258Y-81757067D01*
X99498360Y-81699999D01*
X99205840Y-81699999D01*
X98918942Y-81757067D01*
X98648689Y-81869009D01*
X98405468Y-82031524D01*
X98198625Y-82238367D01*
X98082100Y-82412759D01*
X97965575Y-82238367D01*
X97758732Y-82031524D01*
X97515511Y-81869009D01*
X97245258Y-81757067D01*
X96958360Y-81699999D01*
X96665840Y-81699999D01*
X96378942Y-81757067D01*
X96108689Y-81869009D01*
X95865468Y-82031524D01*
X95658625Y-82238367D01*
X95542100Y-82412759D01*
X95425575Y-82238367D01*
X95218732Y-82031524D01*
X94975511Y-81869009D01*
X94705258Y-81757067D01*
X94418360Y-81699999D01*
X94125840Y-81699999D01*
X93838942Y-81757067D01*
X93568689Y-81869009D01*
X93325468Y-82031524D01*
X93118625Y-82238367D01*
X93002100Y-82412759D01*
X92885575Y-82238367D01*
X92678732Y-82031524D01*
X92435511Y-81869009D01*
X92165258Y-81757067D01*
X91878360Y-81699999D01*
X91585840Y-81699999D01*
X91298942Y-81757067D01*
X91028689Y-81869009D01*
X90785468Y-82031524D01*
X90578625Y-82238367D01*
X90462100Y-82412759D01*
X90345575Y-82238367D01*
X90138732Y-82031524D01*
X89895511Y-81869009D01*
X89625258Y-81757067D01*
X89338360Y-81699999D01*
X89045840Y-81699999D01*
X88758942Y-81757067D01*
X88488689Y-81869009D01*
X88245468Y-82031524D01*
X88038625Y-82238367D01*
X87922100Y-82412759D01*
X87805575Y-82238367D01*
X87598732Y-82031524D01*
X87355511Y-81869009D01*
X87085258Y-81757067D01*
X86798360Y-81699999D01*
X86505840Y-81699999D01*
X86218942Y-81757067D01*
X85948689Y-81869009D01*
X85705468Y-82031524D01*
X85498625Y-82238367D01*
X85382100Y-82412759D01*
X85265575Y-82238367D01*
X85058732Y-82031524D01*
X84815511Y-81869009D01*
X84545258Y-81757067D01*
X84258360Y-81699999D01*
X83965840Y-81699999D01*
X83678942Y-81757067D01*
X83408689Y-81869009D01*
X83165468Y-82031524D01*
X82958625Y-82238367D01*
X82842100Y-82412759D01*
X82725575Y-82238367D01*
X82518732Y-82031524D01*
X82275511Y-81869009D01*
X82005258Y-81757067D01*
X81718360Y-81699999D01*
X81425840Y-81699999D01*
X81138942Y-81757067D01*
X80868689Y-81869009D01*
X80625468Y-82031524D01*
X80418625Y-82238367D01*
X80302100Y-82412759D01*
X80185575Y-82238367D01*
X79978732Y-82031524D01*
X79735511Y-81869009D01*
X79465258Y-81757067D01*
X79178360Y-81699999D01*
X78885840Y-81699999D01*
X78598942Y-81757067D01*
X78328689Y-81869009D01*
X78085468Y-82031524D01*
X77878625Y-82238367D01*
X77756905Y-82420533D01*
X77687278Y-82303644D01*
X77492369Y-82087411D01*
X77259020Y-81913358D01*
X76996199Y-81788174D01*
X76848990Y-81743523D01*
X76619100Y-81864844D01*
X76365100Y-81864844D01*
X76135210Y-81743523D01*
X75988001Y-81788174D01*
X75725180Y-81913358D01*
X75491831Y-82087411D01*
X75296922Y-82303644D01*
X75147943Y-82553747D01*
X75050619Y-82828108D01*
X74760334Y-82828108D01*
X74692398Y-82486575D01*
X74511903Y-82050819D01*
X74249863Y-81658650D01*
X73916350Y-81325137D01*
X73524181Y-81063097D01*
X73088425Y-80882602D01*
X72625829Y-80790586D01*
X72154171Y-80790586D01*
X71691575Y-80882602D01*
X71255819Y-81063097D01*
X70863650Y-81325137D01*
X70530137Y-81658650D01*
X70268097Y-82050819D01*
X70087602Y-82486575D01*
X69995586Y-82949171D01*
X68972100Y-82949171D01*
X68972100Y-80694200D01*
X150814099Y-80694200D01*
X150814100Y-109234686D01*
M02*
